<ttFont>
    <TTGlyph name=".notAccess" xMin="11" yMin="0" xMax="542" yMax="533">
      <contour>
        <pt x="274" y="450" on="1"/>
        <pt x="174" y="205" on="1"/>
        <pt x="375" y="205" on="1"/>
      </contour>
      <contour>
        <pt x="464" y="0" on="1"/>
        <pt x="406" y="142" on="1"/>
        <pt x="145" y="142" on="1"/>
        <pt x="87" y="0" on="1"/>
        <pt x="11" y="0" on="1"/>
        <pt x="234" y="533" on="1"/>
        <pt x="316" y="533" on="1"/>
        <pt x="542" y="0" on="1"/>
      </contour>
    </TTGlyph>
    <TTGlyph name=".notdef" xMin="100" yMin="0" xMax="1300" yMax="1800">
      <contour>
        <pt x="150" y="50" on="1"/>
        <pt x="1250" y="50" on="1"/>
        <pt x="1250" y="1750" on="1"/>
        <pt x="150" y="1750" on="1"/>
      </contour>
      <contour>
        <pt x="100" y="1800" on="1"/>
        <pt x="1300" y="1800" on="1"/>
        <pt x="1300" y="0" on="1"/>
        <pt x="100" y="0" on="1"/>
      </contour>
    </TTGlyph>
    <TTGlyph name="A" xMin="-35" yMin="0" xMax="1071" yMax="1317">
      <contour>
        <pt x="371" y="444" on="1"/>
        <pt x="228" y="111" on="1"/>
        <pt x="214" y="80" on="0"/>
        <pt x="273" y="53" on="0"/>
        <pt x="350" y="43" on="1"/>
        <pt x="344" y="0" on="1"/>
        <pt x="-35" y="0" on="1"/>
        <pt x="-29" y="43" on="1"/>
        <pt x="34" y="55" on="0"/>
        <pt x="110" y="82" on="0"/>
        <pt x="123" y="111" on="1"/>
        <pt x="610" y="1229" on="1"/>
        <pt x="623" y="1241" on="0"/>
        <pt x="659" y="1266" on="0"/>
        <pt x="697" y="1289" on="0"/>
        <pt x="732" y="1310" on="0"/>
        <pt x="745" y="1317" on="1"/>
        <pt x="961" y="111" on="1"/>
        <pt x="963" y="97" on="0"/>
        <pt x="974" y="76" on="0"/>
        <pt x="998" y="59" on="0"/>
        <pt x="1039" y="47" on="0"/>
        <pt x="1071" y="43" on="1"/>
        <pt x="1067" y="0" on="1"/>
        <pt x="682" y="0" on="1"/>
        <pt x="686" y="43" on="1"/>
        <pt x="757" y="48" on="0"/>
        <pt x="819" y="79" on="0"/>
        <pt x="813" y="111" on="1"/>
        <pt x="755" y="444" on="1"/>
      </contour>
      <contour>
        <pt x="739" y="535" on="1"/>
        <pt x="645" y="1079" on="1"/>
        <pt x="410" y="535" on="1"/>
      </contour>
    </TTGlyph>
    <TTGlyph name="AE" xMin="-35" yMin="0" xMax="1454" yMax="1260">
      <contour>
        <pt x="819" y="1147" on="1"/>
        <pt x="820" y="1158" on="0"/>
        <pt x="804" y="1169" on="0"/>
        <pt x="780" y="1166" on="0"/>
        <pt x="754" y="1148" on="0"/>
        <pt x="745" y="1130" on="1"/>
        <pt x="551" y="735" on="1"/>
        <pt x="764" y="735" on="1"/>
      </contour>
      <contour>
        <pt x="1380" y="244" on="1"/>
        <pt x="1360" y="157" on="0"/>
        <pt x="1321" y="29" on="0"/>
        <pt x="1309" y="0" on="1"/>
        <pt x="532" y="0" on="1"/>
        <pt x="539" y="43" on="1"/>
        <pt x="602" y="57" on="0"/>
        <pt x="676" y="90" on="0"/>
        <pt x="678" y="104" on="1"/>
        <pt x="752" y="655" on="1"/>
        <pt x="510" y="655" on="1"/>
        <pt x="238" y="111" on="1"/>
        <pt x="222" y="82" on="0"/>
        <pt x="273" y="52" on="0"/>
        <pt x="344" y="43" on="1"/>
        <pt x="340" y="0" on="1"/>
        <pt x="-35" y="0" on="1"/>
        <pt x="-29" y="43" on="1"/>
        <pt x="33" y="55" on="0"/>
        <pt x="107" y="82" on="0"/>
        <pt x="121" y="111" on="1"/>
        <pt x="635" y="1133" on="1"/>
        <pt x="643" y="1150" on="0"/>
        <pt x="627" y="1173" on="0"/>
        <pt x="584" y="1192" on="0"/>
        <pt x="516" y="1208" on="0"/>
        <pt x="473" y="1217" on="1"/>
        <pt x="479" y="1260" on="1"/>
        <pt x="1432" y="1260" on="1"/>
        <pt x="1454" y="1235" on="1"/>
        <pt x="1449" y="1209" on="0"/>
        <pt x="1434" y="1147" on="0"/>
        <pt x="1416" y="1085" on="0"/>
        <pt x="1397" y="1029" on="0"/>
        <pt x="1389" y="1010" on="1"/>
        <pt x="1348" y="1010" on="1"/>
        <pt x="1352" y="1056" on="0"/>
        <pt x="1349" y="1117" on="0"/>
        <pt x="1336" y="1154" on="0"/>
        <pt x="1312" y="1169" on="0"/>
        <pt x="1294" y="1169" on="1"/>
        <pt x="967" y="1169" on="1"/>
        <pt x="907" y="735" on="1"/>
        <pt x="1272" y="735" on="1"/>
        <pt x="1292" y="707" on="1"/>
        <pt x="1282" y="693" on="0"/>
        <pt x="1257" y="662" on="0"/>
        <pt x="1231" y="633" on="0"/>
        <pt x="1205" y="608" on="0"/>
        <pt x="1194" y="600" on="1"/>
        <pt x="1182" y="615" on="0"/>
        <pt x="1154" y="635" on="0"/>
        <pt x="1115" y="649" on="0"/>
        <pt x="1061" y="655" on="0"/>
        <pt x="1024" y="655" on="1"/>
        <pt x="897" y="655" on="1"/>
        <pt x="827" y="154" on="1"/>
        <pt x="825" y="139" on="0"/>
        <pt x="835" y="116" on="0"/>
        <pt x="873" y="99" on="0"/>
        <pt x="944" y="90" on="0"/>
        <pt x="1004" y="90" on="1"/>
        <pt x="1118" y="90" on="1"/>
        <pt x="1160" y="90" on="0"/>
        <pt x="1220" y="100" on="0"/>
        <pt x="1270" y="135" on="0"/>
        <pt x="1316" y="203" on="0"/>
        <pt x="1343" y="262" on="1"/>
      </contour>
    </TTGlyph>
    <TTGlyph name="AEacute" xMin="-35" yMin="0" xMax="1454" yMax="1708">
      <component glyphName="AE" x="0" y="0" flags="0x0"/>
      <component glyphName="acutecomb.LP" x="1339" y="320" flags="0x0"/>
    </TTGlyph>
    <TTGlyph name="Aacute" xMin="-35" yMin="0" xMax="1071" yMax="1708">
      <component glyphName="A" x="0" y="0" flags="0x0"/>
      <component glyphName="acutecomb.LP" x="1049" y="320" flags="0x0"/>
    </TTGlyph>
    <TTGlyph name="Abreve" xMin="-35" yMin="0" xMax="1071" yMax="1698">
      <component glyphName="A" x="0" y="0" flags="0x0"/>
      <component glyphName="uni0306" x="1050" y="320" flags="0x0"/>
    </TTGlyph>
    <TTGlyph name="Acircumflex" xMin="-35" yMin="0" xMax="1071" yMax="1692">
      <component glyphName="A" x="0" y="0" flags="0x0"/>
      <component glyphName="uni0302.LP" x="1048" y="320" flags="0x0"/>
    </TTGlyph>
    <TTGlyph name="Adieresis" xMin="-35" yMin="0" xMax="1071" yMax="1620">
      <component glyphName="A" x="0" y="0" flags="0x0"/>
      <component glyphName="uni0308.LP" x="1051" y="320" flags="0x0"/>
    </TTGlyph>
    <TTGlyph name="Agrave" xMin="-35" yMin="0" xMax="1071" yMax="1708">
      <component glyphName="A" x="0" y="0" flags="0x0"/>
      <component glyphName="gravecomb.LP" x="971" y="320" flags="0x0"/>
    </TTGlyph>
    <TTGlyph name="Amacron" xMin="-35" yMin="0" xMax="1071" yMax="1570">
      <component glyphName="A" x="0" y="0" flags="0x0"/>
      <component glyphName="uni0304.LP" x="1061" y="320" flags="0x0"/>
    </TTGlyph>
    <TTGlyph name="Aring" xMin="-35" yMin="0" xMax="1071" yMax="1729">
      <component glyphName="A" x="0" y="0" flags="0x0"/>
      <component glyphName="uni030A" x="1050" y="320" flags="0x0"/>
    </TTGlyph>
    <TTGlyph name="Aringacute" xMin="-35" yMin="0" xMax="1087" yMax="2128">
      <component glyphName="A" x="0" y="0" flags="0x0"/>
      <component glyphName="uni030A" x="1050" y="320" flags="0x0"/>
      <component glyphName="acutecomb.LP" x="1103" y="740" flags="0x0"/>
    </TTGlyph>
    <TTGlyph name="Atilde" xMin="-35" yMin="0" xMax="1071" yMax="1633">
      <component glyphName="A" x="0" y="0" flags="0x0"/>
      <component glyphName="tildecomb.LP" x="1051" y="320" flags="0x0"/>
    </TTGlyph>
    <TTGlyph name="B" xMin="0" yMin="-31" xMax="934" yMax="1290">
      <contour>
        <pt x="551" y="1206" on="1"/>
        <pt x="521" y="1206" on="0"/>
        <pt x="467" y="1205" on="0"/>
        <pt x="443" y="1204" on="1"/>
        <pt x="378" y="725" on="1"/>
        <pt x="410" y="725" on="1"/>
        <pt x="480" y="725" on="0"/>
        <pt x="611" y="747" on="0"/>
        <pt x="712" y="805" on="0"/>
        <pt x="772" y="907" on="0"/>
        <pt x="772" y="987" on="1"/>
        <pt x="772" y="1048" on="0"/>
        <pt x="729" y="1132" on="0"/>
        <pt x="663" y="1184" on="0"/>
        <pt x="585" y="1206" on="0"/>
      </contour>
      <contour>
        <pt x="518" y="649" on="1"/>
        <pt x="474" y="649" on="0"/>
        <pt x="400" y="640" on="0"/>
        <pt x="366" y="635" on="1"/>
        <pt x="293" y="104" on="1"/>
        <pt x="290" y="96" on="0"/>
        <pt x="304" y="85" on="1"/>
        <pt x="323" y="76" on="0"/>
        <pt x="369" y="63" on="0"/>
        <pt x="418" y="56" on="0"/>
        <pt x="466" y="53" on="0"/>
        <pt x="487" y="53" on="1"/>
        <pt x="553" y="53" on="0"/>
        <pt x="660" y="108" on="0"/>
        <pt x="736" y="198" on="0"/>
        <pt x="778" y="314" on="0"/>
        <pt x="778" y="375" on="1"/>
        <pt x="778" y="425" on="0"/>
        <pt x="749" y="523" on="0"/>
        <pt x="687" y="601" on="0"/>
        <pt x="588" y="649" on="0"/>
      </contour>
      <contour>
        <pt x="934" y="410" on="1"/>
        <pt x="934" y="312" on="0"/>
        <pt x="858" y="150" on="0"/>
        <pt x="728" y="34" on="0"/>
        <pt x="556" y="-31" on="0"/>
        <pt x="461" y="-31" on="1"/>
        <pt x="441" y="-31" on="0"/>
        <pt x="385" y="-29" on="0"/>
        <pt x="322" y="-24" on="0"/>
        <pt x="255" y="-19" on="0"/>
        <pt x="223" y="-16" on="1"/>
        <pt x="148" y="-9" on="0"/>
        <pt x="66" y="0" on="1"/>
        <pt x="0" y="0" on="1"/>
        <pt x="6" y="43" on="1"/>
        <pt x="69" y="57" on="0"/>
        <pt x="145" y="90" on="0"/>
        <pt x="147" y="104" on="1"/>
        <pt x="296" y="1193" on="1"/>
        <pt x="251" y="1187" on="0"/>
        <pt x="177" y="1173" on="0"/>
        <pt x="141" y="1165" on="1"/>
        <pt x="141" y="1227" on="1"/>
        <pt x="187" y="1240" on="0"/>
        <pt x="283" y="1263" on="0"/>
        <pt x="389" y="1280" on="0"/>
        <pt x="509" y="1290" on="0"/>
        <pt x="578" y="1290" on="1"/>
        <pt x="659" y="1290" on="0"/>
        <pt x="788" y="1256" on="0"/>
        <pt x="879" y="1191" on="0"/>
        <pt x="928" y="1098" on="0"/>
        <pt x="928" y="1040" on="1"/>
        <pt x="928" y="988" on="0"/>
        <pt x="895" y="890" on="0"/>
        <pt x="836" y="807" on="0"/>
        <pt x="755" y="742" on="0"/>
        <pt x="707" y="723" on="1"/>
        <pt x="758" y="711" on="0"/>
        <pt x="841" y="655" on="0"/>
        <pt x="901" y="574" on="0"/>
        <pt x="934" y="470" on="0"/>
      </contour>
    </TTGlyph>
    <TTGlyph name="C" xMin="76" yMin="-27" xMax="1020" yMax="1290">
      <contour>
        <pt x="1016" y="1190" on="1"/>
        <pt x="1020" y="1185" on="0"/>
        <pt x="998" y="1151" on="0"/>
        <pt x="963" y="1109" on="0"/>
        <pt x="924" y="1068" on="0"/>
        <pt x="911" y="1057" on="1"/>
        <pt x="881" y="1065" on="1"/>
        <pt x="840" y="1110" on="0"/>
        <pt x="723" y="1169" on="0"/>
        <pt x="641" y="1169" on="1"/>
        <pt x="601" y="1169" on="0"/>
        <pt x="501" y="1131" on="0"/>
        <pt x="461" y="1100" on="1"/>
        <pt x="398" y="1051" on="0"/>
        <pt x="309" y="903" on="0"/>
        <pt x="253" y="740" on="0"/>
        <pt x="227" y="579" on="0"/>
        <pt x="227" y="516" on="1"/>
        <pt x="227" y="407" on="0"/>
        <pt x="286" y="248" on="0"/>
        <pt x="379" y="145" on="0"/>
        <pt x="490" y="96" on="0"/>
        <pt x="543" y="96" on="1"/>
        <pt x="599" y="96" on="0"/>
        <pt x="756" y="167" on="0"/>
        <pt x="868" y="256" on="1"/>
        <pt x="873" y="254" on="0"/>
        <pt x="881" y="241" on="0"/>
        <pt x="889" y="227" on="0"/>
        <pt x="895" y="214" on="0"/>
        <pt x="897" y="211" on="1"/>
        <pt x="829" y="143" on="0"/>
        <pt x="710" y="51" on="0"/>
        <pt x="602" y="-4" on="0"/>
        <pt x="504" y="-27" on="0"/>
        <pt x="457" y="-27" on="1"/>
        <pt x="382" y="-27" on="0"/>
        <pt x="244" y="38" on="0"/>
        <pt x="139" y="162" on="0"/>
        <pt x="76" y="343" on="0"/>
        <pt x="76" y="459" on="1"/>
        <pt x="76" y="553" on="0"/>
        <pt x="113" y="748" on="0"/>
        <pt x="191" y="933" on="0"/>
        <pt x="313" y="1100" on="0"/>
        <pt x="397" y="1167" on="1"/>
        <pt x="470" y="1224" on="0"/>
        <pt x="639" y="1290" on="0"/>
        <pt x="733" y="1290" on="1"/>
        <pt x="832" y="1290" on="0"/>
        <pt x="972" y="1232" on="0"/>
      </contour>
    </TTGlyph>
    <TTGlyph name="Cacute" xMin="76" yMin="-27" xMax="1023" yMax="1708">
      <component glyphName="C" x="0" y="0" flags="0x0"/>
      <component glyphName="acutecomb.LP" x="1039" y="320" flags="0x0"/>
    </TTGlyph>
    <TTGlyph name="Ccaron" xMin="76" yMin="-27" xMax="1020" yMax="1716">
      <component glyphName="C" x="0" y="0" flags="0x0"/>
      <component glyphName="uni030C.LP" x="1043" y="320" flags="0x0"/>
    </TTGlyph>
    <TTGlyph name="Ccedilla" xMin="76" yMin="-411" xMax="1020" yMax="1290">
      <contour>
        <pt x="588" y="-221" on="1"/>
        <pt x="588" y="-274" on="0"/>
        <pt x="526" y="-362" on="0"/>
        <pt x="427" y="-411" on="0"/>
        <pt x="304" y="-410" on="0"/>
        <pt x="244" y="-375" on="1"/>
        <pt x="242" y="-336" on="1"/>
        <pt x="294" y="-360" on="0"/>
        <pt x="376" y="-363" on="0"/>
        <pt x="432" y="-338" on="0"/>
        <pt x="461" y="-292" on="0"/>
        <pt x="461" y="-268" on="1"/>
        <pt x="461" y="-242" on="0"/>
        <pt x="415" y="-213" on="0"/>
        <pt x="368" y="-215" on="1"/>
        <pt x="382" y="-178" on="0"/>
        <pt x="401" y="-121" on="0"/>
        <pt x="415" y="-71" on="0"/>
        <pt x="420" y="-47" on="1"/>
        <pt x="423" y="-37" on="0"/>
        <pt x="425" y="-25" on="1"/>
        <pt x="367" y="-20" on="0"/>
        <pt x="313" y="5" on="1"/>
        <pt x="244" y="38" on="0"/>
        <pt x="139" y="162" on="0"/>
        <pt x="76" y="343" on="0"/>
        <pt x="76" y="459" on="1"/>
        <pt x="76" y="553" on="0"/>
        <pt x="113" y="748" on="0"/>
        <pt x="191" y="933" on="0"/>
        <pt x="313" y="1100" on="0"/>
        <pt x="397" y="1167" on="1"/>
        <pt x="470" y="1224" on="0"/>
        <pt x="639" y="1290" on="0"/>
        <pt x="733" y="1290" on="1"/>
        <pt x="832" y="1290" on="0"/>
        <pt x="972" y="1232" on="0"/>
        <pt x="1016" y="1190" on="1"/>
        <pt x="1020" y="1185" on="0"/>
        <pt x="998" y="1151" on="0"/>
        <pt x="963" y="1109" on="0"/>
        <pt x="924" y="1068" on="0"/>
        <pt x="911" y="1057" on="1"/>
        <pt x="881" y="1065" on="1"/>
        <pt x="840" y="1110" on="0"/>
        <pt x="723" y="1169" on="0"/>
        <pt x="641" y="1169" on="1"/>
        <pt x="601" y="1169" on="0"/>
        <pt x="501" y="1131" on="0"/>
        <pt x="461" y="1100" on="1"/>
        <pt x="398" y="1051" on="0"/>
        <pt x="309" y="903" on="0"/>
        <pt x="253" y="740" on="0"/>
        <pt x="227" y="579" on="0"/>
        <pt x="227" y="516" on="1"/>
        <pt x="227" y="407" on="0"/>
        <pt x="286" y="248" on="0"/>
        <pt x="379" y="145" on="0"/>
        <pt x="490" y="96" on="0"/>
        <pt x="543" y="96" on="1"/>
        <pt x="599" y="96" on="0"/>
        <pt x="756" y="167" on="0"/>
        <pt x="868" y="256" on="1"/>
        <pt x="873" y="254" on="0"/>
        <pt x="881" y="241" on="0"/>
        <pt x="889" y="227" on="0"/>
        <pt x="895" y="214" on="0"/>
        <pt x="897" y="211" on="1"/>
        <pt x="829" y="143" on="0"/>
        <pt x="710" y="51" on="0"/>
        <pt x="602" y="-4" on="0"/>
        <pt x="553" y="-15" on="1"/>
        <pt x="523" y="-22" on="0"/>
        <pt x="494" y="-25" on="1"/>
        <pt x="490" y="-48" on="0"/>
        <pt x="486" y="-63" on="1"/>
        <pt x="480" y="-88" on="0"/>
        <pt x="473" y="-113" on="1"/>
        <pt x="524" y="-115" on="0"/>
        <pt x="588" y="-172" on="0"/>
      </contour>
    </TTGlyph>
    <TTGlyph name="Ccircumflex" xMin="76" yMin="-27" xMax="1020" yMax="1692">
      <component glyphName="C" x="0" y="0" flags="0x0"/>
      <component glyphName="uni0302.LP" x="1038" y="320" flags="0x0"/>
    </TTGlyph>
    <TTGlyph name="Cdotaccent" xMin="76" yMin="-27" xMax="1020" yMax="1620">
      <component glyphName="C" x="0" y="0" flags="0x0"/>
      <component glyphName="uni0307.LP" x="1042" y="320" flags="0x0"/>
    </TTGlyph>
    <TTGlyph name="D" xMin="0" yMin="0" xMax="1077" yMax="1290">
      <contour>
        <pt x="1077" y="745" on="1"/>
        <pt x="1077" y="657" on="0"/>
        <pt x="1043" y="478" on="0"/>
        <pt x="975" y="313" on="0"/>
        <pt x="875" y="168" on="0"/>
        <pt x="742" y="61" on="0"/>
        <pt x="578" y="0" on="0"/>
        <pt x="481" y="0" on="1"/>
        <pt x="0" y="0" on="1"/>
        <pt x="6" y="43" on="1"/>
        <pt x="69" y="57" on="0"/>
        <pt x="145" y="90" on="0"/>
        <pt x="147" y="104" on="1"/>
        <pt x="296" y="1193" on="1"/>
        <pt x="143" y="1176" on="1"/>
        <pt x="143" y="1239" on="1"/>
        <pt x="258" y="1267" on="0"/>
        <pt x="483" y="1290" on="0"/>
        <pt x="586" y="1290" on="1"/>
        <pt x="703" y="1290" on="0"/>
        <pt x="885" y="1212" on="0"/>
        <pt x="1011" y="1070" on="0"/>
        <pt x="1077" y="869" on="0"/>
      </contour>
      <contour>
        <pt x="504" y="1206" on="1"/>
        <pt x="474" y="1206" on="1"/>
        <pt x="459" y="1206" on="0"/>
        <pt x="444" y="1205" on="1"/>
        <pt x="299" y="139" on="1"/>
        <pt x="297" y="124" on="0"/>
        <pt x="309" y="104" on="0"/>
        <pt x="343" y="90" on="0"/>
        <pt x="406" y="84" on="0"/>
        <pt x="455" y="84" on="1"/>
        <pt x="529" y="84" on="0"/>
        <pt x="654" y="140" on="0"/>
        <pt x="756" y="236" on="0"/>
        <pt x="835" y="364" on="0"/>
        <pt x="888" y="507" on="0"/>
        <pt x="915" y="657" on="0"/>
        <pt x="915" y="727" on="1"/>
        <pt x="915" y="834" on="0"/>
        <pt x="861" y="1010" on="0"/>
        <pt x="757" y="1136" on="0"/>
        <pt x="604" y="1206" on="0"/>
      </contour>
    </TTGlyph>
    <TTGlyph name="Dcaron" xMin="0" yMin="0" xMax="1077" yMax="1716">
      <component glyphName="D" x="0" y="0" flags="0x0"/>
      <component glyphName="uni030C.LP" x="1016" y="320" flags="0x0"/>
    </TTGlyph>
    <TTGlyph name="Dcroat" xMin="0" yMin="0" xMax="1077" yMax="1290">
      <contour>
        <pt x="1077" y="745" on="1"/>
        <pt x="1077" y="657" on="0"/>
        <pt x="1043" y="478" on="0"/>
        <pt x="975" y="313" on="0"/>
        <pt x="875" y="168" on="0"/>
        <pt x="742" y="61" on="0"/>
        <pt x="578" y="0" on="0"/>
        <pt x="481" y="0" on="1"/>
        <pt x="0" y="0" on="1"/>
        <pt x="6" y="43" on="1"/>
        <pt x="69" y="57" on="0"/>
        <pt x="145" y="90" on="0"/>
        <pt x="147" y="104" on="1"/>
        <pt x="217" y="614" on="1"/>
        <pt x="88" y="614" on="1"/>
        <pt x="72" y="639" on="1"/>
        <pt x="85" y="671" on="1"/>
        <pt x="92" y="689" on="0"/>
        <pt x="100" y="705" on="1"/>
        <pt x="229" y="705" on="1"/>
        <pt x="296" y="1193" on="1"/>
        <pt x="143" y="1176" on="1"/>
        <pt x="143" y="1239" on="1"/>
        <pt x="258" y="1267" on="0"/>
        <pt x="483" y="1290" on="0"/>
        <pt x="586" y="1290" on="1"/>
        <pt x="703" y="1290" on="0"/>
        <pt x="885" y="1212" on="0"/>
        <pt x="1011" y="1070" on="0"/>
        <pt x="1077" y="869" on="0"/>
      </contour>
      <contour>
        <pt x="504" y="1206" on="1"/>
        <pt x="474" y="1206" on="1"/>
        <pt x="459" y="1206" on="0"/>
        <pt x="444" y="1205" on="1"/>
        <pt x="376" y="705" on="1"/>
        <pt x="608" y="705" on="1"/>
        <pt x="627" y="682" on="1"/>
        <pt x="598" y="614" on="1"/>
        <pt x="363" y="614" on="1"/>
        <pt x="299" y="139" on="1"/>
        <pt x="297" y="124" on="0"/>
        <pt x="309" y="104" on="0"/>
        <pt x="343" y="90" on="0"/>
        <pt x="406" y="84" on="0"/>
        <pt x="455" y="84" on="1"/>
        <pt x="529" y="84" on="0"/>
        <pt x="654" y="140" on="0"/>
        <pt x="756" y="236" on="0"/>
        <pt x="835" y="364" on="0"/>
        <pt x="888" y="507" on="0"/>
        <pt x="915" y="657" on="0"/>
        <pt x="915" y="727" on="1"/>
        <pt x="915" y="834" on="0"/>
        <pt x="861" y="1010" on="0"/>
        <pt x="757" y="1136" on="0"/>
        <pt x="604" y="1206" on="0"/>
      </contour>
    </TTGlyph>
    <TTGlyph name="Delta" xMin="50" yMin="0" xMax="982" yMax="1317">
      <contour>
        <pt x="806" y="166" on="1"/>
        <pt x="771" y="334" on="0"/>
        <pt x="738" y="495" on="1"/>
        <pt x="724" y="564" on="0"/>
        <pt x="694" y="711" on="0"/>
        <pt x="665" y="857" on="0"/>
        <pt x="638" y="992" on="0"/>
        <pt x="627" y="1049" on="1"/>
        <pt x="598" y="986" on="0"/>
        <pt x="531" y="842" on="0"/>
        <pt x="462" y="694" on="0"/>
        <pt x="393" y="548" on="0"/>
        <pt x="362" y="481" on="1"/>
        <pt x="288" y="323" on="0"/>
        <pt x="214" y="166" on="1"/>
        <pt x="205" y="147" on="0"/>
        <pt x="199" y="126" on="0"/>
        <pt x="215" y="115" on="0"/>
        <pt x="261" y="113" on="0"/>
        <pt x="304" y="113" on="1"/>
        <pt x="698" y="113" on="1"/>
        <pt x="742" y="113" on="0"/>
        <pt x="790" y="115" on="0"/>
        <pt x="810" y="126" on="0"/>
        <pt x="809" y="147" on="0"/>
      </contour>
      <contour>
        <pt x="956" y="0" on="1"/>
        <pt x="57" y="0" on="1"/>
        <pt x="50" y="51" on="1"/>
        <pt x="164" y="290" on="0"/>
        <pt x="270" y="513" on="1"/>
        <pt x="315" y="608" on="0"/>
        <pt x="410" y="809" on="0"/>
        <pt x="499" y="1000" on="0"/>
        <pt x="578" y="1172" on="0"/>
        <pt x="608" y="1237" on="1"/>
        <pt x="620" y="1249" on="0"/>
        <pt x="649" y="1272" on="0"/>
        <pt x="681" y="1292" on="0"/>
        <pt x="711" y="1310" on="0"/>
        <pt x="724" y="1317" on="1"/>
        <pt x="737" y="1243" on="0"/>
        <pt x="773" y="1056" on="0"/>
        <pt x="815" y="850" on="0"/>
        <pt x="859" y="637" on="0"/>
        <pt x="880" y="537" on="1"/>
        <pt x="929" y="302" on="0"/>
        <pt x="982" y="51" on="1"/>
      </contour>
    </TTGlyph>
    <TTGlyph name="E" xMin="0" yMin="0" xMax="936" yMax="1260">
      <contour>
        <pt x="856" y="244" on="1"/>
        <pt x="836" y="157" on="0"/>
        <pt x="795" y="29" on="0"/>
        <pt x="784" y="0" on="1"/>
        <pt x="0" y="0" on="1"/>
        <pt x="6" y="43" on="1"/>
        <pt x="69" y="57" on="0"/>
        <pt x="145" y="90" on="0"/>
        <pt x="147" y="104" on="1"/>
        <pt x="293" y="1155" on="1"/>
        <pt x="295" y="1167" on="0"/>
        <pt x="233" y="1203" on="0"/>
        <pt x="168" y="1217" on="1"/>
        <pt x="174" y="1260" on="1"/>
        <pt x="911" y="1260" on="1"/>
        <pt x="936" y="1235" on="1"/>
        <pt x="931" y="1209" on="0"/>
        <pt x="916" y="1147" on="0"/>
        <pt x="897" y="1085" on="0"/>
        <pt x="877" y="1029" on="0"/>
        <pt x="868" y="1010" on="1"/>
        <pt x="825" y="1010" on="1"/>
        <pt x="830" y="1056" on="0"/>
        <pt x="828" y="1117" on="0"/>
        <pt x="814" y="1154" on="0"/>
        <pt x="790" y="1169" on="0"/>
        <pt x="772" y="1169" on="1"/>
        <pt x="437" y="1169" on="1"/>
        <pt x="378" y="735" on="1"/>
        <pt x="752" y="735" on="1"/>
        <pt x="772" y="707" on="1"/>
        <pt x="762" y="693" on="0"/>
        <pt x="737" y="663" on="0"/>
        <pt x="710" y="634" on="0"/>
        <pt x="684" y="609" on="0"/>
        <pt x="674" y="600" on="1"/>
        <pt x="658" y="617" on="0"/>
        <pt x="622" y="638" on="0"/>
        <pt x="569" y="650" on="0"/>
        <pt x="492" y="655" on="0"/>
        <pt x="436" y="655" on="1"/>
        <pt x="367" y="655" on="1"/>
        <pt x="299" y="154" on="1"/>
        <pt x="297" y="139" on="0"/>
        <pt x="307" y="116" on="0"/>
        <pt x="345" y="99" on="0"/>
        <pt x="417" y="90" on="0"/>
        <pt x="477" y="90" on="1"/>
        <pt x="598" y="90" on="1"/>
        <pt x="640" y="90" on="0"/>
        <pt x="698" y="100" on="0"/>
        <pt x="745" y="135" on="0"/>
        <pt x="789" y="203" on="0"/>
        <pt x="817" y="262" on="1"/>
      </contour>
    </TTGlyph>
    <TTGlyph name="Eacute" xMin="0" yMin="0" xMax="936" yMax="1708">
      <component glyphName="E" x="0" y="0" flags="0x0"/>
      <component glyphName="acutecomb.LP" x="944" y="320" flags="0x0"/>
    </TTGlyph>
    <TTGlyph name="Ebreve" xMin="0" yMin="0" xMax="936" yMax="1698">
      <component glyphName="E" x="0" y="0" flags="0x0"/>
      <component glyphName="uni0306" x="945" y="320" flags="0x0"/>
    </TTGlyph>
    <TTGlyph name="Ecaron" xMin="0" yMin="0" xMax="936" yMax="1716">
      <component glyphName="E" x="0" y="0" flags="0x0"/>
      <component glyphName="uni030C.LP" x="948" y="320" flags="0x0"/>
    </TTGlyph>
    <TTGlyph name="Ecircumflex" xMin="0" yMin="0" xMax="936" yMax="1692">
      <component glyphName="E" x="0" y="0" flags="0x0"/>
      <component glyphName="uni0302.LP" x="943" y="320" flags="0x0"/>
    </TTGlyph>
    <TTGlyph name="Edieresis" xMin="0" yMin="0" xMax="936" yMax="1620">
      <component glyphName="E" x="0" y="0" flags="0x0"/>
      <component glyphName="uni0308.LP" x="946" y="320" flags="0x0"/>
    </TTGlyph>
    <TTGlyph name="Edotaccent" xMin="0" yMin="0" xMax="936" yMax="1620">
      <component glyphName="E" x="0" y="0" flags="0x0"/>
      <component glyphName="uni0307.LP" x="947" y="320" flags="0x0"/>
    </TTGlyph>
    <TTGlyph name="Egrave" xMin="0" yMin="0" xMax="936" yMax="1708">
      <component glyphName="E" x="0" y="0" flags="0x0"/>
      <component glyphName="gravecomb.LP" x="866" y="320" flags="0x0"/>
    </TTGlyph>
    <TTGlyph name="Emacron" xMin="0" yMin="0" xMax="936" yMax="1570">
      <component glyphName="E" x="0" y="0" flags="0x0"/>
      <component glyphName="uni0304.LP" x="956" y="320" flags="0x0"/>
    </TTGlyph>
    <TTGlyph name="Eng" xMin="0" yMin="-444" xMax="1106" yMax="1290">
      <contour>
        <pt x="1106" y="1042" on="1"/>
        <pt x="1106" y="1002" on="0"/>
        <pt x="1100" y="950" on="1"/>
        <pt x="999" y="213" on="1"/>
        <pt x="985" y="109" on="0"/>
        <pt x="928" y="-63" on="0"/>
        <pt x="850" y="-203" on="0"/>
        <pt x="756" y="-312" on="0"/>
        <pt x="705" y="-352" on="1"/>
        <pt x="681" y="-371" on="0"/>
        <pt x="615" y="-405" on="0"/>
        <pt x="542" y="-430" on="0"/>
        <pt x="467" y="-444" on="0"/>
        <pt x="434" y="-444" on="1"/>
        <pt x="390" y="-444" on="0"/>
        <pt x="312" y="-418" on="0"/>
        <pt x="253" y="-381" on="0"/>
        <pt x="219" y="-341" on="0"/>
        <pt x="219" y="-326" on="1"/>
        <pt x="219" y="-318" on="0"/>
        <pt x="250" y="-281" on="0"/>
        <pt x="294" y="-244" on="0"/>
        <pt x="342" y="-215" on="0"/>
        <pt x="358" y="-215" on="1"/>
        <pt x="367" y="-215" on="0"/>
        <pt x="392" y="-250" on="0"/>
        <pt x="430" y="-293" on="0"/>
        <pt x="487" y="-328" on="0"/>
        <pt x="528" y="-328" on="1"/>
        <pt x="658" y="-328" on="0"/>
        <pt x="814" y="-88" on="0"/>
        <pt x="848" y="160" on="1"/>
        <pt x="940" y="842" on="1"/>
        <pt x="946" y="880" on="0"/>
        <pt x="950" y="946" on="0"/>
        <pt x="950" y="975" on="1"/>
        <pt x="950" y="1024" on="0"/>
        <pt x="933" y="1091" on="0"/>
        <pt x="903" y="1133" on="0"/>
        <pt x="860" y="1151" on="0"/>
        <pt x="834" y="1151" on="1"/>
        <pt x="807" y="1151" on="0"/>
        <pt x="722" y="1118" on="0"/>
        <pt x="625" y="1054" on="0"/>
        <pt x="523" y="959" on="0"/>
        <pt x="436" y="833" on="0"/>
        <pt x="371" y="678" on="0"/>
        <pt x="358" y="586" on="1"/>
        <pt x="293" y="104" on="1"/>
        <pt x="290" y="92" on="0"/>
        <pt x="353" y="57" on="0"/>
        <pt x="416" y="43" on="1"/>
        <pt x="410" y="0" on="1"/>
        <pt x="0" y="0" on="1"/>
        <pt x="6" y="43" on="1"/>
        <pt x="69" y="57" on="0"/>
        <pt x="145" y="90" on="0"/>
        <pt x="147" y="104" on="1"/>
        <pt x="276" y="1038" on="1"/>
        <pt x="285" y="1096" on="0"/>
        <pt x="280" y="1159" on="0"/>
        <pt x="244" y="1180" on="0"/>
        <pt x="174" y="1168" on="0"/>
        <pt x="117" y="1153" on="1"/>
        <pt x="106" y="1208" on="1"/>
        <pt x="158" y="1227" on="0"/>
        <pt x="251" y="1258" on="0"/>
        <pt x="325" y="1279" on="0"/>
        <pt x="379" y="1290" on="0"/>
        <pt x="393" y="1290" on="1"/>
        <pt x="418" y="1290" on="0"/>
        <pt x="434" y="1232" on="0"/>
        <pt x="434" y="1184" on="1"/>
        <pt x="434" y="1167" on="0"/>
        <pt x="430" y="1105" on="0"/>
        <pt x="423" y="1031" on="0"/>
        <pt x="411" y="953" on="0"/>
        <pt x="403" y="920" on="1"/>
        <pt x="466" y="1022" on="0"/>
        <pt x="604" y="1163" on="0"/>
        <pt x="739" y="1251" on="0"/>
        <pt x="863" y="1290" on="0"/>
        <pt x="911" y="1290" on="1"/>
        <pt x="945" y="1290" on="0"/>
        <pt x="1014" y="1267" on="0"/>
        <pt x="1070" y="1210" on="0"/>
        <pt x="1106" y="1114" on="0"/>
      </contour>
    </TTGlyph>
    <TTGlyph name="Eng.BaselineHook" xMin="0" yMin="-30" xMax="1166" yMax="1290">
      <contour>
        <pt x="0" y="0" on="1"/>
        <pt x="6" y="43" on="1"/>
        <pt x="69" y="57" on="0"/>
        <pt x="145" y="90" on="0"/>
        <pt x="147" y="104" on="1"/>
        <pt x="276" y="1038" on="1"/>
        <pt x="281" y="1077" on="0"/>
        <pt x="283" y="1129" on="0"/>
        <pt x="274" y="1162" on="0"/>
        <pt x="251" y="1176" on="0"/>
        <pt x="232" y="1176" on="1"/>
        <pt x="212" y="1176" on="0"/>
        <pt x="155" y="1164" on="0"/>
        <pt x="117" y="1153" on="1"/>
        <pt x="106" y="1208" on="1"/>
        <pt x="158" y="1227" on="0"/>
        <pt x="251" y="1258" on="0"/>
        <pt x="325" y="1279" on="0"/>
        <pt x="379" y="1290" on="0"/>
        <pt x="393" y="1290" on="1"/>
        <pt x="418" y="1290" on="0"/>
        <pt x="434" y="1232" on="0"/>
        <pt x="434" y="1184" on="1"/>
        <pt x="434" y="1167" on="0"/>
        <pt x="430" y="1105" on="0"/>
        <pt x="423" y="1031" on="0"/>
        <pt x="411" y="953" on="0"/>
        <pt x="403" y="920" on="1"/>
        <pt x="466" y="1016" on="0"/>
        <pt x="613" y="1156" on="0"/>
        <pt x="757" y="1246" on="0"/>
        <pt x="886" y="1290" on="0"/>
        <pt x="931" y="1290" on="1"/>
        <pt x="972" y="1290" on="0"/>
        <pt x="1056" y="1267" on="0"/>
        <pt x="1123" y="1210" on="0"/>
        <pt x="1166" y="1114" on="0"/>
        <pt x="1166" y="1042" on="1"/>
        <pt x="1166" y="1018" on="1"/>
        <pt x="1166" y="1005" on="0"/>
        <pt x="1165" y="974" on="0"/>
        <pt x="1163" y="943" on="0"/>
        <pt x="1161" y="930" on="1"/>
        <pt x="1090" y="413" on="1"/>
        <pt x="1074" y="298" on="0"/>
        <pt x="993" y="121" on="0"/>
        <pt x="940" y="71" on="1"/>
        <pt x="917" y="50" on="0"/>
        <pt x="868" y="13" on="0"/>
        <pt x="811" y="-14" on="0"/>
        <pt x="744" y="-30" on="0"/>
        <pt x="703" y="-30" on="1"/>
        <pt x="673" y="-30" on="0"/>
        <pt x="615" y="-1" on="0"/>
        <pt x="570" y="39" on="0"/>
        <pt x="542" y="82" on="0"/>
        <pt x="542" y="97" on="1"/>
        <pt x="542" y="105" on="0"/>
        <pt x="574" y="140" on="0"/>
        <pt x="619" y="176" on="0"/>
        <pt x="668" y="204" on="0"/>
        <pt x="684" y="204" on="1"/>
        <pt x="690" y="190" on="0"/>
        <pt x="704" y="153" on="0"/>
        <pt x="729" y="119" on="0"/>
        <pt x="768" y="95" on="0"/>
        <pt x="799" y="95" on="1"/>
        <pt x="834" y="95" on="0"/>
        <pt x="882" y="149" on="0"/>
        <pt x="914" y="230" on="0"/>
        <pt x="933" y="322" on="0"/>
        <pt x="938" y="360" on="1"/>
        <pt x="1001" y="822" on="1"/>
        <pt x="1006" y="860" on="0"/>
        <pt x="1010" y="946" on="0"/>
        <pt x="1010" y="975" on="1"/>
        <pt x="1010" y="1024" on="0"/>
        <pt x="987" y="1091" on="0"/>
        <pt x="945" y="1133" on="0"/>
        <pt x="888" y="1151" on="0"/>
        <pt x="854" y="1151" on="1"/>
        <pt x="829" y="1151" on="0"/>
        <pt x="743" y="1117" on="0"/>
        <pt x="641" y="1051" on="0"/>
        <pt x="533" y="954" on="0"/>
        <pt x="439" y="828" on="0"/>
        <pt x="370" y="675" on="0"/>
        <pt x="358" y="586" on="1"/>
        <pt x="293" y="104" on="1"/>
        <pt x="291" y="89" on="0"/>
        <pt x="340" y="51" on="0"/>
        <pt x="376" y="43" on="1"/>
        <pt x="370" y="0" on="1"/>
      </contour>
    </TTGlyph>
    <TTGlyph name="Eng.Kom" xMin="40" yMin="-30" xMax="1092" yMax="1290">
      <contour>
        <pt x="40" y="540" on="1"/>
        <pt x="46" y="583" on="1"/>
        <pt x="115" y="597" on="0"/>
        <pt x="197" y="630" on="0"/>
        <pt x="199" y="644" on="1"/>
        <pt x="251" y="1030" on="1"/>
        <pt x="258" y="1087" on="0"/>
        <pt x="257" y="1153" on="0"/>
        <pt x="224" y="1179" on="0"/>
        <pt x="153" y="1171" on="0"/>
        <pt x="91" y="1153" on="1"/>
        <pt x="80" y="1208" on="1"/>
        <pt x="181" y="1245" on="0"/>
        <pt x="334" y="1290" on="0"/>
        <pt x="369" y="1290" on="1"/>
        <pt x="392" y="1290" on="0"/>
        <pt x="408" y="1230" on="0"/>
        <pt x="408" y="1185" on="1"/>
        <pt x="407" y="1129" on="0"/>
        <pt x="399" y="1025" on="0"/>
        <pt x="392" y="970" on="1"/>
        <pt x="459" y="1066" on="0"/>
        <pt x="591" y="1190" on="0"/>
        <pt x="716" y="1262" on="0"/>
        <pt x="834" y="1290" on="0"/>
        <pt x="888" y="1290" on="1"/>
        <pt x="926" y="1290" on="0"/>
        <pt x="1000" y="1264" on="0"/>
        <pt x="1057" y="1207" on="0"/>
        <pt x="1092" y="1115" on="0"/>
        <pt x="1092" y="1050" on="1"/>
        <pt x="1092" y="1034" on="0"/>
        <pt x="1091" y="999" on="0"/>
        <pt x="1089" y="981" on="1"/>
        <pt x="1035" y="587" on="1"/>
        <pt x="1021" y="489" on="0"/>
        <pt x="968" y="329" on="0"/>
        <pt x="897" y="202" on="0"/>
        <pt x="814" y="106" on="0"/>
        <pt x="772" y="70" on="1"/>
        <pt x="713" y="21" on="0"/>
        <pt x="565" y="-30" on="0"/>
        <pt x="471" y="-30" on="1"/>
        <pt x="402" y="-30" on="0"/>
        <pt x="289" y="9" on="0"/>
        <pt x="207" y="63" on="0"/>
        <pt x="162" y="119" on="0"/>
        <pt x="162" y="135" on="1"/>
        <pt x="162" y="142" on="0"/>
        <pt x="192" y="190" on="0"/>
        <pt x="234" y="240" on="0"/>
        <pt x="279" y="280" on="0"/>
        <pt x="294" y="280" on="1"/>
        <pt x="300" y="280" on="0"/>
        <pt x="320" y="251" on="0"/>
        <pt x="350" y="208" on="0"/>
        <pt x="392" y="158" on="0"/>
        <pt x="445" y="115" on="0"/>
        <pt x="512" y="86" on="0"/>
        <pt x="553" y="86" on="1"/>
        <pt x="692" y="86" on="0"/>
        <pt x="849" y="296" on="0"/>
        <pt x="880" y="514" on="1"/>
        <pt x="931" y="872" on="1"/>
        <pt x="940" y="938" on="0"/>
        <pt x="940" y="986" on="1"/>
        <pt x="940" y="1033" on="0"/>
        <pt x="920" y="1097" on="0"/>
        <pt x="884" y="1135" on="0"/>
        <pt x="833" y="1151" on="0"/>
        <pt x="802" y="1151" on="1"/>
        <pt x="771" y="1151" on="0"/>
        <pt x="686" y="1120" on="0"/>
        <pt x="592" y="1062" on="0"/>
        <pt x="498" y="980" on="0"/>
        <pt x="419" y="878" on="0"/>
        <pt x="362" y="758" on="0"/>
        <pt x="352" y="692" on="1"/>
        <pt x="345" y="644" on="1"/>
        <pt x="345" y="643" on="1"/>
        <pt x="345" y="631" on="0"/>
        <pt x="417" y="597" on="0"/>
        <pt x="487" y="583" on="1"/>
        <pt x="481" y="540" on="1"/>
      </contour>
    </TTGlyph>
    <TTGlyph name="Eng.UCStyle" xMin="0" yMin="-380" xMax="1294" yMax="1260">
      <contour>
        <pt x="1288" y="1217" on="1"/>
        <pt x="1222" y="1207" on="0"/>
        <pt x="1155" y="1172" on="0"/>
        <pt x="1153" y="1155" on="1"/>
        <pt x="1030" y="247" on="1"/>
        <pt x="1018" y="158" on="0"/>
        <pt x="995" y="21" on="0"/>
        <pt x="969" y="-83" on="0"/>
        <pt x="940" y="-160" on="0"/>
        <pt x="905" y="-220" on="0"/>
        <pt x="862" y="-267" on="0"/>
        <pt x="836" y="-288" on="1"/>
        <pt x="809" y="-309" on="0"/>
        <pt x="746" y="-343" on="0"/>
        <pt x="685" y="-367" on="0"/>
        <pt x="631" y="-380" on="0"/>
        <pt x="613" y="-380" on="1"/>
        <pt x="586" y="-380" on="0"/>
        <pt x="535" y="-361" on="0"/>
        <pt x="496" y="-336" on="0"/>
        <pt x="474" y="-309" on="0"/>
        <pt x="475" y="-300" on="1"/>
        <pt x="476" y="-292" on="0"/>
        <pt x="503" y="-262" on="0"/>
        <pt x="541" y="-232" on="0"/>
        <pt x="580" y="-205" on="0"/>
        <pt x="593" y="-200" on="1"/>
        <pt x="615" y="-218" on="0"/>
        <pt x="650" y="-241" on="0"/>
        <pt x="681" y="-253" on="0"/>
        <pt x="711" y="-257" on="0"/>
        <pt x="728" y="-257" on="1"/>
        <pt x="747" y="-257" on="0"/>
        <pt x="789" y="-233" on="0"/>
        <pt x="831" y="-171" on="0"/>
        <pt x="871" y="-63" on="0"/>
        <pt x="889" y="20" on="1"/>
        <pt x="880" y="26" on="0"/>
        <pt x="870" y="45" on="1"/>
        <pt x="373" y="1004" on="1"/>
        <pt x="250" y="104" on="1"/>
        <pt x="247" y="92" on="0"/>
        <pt x="303" y="54" on="0"/>
        <pt x="371" y="43" on="1"/>
        <pt x="365" y="0" on="1"/>
        <pt x="0" y="0" on="1"/>
        <pt x="6" y="43" on="1"/>
        <pt x="74" y="52" on="0"/>
        <pt x="141" y="90" on="0"/>
        <pt x="143" y="104" on="1"/>
        <pt x="289" y="1154" on="1"/>
        <pt x="263" y="1184" on="0"/>
        <pt x="201" y="1209" on="0"/>
        <pt x="158" y="1217" on="1"/>
        <pt x="164" y="1260" on="1"/>
        <pt x="342" y="1260" on="1"/>
        <pt x="364" y="1260" on="0"/>
        <pt x="389" y="1258" on="0"/>
        <pt x="408" y="1243" on="0"/>
        <pt x="425" y="1211" on="0"/>
        <pt x="440" y="1182" on="1"/>
        <pt x="925" y="250" on="1"/>
        <pt x="1047" y="1155" on="1"/>
        <pt x="1048" y="1161" on="0"/>
        <pt x="1036" y="1178" on="0"/>
        <pt x="1007" y="1195" on="0"/>
        <pt x="959" y="1211" on="0"/>
        <pt x="924" y="1217" on="1"/>
        <pt x="930" y="1260" on="1"/>
        <pt x="1294" y="1260" on="1"/>
      </contour>
    </TTGlyph>
    <TTGlyph name="Eth" xMin="0" yMin="0" xMax="1077" yMax="1290">
      <contour>
        <pt x="1077" y="745" on="1"/>
        <pt x="1077" y="657" on="0"/>
        <pt x="1043" y="478" on="0"/>
        <pt x="975" y="313" on="0"/>
        <pt x="875" y="168" on="0"/>
        <pt x="742" y="61" on="0"/>
        <pt x="578" y="0" on="0"/>
        <pt x="481" y="0" on="1"/>
        <pt x="0" y="0" on="1"/>
        <pt x="6" y="43" on="1"/>
        <pt x="69" y="57" on="0"/>
        <pt x="145" y="90" on="0"/>
        <pt x="147" y="104" on="1"/>
        <pt x="217" y="614" on="1"/>
        <pt x="88" y="614" on="1"/>
        <pt x="72" y="639" on="1"/>
        <pt x="85" y="671" on="1"/>
        <pt x="92" y="689" on="0"/>
        <pt x="100" y="705" on="1"/>
        <pt x="229" y="705" on="1"/>
        <pt x="296" y="1193" on="1"/>
        <pt x="143" y="1176" on="1"/>
        <pt x="143" y="1239" on="1"/>
        <pt x="258" y="1267" on="0"/>
        <pt x="483" y="1290" on="0"/>
        <pt x="586" y="1290" on="1"/>
        <pt x="703" y="1290" on="0"/>
        <pt x="885" y="1212" on="0"/>
        <pt x="1011" y="1070" on="0"/>
        <pt x="1077" y="869" on="0"/>
      </contour>
      <contour>
        <pt x="504" y="1206" on="1"/>
        <pt x="474" y="1206" on="1"/>
        <pt x="459" y="1206" on="0"/>
        <pt x="444" y="1205" on="1"/>
        <pt x="376" y="705" on="1"/>
        <pt x="608" y="705" on="1"/>
        <pt x="627" y="682" on="1"/>
        <pt x="598" y="614" on="1"/>
        <pt x="363" y="614" on="1"/>
        <pt x="299" y="139" on="1"/>
        <pt x="297" y="124" on="0"/>
        <pt x="309" y="104" on="0"/>
        <pt x="343" y="90" on="0"/>
        <pt x="406" y="84" on="0"/>
        <pt x="455" y="84" on="1"/>
        <pt x="529" y="84" on="0"/>
        <pt x="654" y="140" on="0"/>
        <pt x="756" y="236" on="0"/>
        <pt x="835" y="364" on="0"/>
        <pt x="888" y="507" on="0"/>
        <pt x="915" y="657" on="0"/>
        <pt x="915" y="727" on="1"/>
        <pt x="915" y="834" on="0"/>
        <pt x="861" y="1010" on="0"/>
        <pt x="757" y="1136" on="0"/>
        <pt x="604" y="1206" on="0"/>
      </contour>
    </TTGlyph>
    <TTGlyph name="Euro" xMin="-16" yMin="-30" xMax="869" yMax="1235">
      <contour>
        <pt x="521" y="466" on="1"/>
        <pt x="227" y="466" on="1"/>
        <pt x="224" y="362" on="0"/>
        <pt x="256" y="219" on="0"/>
        <pt x="317" y="130" on="0"/>
        <pt x="401" y="90" on="0"/>
        <pt x="448" y="90" on="1"/>
        <pt x="476" y="90" on="0"/>
        <pt x="531" y="107" on="0"/>
        <pt x="597" y="146" on="0"/>
        <pt x="677" y="210" on="0"/>
        <pt x="729" y="256" on="1"/>
        <pt x="733" y="254" on="0"/>
        <pt x="741" y="241" on="0"/>
        <pt x="748" y="227" on="0"/>
        <pt x="754" y="214" on="0"/>
        <pt x="756" y="211" on="1"/>
        <pt x="693" y="143" on="0"/>
        <pt x="592" y="50" on="0"/>
        <pt x="503" y="-6" on="0"/>
        <pt x="416" y="-30" on="0"/>
        <pt x="366" y="-30" on="1"/>
        <pt x="299" y="-30" on="0"/>
        <pt x="187" y="29" on="0"/>
        <pt x="111" y="151" on="0"/>
        <pt x="75" y="338" on="0"/>
        <pt x="84" y="466" on="1"/>
        <pt x="0" y="466" on="1"/>
        <pt x="-16" y="491" on="1"/>
        <pt x="-3" y="523" on="1"/>
        <pt x="4" y="541" on="0"/>
        <pt x="12" y="557" on="1"/>
        <pt x="93" y="557" on="1"/>
        <pt x="93" y="558" on="1"/>
        <pt x="94" y="559" on="0"/>
        <pt x="94" y="561" on="1"/>
        <pt x="99" y="593" on="0"/>
        <pt x="109" y="656" on="0"/>
        <pt x="116" y="686" on="1"/>
        <pt x="57" y="686" on="1"/>
        <pt x="41" y="711" on="1"/>
        <pt x="54" y="743" on="1"/>
        <pt x="61" y="761" on="0"/>
        <pt x="69" y="777" on="1"/>
        <pt x="140" y="777" on="1"/>
        <pt x="174" y="890" on="0"/>
        <pt x="275" y="1061" on="0"/>
        <pt x="401" y="1177" on="0"/>
        <pt x="550" y="1235" on="0"/>
        <pt x="633" y="1235" on="1"/>
        <pt x="678" y="1235" on="0"/>
        <pt x="746" y="1219" on="0"/>
        <pt x="800" y="1192" on="0"/>
        <pt x="844" y="1156" on="0"/>
        <pt x="865" y="1135" on="1"/>
        <pt x="869" y="1130" on="0"/>
        <pt x="849" y="1100" on="0"/>
        <pt x="816" y="1062" on="0"/>
        <pt x="779" y="1024" on="0"/>
        <pt x="767" y="1012" on="1"/>
        <pt x="737" y="1018" on="1"/>
        <pt x="717" y="1041" on="0"/>
        <pt x="682" y="1080" on="0"/>
        <pt x="639" y="1109" on="0"/>
        <pt x="583" y="1125" on="0"/>
        <pt x="542" y="1125" on="1"/>
        <pt x="512" y="1125" on="0"/>
        <pt x="439" y="1095" on="0"/>
        <pt x="366" y="1017" on="0"/>
        <pt x="298" y="882" on="0"/>
        <pt x="272" y="777" on="1"/>
        <pt x="590" y="777" on="1"/>
        <pt x="610" y="754" on="1"/>
        <pt x="578" y="686" on="1"/>
        <pt x="253" y="686" on="1"/>
        <pt x="249" y="665" on="0"/>
        <pt x="242" y="621" on="0"/>
        <pt x="239" y="598" on="1"/>
        <pt x="237" y="587" on="0"/>
        <pt x="236" y="577" on="1"/>
        <pt x="234" y="557" on="1"/>
        <pt x="533" y="557" on="1"/>
        <pt x="553" y="534" on="1"/>
      </contour>
    </TTGlyph>
    <TTGlyph name="F" xMin="0" yMin="0" xMax="944" yMax="1260">
      <contour>
        <pt x="944" y="1235" on="1"/>
        <pt x="939" y="1209" on="0"/>
        <pt x="924" y="1147" on="0"/>
        <pt x="905" y="1085" on="0"/>
        <pt x="885" y="1029" on="0"/>
        <pt x="877" y="1010" on="1"/>
        <pt x="836" y="1010" on="1"/>
        <pt x="840" y="1056" on="0"/>
        <pt x="836" y="1117" on="0"/>
        <pt x="822" y="1154" on="0"/>
        <pt x="798" y="1169" on="0"/>
        <pt x="780" y="1169" on="1"/>
        <pt x="437" y="1169" on="1"/>
        <pt x="377" y="735" on="1"/>
        <pt x="700" y="735" on="1"/>
        <pt x="723" y="707" on="1"/>
        <pt x="712" y="693" on="0"/>
        <pt x="687" y="663" on="0"/>
        <pt x="661" y="634" on="0"/>
        <pt x="635" y="609" on="0"/>
        <pt x="625" y="600" on="1"/>
        <pt x="591" y="634" on="0"/>
        <pt x="502" y="655" on="0"/>
        <pt x="436" y="655" on="1"/>
        <pt x="366" y="655" on="1"/>
        <pt x="291" y="104" on="1"/>
        <pt x="289" y="92" on="0"/>
        <pt x="357" y="62" on="0"/>
        <pt x="444" y="43" on="1"/>
        <pt x="438" y="0" on="1"/>
        <pt x="0" y="0" on="1"/>
        <pt x="6" y="43" on="1"/>
        <pt x="69" y="57" on="0"/>
        <pt x="145" y="90" on="0"/>
        <pt x="147" y="104" on="1"/>
        <pt x="293" y="1155" on="1"/>
        <pt x="295" y="1167" on="0"/>
        <pt x="233" y="1203" on="0"/>
        <pt x="168" y="1217" on="1"/>
        <pt x="174" y="1260" on="1"/>
        <pt x="920" y="1260" on="1"/>
      </contour>
    </TTGlyph>
    <TTGlyph name="G" xMin="76" yMin="-31" xMax="1063" yMax="1290">
      <contour>
        <pt x="1057" y="539" on="1"/>
        <pt x="1003" y="523" on="0"/>
        <pt x="953" y="480" on="0"/>
        <pt x="950" y="457" on="1"/>
        <pt x="946" y="430" on="0"/>
        <pt x="934" y="343" on="0"/>
        <pt x="922" y="253" on="0"/>
        <pt x="911" y="173" on="0"/>
        <pt x="909" y="154" on="1"/>
        <pt x="833" y="93" on="0"/>
        <pt x="717" y="20" on="0"/>
        <pt x="623" y="-19" on="0"/>
        <pt x="542" y="-31" on="0"/>
        <pt x="502" y="-31" on="1"/>
        <pt x="419" y="-31" on="0"/>
        <pt x="265" y="36" on="0"/>
        <pt x="147" y="165" on="0"/>
        <pt x="76" y="353" on="0"/>
        <pt x="76" y="473" on="1"/>
        <pt x="76" y="568" on="0"/>
        <pt x="120" y="761" on="0"/>
        <pt x="201" y="938" on="0"/>
        <pt x="313" y="1089" on="0"/>
        <pt x="381" y="1143" on="1"/>
        <pt x="466" y="1210" on="0"/>
        <pt x="674" y="1290" on="0"/>
        <pt x="793" y="1290" on="1"/>
        <pt x="823" y="1290" on="0"/>
        <pt x="893" y="1276" on="0"/>
        <pt x="963" y="1250" on="0"/>
        <pt x="1029" y="1212" on="0"/>
        <pt x="1055" y="1188" on="1"/>
        <pt x="1061" y="1183" on="0"/>
        <pt x="1039" y="1149" on="0"/>
        <pt x="1003" y="1108" on="0"/>
        <pt x="962" y="1068" on="0"/>
        <pt x="948" y="1057" on="1"/>
        <pt x="920" y="1063" on="1"/>
        <pt x="894" y="1094" on="0"/>
        <pt x="836" y="1136" on="0"/>
        <pt x="769" y="1161" on="0"/>
        <pt x="692" y="1171" on="0"/>
        <pt x="647" y="1171" on="1"/>
        <pt x="609" y="1171" on="0"/>
        <pt x="500" y="1119" on="0"/>
        <pt x="446" y="1075" on="1"/>
        <pt x="395" y="1034" on="0"/>
        <pt x="314" y="902" on="0"/>
        <pt x="256" y="747" on="0"/>
        <pt x="225" y="586" on="0"/>
        <pt x="225" y="516" on="1"/>
        <pt x="225" y="409" on="0"/>
        <pt x="290" y="252" on="0"/>
        <pt x="392" y="148" on="0"/>
        <pt x="518" y="98" on="0"/>
        <pt x="580" y="98" on="1"/>
        <pt x="634" y="98" on="0"/>
        <pt x="738" y="130" on="0"/>
        <pt x="773" y="156" on="1"/>
        <pt x="813" y="457" on="1"/>
        <pt x="814" y="467" on="0"/>
        <pt x="804" y="487" on="0"/>
        <pt x="759" y="507" on="0"/>
        <pt x="671" y="527" on="0"/>
        <pt x="596" y="539" on="1"/>
        <pt x="602" y="582" on="1"/>
        <pt x="1063" y="582" on="1"/>
      </contour>
    </TTGlyph>
    <TTGlyph name="Gbreve" xMin="76" yMin="-31" xMax="1063" yMax="1698">
      <component glyphName="G" x="0" y="0" flags="0x0"/>
      <component glyphName="uni0306" x="1074" y="320" flags="0x0"/>
    </TTGlyph>
    <TTGlyph name="Gcaron" xMin="76" yMin="-31" xMax="1063" yMax="1716">
      <component glyphName="G" x="0" y="0" flags="0x0"/>
      <component glyphName="uni030C.LP" x="1077" y="320" flags="0x0"/>
    </TTGlyph>
    <TTGlyph name="Gcircumflex" xMin="76" yMin="-31" xMax="1063" yMax="1692">
      <component glyphName="G" x="0" y="0" flags="0x0"/>
      <component glyphName="uni0302.LP" x="1072" y="320" flags="0x0"/>
    </TTGlyph>
    <TTGlyph name="Gdotaccent" xMin="76" yMin="-31" xMax="1063" yMax="1620">
      <component glyphName="G" x="0" y="0" flags="0x0"/>
      <component glyphName="uni0307.LP" x="1076" y="320" flags="0x0"/>
    </TTGlyph>
    <TTGlyph name="H" xMin="0" yMin="0" xMax="1286" yMax="1260">
      <contour>
        <pt x="578" y="1217" on="1"/>
        <pt x="515" y="1203" on="0"/>
        <pt x="439" y="1169" on="0"/>
        <pt x="436" y="1155" on="1"/>
        <pt x="375" y="705" on="1"/>
        <pt x="931" y="705" on="1"/>
        <pt x="993" y="1155" on="1"/>
        <pt x="995" y="1167" on="0"/>
        <pt x="933" y="1203" on="0"/>
        <pt x="870" y="1217" on="1"/>
        <pt x="874" y="1260" on="1"/>
        <pt x="1286" y="1260" on="1"/>
        <pt x="1280" y="1217" on="1"/>
        <pt x="1217" y="1203" on="0"/>
        <pt x="1141" y="1169" on="0"/>
        <pt x="1139" y="1155" on="1"/>
        <pt x="993" y="104" on="1"/>
        <pt x="991" y="92" on="0"/>
        <pt x="1053" y="57" on="0"/>
        <pt x="1118" y="43" on="1"/>
        <pt x="1112" y="0" on="1"/>
        <pt x="702" y="0" on="1"/>
        <pt x="709" y="43" on="1"/>
        <pt x="772" y="57" on="0"/>
        <pt x="846" y="90" on="0"/>
        <pt x="848" y="104" on="1"/>
        <pt x="918" y="614" on="1"/>
        <pt x="362" y="614" on="1"/>
        <pt x="293" y="104" on="1"/>
        <pt x="290" y="92" on="0"/>
        <pt x="353" y="57" on="0"/>
        <pt x="416" y="43" on="1"/>
        <pt x="410" y="0" on="1"/>
        <pt x="0" y="0" on="1"/>
        <pt x="6" y="43" on="1"/>
        <pt x="69" y="57" on="0"/>
        <pt x="145" y="90" on="0"/>
        <pt x="147" y="104" on="1"/>
        <pt x="293" y="1155" on="1"/>
        <pt x="295" y="1167" on="0"/>
        <pt x="233" y="1203" on="0"/>
        <pt x="168" y="1217" on="1"/>
        <pt x="174" y="1260" on="1"/>
        <pt x="584" y="1260" on="1"/>
      </contour>
    </TTGlyph>
    <TTGlyph name="Hcircumflex" xMin="0" yMin="0" xMax="1286" yMax="1692">
      <component glyphName="H" x="0" y="0" flags="0x0"/>
      <component glyphName="uni0302.LP" x="1089" y="320" flags="0x0"/>
    </TTGlyph>
    <TTGlyph name="I" xMin="20" yMin="0" xMax="604" yMax="1260">
      <contour>
        <pt x="598" y="1217" on="1"/>
        <pt x="535" y="1203" on="0"/>
        <pt x="459" y="1169" on="0"/>
        <pt x="457" y="1155" on="1"/>
        <pt x="311" y="104" on="1"/>
        <pt x="309" y="92" on="0"/>
        <pt x="371" y="57" on="0"/>
        <pt x="436" y="43" on="1"/>
        <pt x="430" y="0" on="1"/>
        <pt x="20" y="0" on="1"/>
        <pt x="27" y="43" on="1"/>
        <pt x="90" y="57" on="0"/>
        <pt x="165" y="90" on="0"/>
        <pt x="168" y="104" on="1"/>
        <pt x="311" y="1155" on="1"/>
        <pt x="313" y="1167" on="0"/>
        <pt x="251" y="1203" on="0"/>
        <pt x="188" y="1217" on="1"/>
        <pt x="195" y="1260" on="1"/>
        <pt x="604" y="1260" on="1"/>
      </contour>
    </TTGlyph>
    <TTGlyph name="IJ" xMin="20" yMin="-381" xMax="1202" yMax="1260">
      <component glyphName="I" x="0" y="0" flags="0x0"/>
      <component glyphName="J" x="573" y="0" flags="0x0"/>
    </TTGlyph>
    <TTGlyph name="Iacute" xMin="20" yMin="0" xMax="743" yMax="1708">
      <component glyphName="I" x="0" y="0" flags="0x0"/>
      <component glyphName="acutecomb.LP" x="759" y="320" flags="0x0"/>
    </TTGlyph>
    <TTGlyph name="Ibreve" xMin="20" yMin="0" xMax="740" yMax="1698">
      <component glyphName="I" x="0" y="0" flags="0x0"/>
      <component glyphName="uni0306" x="760" y="320" flags="0x0"/>
    </TTGlyph>
    <TTGlyph name="Icircumflex" xMin="20" yMin="0" xMax="694" yMax="1692">
      <component glyphName="I" x="0" y="0" flags="0x0"/>
      <component glyphName="uni0302.LP" x="758" y="320" flags="0x0"/>
    </TTGlyph>
    <TTGlyph name="Idieresis" xMin="20" yMin="0" xMax="714" yMax="1620">
      <component glyphName="I" x="0" y="0" flags="0x0"/>
      <component glyphName="uni0308.LP" x="761" y="320" flags="0x0"/>
    </TTGlyph>
    <TTGlyph name="Idotaccent" xMin="20" yMin="0" xMax="604" yMax="1620">
      <component glyphName="I" x="0" y="0" flags="0x0"/>
      <component glyphName="uni0307.LP" x="762" y="320" flags="0x0"/>
    </TTGlyph>
    <TTGlyph name="Igrave" xMin="20" yMin="0" xMax="604" yMax="1708">
      <component glyphName="I" x="0" y="0" flags="0x0"/>
      <component glyphName="gravecomb.LP" x="681" y="320" flags="0x0"/>
    </TTGlyph>
    <TTGlyph name="Imacron" xMin="20" yMin="0" xMax="693" yMax="1603">
      <component glyphName="I" x="0" y="0" flags="0x0"/>
      <component glyphName="uni0304.Short" x="771" y="320" flags="0x0"/>
    </TTGlyph>
    <TTGlyph name="Itilde" xMin="20" yMin="0" xMax="752" yMax="1633">
      <component glyphName="I" x="0" y="0" flags="0x0"/>
      <component glyphName="tildecomb.LP" x="761" y="320" flags="0x0"/>
    </TTGlyph>
    <TTGlyph name="J" xMin="-264" yMin="-381" xMax="629" yMax="1260">
      <contour>
        <pt x="623" y="1217" on="1"/>
        <pt x="560" y="1203" on="0"/>
        <pt x="483" y="1169" on="0"/>
        <pt x="481" y="1155" on="1"/>
        <pt x="350" y="205" on="1"/>
        <pt x="334" y="86" on="0"/>
        <pt x="282" y="-73" on="0"/>
        <pt x="217" y="-183" on="0"/>
        <pt x="141" y="-257" on="0"/>
        <pt x="100" y="-289" on="1"/>
        <pt x="73" y="-310" on="0"/>
        <pt x="10" y="-344" on="0"/>
        <pt x="-53" y="-368" on="0"/>
        <pt x="-107" y="-381" on="0"/>
        <pt x="-125" y="-381" on="1"/>
        <pt x="-153" y="-381" on="0"/>
        <pt x="-203" y="-362" on="0"/>
        <pt x="-241" y="-337" on="0"/>
        <pt x="-264" y="-310" on="0"/>
        <pt x="-264" y="-301" on="1"/>
        <pt x="-264" y="-291" on="0"/>
        <pt x="-235" y="-257" on="0"/>
        <pt x="-196" y="-225" on="0"/>
        <pt x="-155" y="-201" on="0"/>
        <pt x="-143" y="-201" on="1"/>
        <pt x="-133" y="-201" on="0"/>
        <pt x="-112" y="-219" on="0"/>
        <pt x="-83" y="-240" on="0"/>
        <pt x="-41" y="-258" on="0"/>
        <pt x="-10" y="-258" on="1"/>
        <pt x="14" y="-258" on="0"/>
        <pt x="72" y="-224" on="0"/>
        <pt x="130" y="-136" on="0"/>
        <pt x="181" y="16" on="0"/>
        <pt x="197" y="133" on="1"/>
        <pt x="338" y="1155" on="1"/>
        <pt x="339" y="1161" on="0"/>
        <pt x="326" y="1175" on="0"/>
        <pt x="289" y="1191" on="0"/>
        <pt x="222" y="1208" on="0"/>
        <pt x="168" y="1217" on="1"/>
        <pt x="172" y="1260" on="1"/>
        <pt x="629" y="1260" on="1"/>
      </contour>
    </TTGlyph>
    <TTGlyph name="K" xMin="0" yMin="-14" xMax="1161" yMax="1260">
      <contour>
        <pt x="578" y="1217" on="1"/>
        <pt x="515" y="1203" on="0"/>
        <pt x="439" y="1169" on="0"/>
        <pt x="436" y="1155" on="1"/>
        <pt x="367" y="648" on="1"/>
        <pt x="825" y="1128" on="1"/>
        <pt x="850" y="1154" on="0"/>
        <pt x="866" y="1186" on="0"/>
        <pt x="851" y="1205" on="0"/>
        <pt x="806" y="1214" on="0"/>
        <pt x="772" y="1217" on="1"/>
        <pt x="778" y="1260" on="1"/>
        <pt x="1161" y="1260" on="1"/>
        <pt x="1155" y="1217" on="1"/>
        <pt x="1124" y="1213" on="0"/>
        <pt x="1077" y="1205" on="0"/>
        <pt x="1039" y="1191" on="0"/>
        <pt x="1007" y="1171" on="0"/>
        <pt x="991" y="1155" on="1"/>
        <pt x="506" y="671" on="1"/>
        <pt x="856" y="156" on="1"/>
        <pt x="870" y="135" on="0"/>
        <pt x="902" y="113" on="0"/>
        <pt x="947" y="110" on="0"/>
        <pt x="1012" y="128" on="0"/>
        <pt x="1059" y="147" on="1"/>
        <pt x="1077" y="111" on="1"/>
        <pt x="1039" y="82" on="0"/>
        <pt x="966" y="35" on="0"/>
        <pt x="901" y="3" on="0"/>
        <pt x="846" y="-14" on="0"/>
        <pt x="827" y="-14" on="1"/>
        <pt x="812" y="-14" on="0"/>
        <pt x="787" y="-9" on="0"/>
        <pt x="765" y="6" on="0"/>
        <pt x="743" y="31" on="0"/>
        <pt x="731" y="51" on="1"/>
        <pt x="365" y="637" on="1"/>
        <pt x="293" y="104" on="1"/>
        <pt x="290" y="92" on="0"/>
        <pt x="353" y="57" on="0"/>
        <pt x="416" y="43" on="1"/>
        <pt x="410" y="0" on="1"/>
        <pt x="0" y="0" on="1"/>
        <pt x="6" y="43" on="1"/>
        <pt x="69" y="57" on="0"/>
        <pt x="145" y="90" on="0"/>
        <pt x="147" y="104" on="1"/>
        <pt x="293" y="1155" on="1"/>
        <pt x="295" y="1167" on="0"/>
        <pt x="233" y="1203" on="0"/>
        <pt x="168" y="1217" on="1"/>
        <pt x="174" y="1260" on="1"/>
        <pt x="584" y="1260" on="1"/>
      </contour>
    </TTGlyph>
    <TTGlyph name="L" xMin="0" yMin="0" xMax="848" yMax="1260">
      <contour>
        <pt x="848" y="244" on="1"/>
        <pt x="828" y="157" on="0"/>
        <pt x="787" y="29" on="0"/>
        <pt x="774" y="0" on="1"/>
        <pt x="0" y="0" on="1"/>
        <pt x="6" y="43" on="1"/>
        <pt x="69" y="57" on="0"/>
        <pt x="145" y="90" on="0"/>
        <pt x="147" y="104" on="1"/>
        <pt x="293" y="1155" on="1"/>
        <pt x="295" y="1167" on="0"/>
        <pt x="233" y="1203" on="0"/>
        <pt x="168" y="1217" on="1"/>
        <pt x="174" y="1260" on="1"/>
        <pt x="584" y="1260" on="1"/>
        <pt x="578" y="1217" on="1"/>
        <pt x="515" y="1203" on="0"/>
        <pt x="439" y="1169" on="0"/>
        <pt x="436" y="1155" on="1"/>
        <pt x="299" y="154" on="1"/>
        <pt x="297" y="136" on="0"/>
        <pt x="309" y="111" on="0"/>
        <pt x="346" y="96" on="0"/>
        <pt x="411" y="90" on="0"/>
        <pt x="461" y="90" on="1"/>
        <pt x="588" y="90" on="1"/>
        <pt x="630" y="90" on="0"/>
        <pt x="689" y="100" on="0"/>
        <pt x="737" y="135" on="0"/>
        <pt x="781" y="203" on="0"/>
        <pt x="809" y="262" on="1"/>
      </contour>
    </TTGlyph>
    <TTGlyph name="Lacute" xMin="0" yMin="0" xMax="894" yMax="1708">
      <component glyphName="L" x="0" y="0" flags="0x0"/>
      <component glyphName="acutecomb.LP" x="910" y="320" flags="0x0"/>
    </TTGlyph>
    <TTGlyph name="Lslash" xMin="0" yMin="0" xMax="848" yMax="1260">
      <contour>
        <pt x="657" y="823" on="1"/>
        <pt x="654" y="814" on="0"/>
        <pt x="642" y="788" on="0"/>
        <pt x="628" y="761" on="0"/>
        <pt x="612" y="736" on="0"/>
        <pt x="606" y="729" on="1"/>
        <pt x="360" y="600" on="1"/>
        <pt x="299" y="154" on="1"/>
        <pt x="297" y="136" on="0"/>
        <pt x="309" y="111" on="0"/>
        <pt x="346" y="96" on="0"/>
        <pt x="411" y="90" on="0"/>
        <pt x="461" y="90" on="1"/>
        <pt x="588" y="90" on="1"/>
        <pt x="630" y="90" on="0"/>
        <pt x="689" y="100" on="0"/>
        <pt x="737" y="135" on="0"/>
        <pt x="781" y="203" on="0"/>
        <pt x="809" y="262" on="1"/>
        <pt x="848" y="244" on="1"/>
        <pt x="828" y="157" on="0"/>
        <pt x="787" y="29" on="0"/>
        <pt x="774" y="0" on="1"/>
        <pt x="0" y="0" on="1"/>
        <pt x="6" y="43" on="1"/>
        <pt x="69" y="57" on="0"/>
        <pt x="145" y="90" on="0"/>
        <pt x="147" y="104" on="1"/>
        <pt x="204" y="518" on="1"/>
        <pt x="84" y="455" on="1"/>
        <pt x="61" y="477" on="1"/>
        <pt x="64" y="487" on="0"/>
        <pt x="77" y="516" on="0"/>
        <pt x="92" y="544" on="0"/>
        <pt x="107" y="569" on="0"/>
        <pt x="113" y="575" on="1"/>
        <pt x="220" y="631" on="1"/>
        <pt x="293" y="1155" on="1"/>
        <pt x="295" y="1167" on="0"/>
        <pt x="233" y="1203" on="0"/>
        <pt x="168" y="1217" on="1"/>
        <pt x="174" y="1260" on="1"/>
        <pt x="584" y="1260" on="1"/>
        <pt x="578" y="1217" on="1"/>
        <pt x="515" y="1203" on="0"/>
        <pt x="439" y="1169" on="0"/>
        <pt x="436" y="1155" on="1"/>
        <pt x="375" y="712" on="1"/>
        <pt x="637" y="848" on="1"/>
      </contour>
    </TTGlyph>
    <TTGlyph name="M" xMin="4" yMin="0" xMax="1536" yMax="1260">
      <contour>
        <pt x="1532" y="1217" on="1"/>
        <pt x="1505" y="1217" on="0"/>
        <pt x="1435" y="1198" on="0"/>
        <pt x="1399" y="1181" on="1"/>
        <pt x="1278" y="104" on="1"/>
        <pt x="1276" y="92" on="0"/>
        <pt x="1342" y="57" on="0"/>
        <pt x="1407" y="43" on="1"/>
        <pt x="1401" y="0" on="1"/>
        <pt x="991" y="0" on="1"/>
        <pt x="997" y="43" on="1"/>
        <pt x="1060" y="57" on="0"/>
        <pt x="1141" y="90" on="0"/>
        <pt x="1143" y="104" on="1"/>
        <pt x="1251" y="1059" on="1"/>
        <pt x="711" y="0" on="1"/>
        <pt x="670" y="0" on="1"/>
        <pt x="392" y="1047" on="1"/>
        <pt x="256" y="104" on="1"/>
        <pt x="254" y="92" on="0"/>
        <pt x="314" y="57" on="0"/>
        <pt x="379" y="43" on="1"/>
        <pt x="373" y="0" on="1"/>
        <pt x="4" y="0" on="1"/>
        <pt x="10" y="43" on="1"/>
        <pt x="75" y="57" on="0"/>
        <pt x="148" y="90" on="0"/>
        <pt x="150" y="104" on="1"/>
        <pt x="306" y="1179" on="1"/>
        <pt x="275" y="1200" on="0"/>
        <pt x="208" y="1217" on="0"/>
        <pt x="182" y="1217" on="1"/>
        <pt x="188" y="1260" on="1"/>
        <pt x="453" y="1260" on="1"/>
        <pt x="461" y="1260" on="0"/>
        <pt x="472" y="1254" on="0"/>
        <pt x="481" y="1236" on="0"/>
        <pt x="491" y="1203" on="0"/>
        <pt x="498" y="1176" on="1"/>
        <pt x="747" y="281" on="1"/>
        <pt x="1206" y="1176" on="1"/>
        <pt x="1220" y="1203" on="0"/>
        <pt x="1239" y="1236" on="0"/>
        <pt x="1254" y="1254" on="0"/>
        <pt x="1267" y="1260" on="0"/>
        <pt x="1276" y="1260" on="1"/>
        <pt x="1536" y="1260" on="1"/>
      </contour>
    </TTGlyph>
    <TTGlyph name="N" xMin="0" yMin="-31" xMax="1294" yMax="1260">
      <contour>
        <pt x="1288" y="1217" on="1"/>
        <pt x="1222" y="1207" on="0"/>
        <pt x="1155" y="1172" on="0"/>
        <pt x="1153" y="1155" on="1"/>
        <pt x="989" y="-31" on="1"/>
        <pt x="968" y="-28" on="0"/>
        <pt x="934" y="-20" on="0"/>
        <pt x="906" y="-4" on="0"/>
        <pt x="882" y="23" on="0"/>
        <pt x="870" y="45" on="1"/>
        <pt x="373" y="1004" on="1"/>
        <pt x="250" y="104" on="1"/>
        <pt x="247" y="92" on="0"/>
        <pt x="303" y="54" on="0"/>
        <pt x="371" y="43" on="1"/>
        <pt x="365" y="0" on="1"/>
        <pt x="0" y="0" on="1"/>
        <pt x="6" y="43" on="1"/>
        <pt x="74" y="52" on="0"/>
        <pt x="141" y="90" on="0"/>
        <pt x="143" y="104" on="1"/>
        <pt x="289" y="1154" on="1"/>
        <pt x="263" y="1184" on="0"/>
        <pt x="201" y="1209" on="0"/>
        <pt x="158" y="1217" on="1"/>
        <pt x="164" y="1260" on="1"/>
        <pt x="342" y="1260" on="1"/>
        <pt x="364" y="1260" on="0"/>
        <pt x="389" y="1258" on="0"/>
        <pt x="408" y="1243" on="0"/>
        <pt x="425" y="1211" on="0"/>
        <pt x="440" y="1182" on="1"/>
        <pt x="924" y="258" on="1"/>
        <pt x="1047" y="1155" on="1"/>
        <pt x="1048" y="1161" on="0"/>
        <pt x="1036" y="1178" on="0"/>
        <pt x="1007" y="1195" on="0"/>
        <pt x="959" y="1211" on="0"/>
        <pt x="924" y="1217" on="1"/>
        <pt x="930" y="1260" on="1"/>
        <pt x="1294" y="1260" on="1"/>
      </contour>
    </TTGlyph>
    <TTGlyph name="Nacute" xMin="0" yMin="-31" xMax="1294" yMax="1708">
      <component glyphName="N" x="0" y="0" flags="0x0"/>
      <component glyphName="acutecomb.LP" x="1090" y="320" flags="0x0"/>
    </TTGlyph>
    <TTGlyph name="Ncaron" xMin="0" yMin="-31" xMax="1294" yMax="1716">
      <component glyphName="N" x="0" y="0" flags="0x0"/>
      <component glyphName="uni030C.LP" x="1094" y="320" flags="0x0"/>
    </TTGlyph>
    <TTGlyph name="Ntilde" xMin="0" yMin="-31" xMax="1294" yMax="1633">
      <component glyphName="N" x="0" y="0" flags="0x0"/>
      <component glyphName="tildecomb.LP" x="1092" y="320" flags="0x0"/>
    </TTGlyph>
    <TTGlyph name="O" xMin="90" yMin="-31" xMax="1085" yMax="1290">
      <contour>
        <pt x="936" y="756" on="1"/>
        <pt x="936" y="840" on="0"/>
        <pt x="900" y="989" on="0"/>
        <pt x="830" y="1100" on="0"/>
        <pt x="728" y="1165" on="0"/>
        <pt x="662" y="1165" on="1"/>
        <pt x="586" y="1165" on="0"/>
        <pt x="465" y="1106" on="0"/>
        <pt x="371" y="1008" on="0"/>
        <pt x="305" y="878" on="0"/>
        <pt x="262" y="738" on="0"/>
        <pt x="242" y="595" on="0"/>
        <pt x="242" y="532" on="1"/>
        <pt x="242" y="439" on="0"/>
        <pt x="281" y="280" on="0"/>
        <pt x="353" y="165" on="0"/>
        <pt x="454" y="100" on="0"/>
        <pt x="516" y="100" on="1"/>
        <pt x="593" y="100" on="0"/>
        <pt x="716" y="162" on="0"/>
        <pt x="809" y="265" on="0"/>
        <pt x="875" y="400" on="0"/>
        <pt x="917" y="546" on="0"/>
        <pt x="936" y="693" on="0"/>
      </contour>
      <contour>
        <pt x="1085" y="774" on="1"/>
        <pt x="1085" y="703" on="0"/>
        <pt x="1062" y="557" on="0"/>
        <pt x="1015" y="415" on="0"/>
        <pt x="946" y="282" on="0"/>
        <pt x="901" y="225" on="1"/>
        <pt x="859" y="171" on="0"/>
        <pt x="764" y="78" on="0"/>
        <pt x="657" y="9" on="0"/>
        <pt x="538" y="-31" on="0"/>
        <pt x="471" y="-31" on="1"/>
        <pt x="375" y="-31" on="0"/>
        <pt x="232" y="51" on="0"/>
        <pt x="137" y="192" on="0"/>
        <pt x="90" y="380" on="0"/>
        <pt x="90" y="485" on="1"/>
        <pt x="90" y="548" on="0"/>
        <pt x="113" y="689" on="0"/>
        <pt x="156" y="830" on="0"/>
        <pt x="218" y="963" on="0"/>
        <pt x="258" y="1018" on="1"/>
        <pt x="300" y="1074" on="0"/>
        <pt x="397" y="1173" on="0"/>
        <pt x="508" y="1247" on="0"/>
        <pt x="634" y="1290" on="0"/>
        <pt x="705" y="1290" on="1"/>
        <pt x="803" y="1290" on="0"/>
        <pt x="947" y="1208" on="0"/>
        <pt x="1040" y="1067" on="0"/>
        <pt x="1085" y="879" on="0"/>
      </contour>
    </TTGlyph>
    <TTGlyph name="OE" xMin="90" yMin="-31" xMax="1479" yMax="1290">
      <contour>
        <pt x="510" y="100" on="1"/>
        <pt x="583" y="100" on="0"/>
        <pt x="694" y="127" on="0"/>
        <pt x="745" y="163" on="1"/>
        <pt x="871" y="1081" on="1"/>
        <pt x="785" y="1165" on="0"/>
        <pt x="657" y="1165" on="1"/>
        <pt x="581" y="1165" on="0"/>
        <pt x="459" y="1105" on="0"/>
        <pt x="366" y="1005" on="0"/>
        <pt x="299" y="873" on="0"/>
        <pt x="256" y="731" on="0"/>
        <pt x="236" y="587" on="0"/>
        <pt x="236" y="524" on="1"/>
        <pt x="236" y="429" on="0"/>
        <pt x="276" y="273" on="0"/>
        <pt x="348" y="162" on="0"/>
        <pt x="449" y="100" on="0"/>
      </contour>
      <contour>
        <pt x="1403" y="244" on="1"/>
        <pt x="1384" y="158" on="0"/>
        <pt x="1344" y="29" on="0"/>
        <pt x="1333" y="0" on="1"/>
        <pt x="745" y="0" on="1"/>
        <pt x="697" y="-1" on="0"/>
        <pt x="628" y="-11" on="0"/>
        <pt x="567" y="-22" on="0"/>
        <pt x="506" y="-31" on="0"/>
        <pt x="467" y="-31" on="1"/>
        <pt x="375" y="-31" on="0"/>
        <pt x="234" y="47" on="0"/>
        <pt x="139" y="182" on="0"/>
        <pt x="90" y="363" on="0"/>
        <pt x="90" y="465" on="1"/>
        <pt x="90" y="568" on="0"/>
        <pt x="134" y="770" on="0"/>
        <pt x="213" y="954" on="0"/>
        <pt x="324" y="1110" on="0"/>
        <pt x="459" y="1225" on="0"/>
        <pt x="615" y="1290" on="0"/>
        <pt x="698" y="1290" on="1"/>
        <pt x="735" y="1290" on="0"/>
        <pt x="787" y="1281" on="0"/>
        <pt x="835" y="1270" on="0"/>
        <pt x="887" y="1261" on="0"/>
        <pt x="922" y="1260" on="1"/>
        <pt x="1454" y="1260" on="1"/>
        <pt x="1479" y="1235" on="1"/>
        <pt x="1474" y="1209" on="0"/>
        <pt x="1459" y="1147" on="0"/>
        <pt x="1441" y="1085" on="0"/>
        <pt x="1422" y="1029" on="0"/>
        <pt x="1413" y="1010" on="1"/>
        <pt x="1370" y="1010" on="1"/>
        <pt x="1374" y="1056" on="0"/>
        <pt x="1373" y="1117" on="0"/>
        <pt x="1360" y="1154" on="0"/>
        <pt x="1337" y="1169" on="0"/>
        <pt x="1319" y="1169" on="1"/>
        <pt x="1027" y="1169" on="1"/>
        <pt x="967" y="735" on="1"/>
        <pt x="1294" y="735" on="1"/>
        <pt x="1315" y="707" on="1"/>
        <pt x="1305" y="693" on="0"/>
        <pt x="1280" y="662" on="0"/>
        <pt x="1253" y="633" on="0"/>
        <pt x="1227" y="608" on="0"/>
        <pt x="1217" y="600" on="1"/>
        <pt x="1205" y="615" on="0"/>
        <pt x="1178" y="635" on="0"/>
        <pt x="1139" y="649" on="0"/>
        <pt x="1085" y="655" on="0"/>
        <pt x="1047" y="655" on="1"/>
        <pt x="956" y="655" on="1"/>
        <pt x="887" y="154" on="1"/>
        <pt x="885" y="139" on="0"/>
        <pt x="884" y="116" on="0"/>
        <pt x="908" y="99" on="0"/>
        <pt x="968" y="90" on="0"/>
        <pt x="1028" y="90" on="1"/>
        <pt x="1143" y="90" on="1"/>
        <pt x="1184" y="90" on="0"/>
        <pt x="1243" y="100" on="0"/>
        <pt x="1293" y="135" on="0"/>
        <pt x="1338" y="203" on="0"/>
        <pt x="1366" y="262" on="1"/>
      </contour>
    </TTGlyph>
    <TTGlyph name="Oacute" xMin="90" yMin="-31" xMax="1085" yMax="1708">
      <component glyphName="O" x="0" y="0" flags="0x0"/>
      <component glyphName="acutecomb.LP" x="1053" y="320" flags="0x0"/>
    </TTGlyph>
    <TTGlyph name="Obreve" xMin="90" yMin="-31" xMax="1085" yMax="1698">
      <component glyphName="O" x="0" y="0" flags="0x0"/>
      <component glyphName="uni0306" x="1054" y="320" flags="0x0"/>
    </TTGlyph>
    <TTGlyph name="Ocircumflex" xMin="90" yMin="-31" xMax="1085" yMax="1692">
      <component glyphName="O" x="0" y="0" flags="0x0"/>
      <component glyphName="uni0302.LP" x="1052" y="320" flags="0x0"/>
    </TTGlyph>
    <TTGlyph name="Odieresis" xMin="90" yMin="-31" xMax="1085" yMax="1620">
      <component glyphName="O" x="0" y="0" flags="0x0"/>
      <component glyphName="uni0308.LP" x="1055" y="320" flags="0x0"/>
    </TTGlyph>
    <TTGlyph name="Ograve" xMin="90" yMin="-31" xMax="1085" yMax="1708">
      <component glyphName="O" x="0" y="0" flags="0x0"/>
      <component glyphName="gravecomb.LP" x="975" y="320" flags="0x0"/>
    </TTGlyph>
    <TTGlyph name="Ohorn" xMin="90" yMin="-31" xMax="1249" yMax="1498">
      <contour>
        <pt x="936" y="756" on="1"/>
        <pt x="936" y="840" on="0"/>
        <pt x="900" y="989" on="0"/>
        <pt x="830" y="1100" on="0"/>
        <pt x="728" y="1165" on="0"/>
        <pt x="662" y="1165" on="1"/>
        <pt x="586" y="1165" on="0"/>
        <pt x="465" y="1106" on="0"/>
        <pt x="371" y="1008" on="0"/>
        <pt x="305" y="878" on="0"/>
        <pt x="262" y="738" on="0"/>
        <pt x="242" y="595" on="0"/>
        <pt x="242" y="532" on="1"/>
        <pt x="242" y="439" on="0"/>
        <pt x="281" y="280" on="0"/>
        <pt x="353" y="165" on="0"/>
        <pt x="454" y="100" on="0"/>
        <pt x="516" y="100" on="1"/>
        <pt x="593" y="100" on="0"/>
        <pt x="716" y="162" on="0"/>
        <pt x="809" y="265" on="0"/>
        <pt x="875" y="400" on="0"/>
        <pt x="917" y="546" on="0"/>
        <pt x="936" y="693" on="0"/>
      </contour>
      <contour>
        <pt x="1249" y="1418" on="1"/>
        <pt x="1249" y="1373" on="0"/>
        <pt x="1210" y="1292" on="0"/>
        <pt x="1142" y="1221" on="0"/>
        <pt x="1049" y="1159" on="0"/>
        <pt x="996" y="1133" on="1"/>
        <pt x="1041" y="1063" on="0"/>
        <pt x="1085" y="878" on="0"/>
        <pt x="1085" y="774" on="1"/>
        <pt x="1085" y="703" on="0"/>
        <pt x="1062" y="557" on="0"/>
        <pt x="1015" y="415" on="0"/>
        <pt x="946" y="282" on="0"/>
        <pt x="901" y="225" on="1"/>
        <pt x="859" y="171" on="0"/>
        <pt x="764" y="78" on="0"/>
        <pt x="657" y="9" on="0"/>
        <pt x="538" y="-31" on="0"/>
        <pt x="471" y="-31" on="1"/>
        <pt x="375" y="-31" on="0"/>
        <pt x="232" y="51" on="0"/>
        <pt x="137" y="192" on="0"/>
        <pt x="90" y="380" on="0"/>
        <pt x="90" y="485" on="1"/>
        <pt x="90" y="548" on="0"/>
        <pt x="113" y="689" on="0"/>
        <pt x="156" y="830" on="0"/>
        <pt x="218" y="963" on="0"/>
        <pt x="258" y="1018" on="1"/>
        <pt x="300" y="1074" on="0"/>
        <pt x="397" y="1173" on="0"/>
        <pt x="508" y="1247" on="0"/>
        <pt x="634" y="1290" on="0"/>
        <pt x="705" y="1290" on="1"/>
        <pt x="787" y="1290" on="0"/>
        <pt x="913" y="1232" on="0"/>
        <pt x="959" y="1181" on="1"/>
        <pt x="1022" y="1208" on="0"/>
        <pt x="1083" y="1286" on="0"/>
        <pt x="1083" y="1343" on="1"/>
        <pt x="1083" y="1361" on="0"/>
        <pt x="1067" y="1403" on="0"/>
        <pt x="1038" y="1418" on="1"/>
        <pt x="1206" y="1498" on="1"/>
        <pt x="1231" y="1483" on="0"/>
        <pt x="1249" y="1440" on="0"/>
      </contour>
    </TTGlyph>
    <TTGlyph name="Ohungarumlaut" xMin="90" yMin="-31" xMax="1131" yMax="1779">
      <component glyphName="O" x="0" y="0" flags="0x0"/>
      <component glyphName="uni030B" x="1061" y="320" flags="0x0"/>
    </TTGlyph>
    <TTGlyph name="Omacron" xMin="90" yMin="-31" xMax="1085" yMax="1570">
      <component glyphName="O" x="0" y="0" flags="0x0"/>
      <component glyphName="uni0304.LP" x="1065" y="320" flags="0x0"/>
    </TTGlyph>
    <TTGlyph name="Omega" xMin="23" yMin="0" xMax="1124" yMax="1290">
      <component glyphName="uni03A9" x="0" y="0" flags="0x0"/>
    </TTGlyph>
    <TTGlyph name="Oslash" xMin="27" yMin="-53" xMax="1153" yMax="1313">
      <contour>
        <pt x="1085" y="774" on="1"/>
        <pt x="1085" y="703" on="0"/>
        <pt x="1062" y="557" on="0"/>
        <pt x="1015" y="415" on="0"/>
        <pt x="946" y="282" on="0"/>
        <pt x="901" y="225" on="1"/>
        <pt x="859" y="171" on="0"/>
        <pt x="764" y="78" on="0"/>
        <pt x="657" y="9" on="0"/>
        <pt x="538" y="-31" on="0"/>
        <pt x="471" y="-31" on="1"/>
        <pt x="393" y="-31" on="0"/>
        <pt x="272" y="22" on="0"/>
        <pt x="226" y="70" on="1"/>
        <pt x="170" y="-2" on="1"/>
        <pt x="160" y="-10" on="0"/>
        <pt x="128" y="-25" on="0"/>
        <pt x="92" y="-38" on="0"/>
        <pt x="75" y="-43" on="1"/>
        <pt x="47" y="-53" on="1"/>
        <pt x="27" y="-20" on="1"/>
        <pt x="163" y="157" on="1"/>
        <pt x="126" y="225" on="0"/>
        <pt x="90" y="392" on="0"/>
        <pt x="90" y="485" on="1"/>
        <pt x="90" y="548" on="0"/>
        <pt x="113" y="689" on="0"/>
        <pt x="156" y="830" on="0"/>
        <pt x="218" y="963" on="0"/>
        <pt x="258" y="1018" on="1"/>
        <pt x="300" y="1074" on="0"/>
        <pt x="397" y="1173" on="0"/>
        <pt x="508" y="1247" on="0"/>
        <pt x="634" y="1290" on="0"/>
        <pt x="705" y="1290" on="1"/>
        <pt x="784" y="1290" on="0"/>
        <pt x="907" y="1237" on="0"/>
        <pt x="952" y="1189" on="1"/>
        <pt x="1010" y="1264" on="1"/>
        <pt x="1038" y="1281" on="0"/>
        <pt x="1103" y="1305" on="0"/>
        <pt x="1130" y="1313" on="1"/>
        <pt x="1153" y="1280" on="1"/>
        <pt x="1015" y="1100" on="1"/>
        <pt x="1050" y="1032" on="0"/>
        <pt x="1085" y="867" on="0"/>
      </contour>
      <contour>
        <pt x="242" y="532" on="1"/>
        <pt x="242" y="404" on="0"/>
        <pt x="277" y="307" on="1"/>
        <pt x="854" y="1061" on="1"/>
        <pt x="819" y="1109" on="0"/>
        <pt x="723" y="1165" on="0"/>
        <pt x="662" y="1165" on="1"/>
        <pt x="586" y="1165" on="0"/>
        <pt x="465" y="1106" on="0"/>
        <pt x="371" y="1008" on="0"/>
        <pt x="305" y="878" on="0"/>
        <pt x="262" y="738" on="0"/>
        <pt x="242" y="595" on="0"/>
      </contour>
      <contour>
        <pt x="936" y="756" on="1"/>
        <pt x="936" y="811" on="0"/>
        <pt x="920" y="912" on="0"/>
        <pt x="905" y="957" on="1"/>
        <pt x="329" y="205" on="1"/>
        <pt x="364" y="155" on="0"/>
        <pt x="459" y="100" on="0"/>
        <pt x="516" y="100" on="1"/>
        <pt x="593" y="100" on="0"/>
        <pt x="716" y="162" on="0"/>
        <pt x="809" y="265" on="0"/>
        <pt x="875" y="400" on="0"/>
        <pt x="917" y="546" on="0"/>
        <pt x="936" y="693" on="0"/>
      </contour>
    </TTGlyph>
    <TTGlyph name="Oslashacute" xMin="27" yMin="-53" xMax="1153" yMax="1708">
      <component glyphName="Oslash" x="0" y="0" flags="0x0"/>
      <component glyphName="acutecomb.LP" x="1054" y="320" flags="0x0"/>
    </TTGlyph>
    <TTGlyph name="Otilde" xMin="90" yMin="-31" xMax="1085" yMax="1633">
      <component glyphName="O" x="0" y="0" flags="0x0"/>
      <component glyphName="tildecomb.LP" x="1055" y="320" flags="0x0"/>
    </TTGlyph>
    <TTGlyph name="P" xMin="0" yMin="0" xMax="975" yMax="1290">
      <contour>
        <pt x="975" y="942" on="1"/>
        <pt x="975" y="857" on="0"/>
        <pt x="909" y="708" on="0"/>
        <pt x="794" y="598" on="0"/>
        <pt x="640" y="535" on="0"/>
        <pt x="553" y="535" on="1"/>
        <pt x="515" y="535" on="0"/>
        <pt x="437" y="554" on="0"/>
        <pt x="410" y="569" on="1"/>
        <pt x="399" y="643" on="1"/>
        <pt x="433" y="629" on="0"/>
        <pt x="500" y="610" on="0"/>
        <pt x="532" y="610" on="1"/>
        <pt x="598" y="610" on="0"/>
        <pt x="708" y="653" on="0"/>
        <pt x="787" y="731" on="0"/>
        <pt x="831" y="840" on="0"/>
        <pt x="831" y="905" on="1"/>
        <pt x="831" y="989" on="0"/>
        <pt x="777" y="1104" on="0"/>
        <pt x="685" y="1175" on="0"/>
        <pt x="563" y="1206" on="0"/>
        <pt x="496" y="1206" on="1"/>
        <pt x="469" y="1206" on="1"/>
        <pt x="456" y="1206" on="0"/>
        <pt x="443" y="1205" on="1"/>
        <pt x="293" y="104" on="1"/>
        <pt x="291" y="98" on="0"/>
        <pt x="303" y="84" on="0"/>
        <pt x="337" y="68" on="0"/>
        <pt x="397" y="52" on="0"/>
        <pt x="444" y="43" on="1"/>
        <pt x="438" y="0" on="1"/>
        <pt x="0" y="0" on="1"/>
        <pt x="6" y="43" on="1"/>
        <pt x="69" y="57" on="0"/>
        <pt x="145" y="90" on="0"/>
        <pt x="147" y="104" on="1"/>
        <pt x="296" y="1195" on="1"/>
        <pt x="261" y="1190" on="0"/>
        <pt x="185" y="1176" on="0"/>
        <pt x="141" y="1165" on="1"/>
        <pt x="141" y="1225" on="1"/>
        <pt x="183" y="1240" on="0"/>
        <pt x="272" y="1265" on="0"/>
        <pt x="374" y="1281" on="0"/>
        <pt x="491" y="1290" on="0"/>
        <pt x="559" y="1290" on="1"/>
        <pt x="655" y="1290" on="0"/>
        <pt x="809" y="1246" on="0"/>
        <pt x="917" y="1158" on="0"/>
        <pt x="975" y="1028" on="0"/>
      </contour>
    </TTGlyph>
    <TTGlyph name="Pi" xMin="0" yMin="0" xMax="1230" yMax="1260">
      <contour>
        <pt x="0" y="0" on="1"/>
        <pt x="5" y="43" on="1"/>
        <pt x="68" y="57" on="0"/>
        <pt x="143" y="90" on="0"/>
        <pt x="145" y="104" on="1"/>
        <pt x="291" y="1155" on="1"/>
        <pt x="293" y="1167" on="0"/>
        <pt x="232" y="1203" on="0"/>
        <pt x="169" y="1217" on="1"/>
        <pt x="175" y="1260" on="1"/>
        <pt x="1230" y="1260" on="1"/>
        <pt x="1224" y="1217" on="1"/>
        <pt x="1160" y="1203" on="0"/>
        <pt x="1085" y="1169" on="0"/>
        <pt x="1083" y="1155" on="1"/>
        <pt x="937" y="104" on="1"/>
        <pt x="935" y="92" on="0"/>
        <pt x="997" y="57" on="0"/>
        <pt x="1060" y="43" on="1"/>
        <pt x="1055" y="0" on="1"/>
        <pt x="649" y="0" on="1"/>
        <pt x="654" y="43" on="1"/>
        <pt x="717" y="57" on="0"/>
        <pt x="791" y="90" on="0"/>
        <pt x="793" y="104" on="1"/>
        <pt x="933" y="1110" on="1"/>
        <pt x="934" y="1122" on="0"/>
        <pt x="914" y="1146" on="0"/>
        <pt x="870" y="1166" on="0"/>
        <pt x="804" y="1179" on="0"/>
        <pt x="759" y="1179" on="1"/>
        <pt x="610" y="1179" on="1"/>
        <pt x="567" y="1178" on="0"/>
        <pt x="501" y="1165" on="0"/>
        <pt x="455" y="1146" on="0"/>
        <pt x="430" y="1122" on="0"/>
        <pt x="429" y="1110" on="1"/>
        <pt x="289" y="104" on="1"/>
        <pt x="287" y="92" on="0"/>
        <pt x="348" y="57" on="0"/>
        <pt x="411" y="43" on="1"/>
        <pt x="406" y="0" on="1"/>
      </contour>
    </TTGlyph>
    <TTGlyph name="Q" xMin="90" yMin="-297" xMax="1104" yMax="1290">
      <contour>
        <pt x="936" y="756" on="1"/>
        <pt x="936" y="840" on="0"/>
        <pt x="900" y="989" on="0"/>
        <pt x="830" y="1100" on="0"/>
        <pt x="728" y="1165" on="0"/>
        <pt x="662" y="1165" on="1"/>
        <pt x="586" y="1165" on="0"/>
        <pt x="465" y="1106" on="0"/>
        <pt x="371" y="1008" on="0"/>
        <pt x="305" y="878" on="0"/>
        <pt x="262" y="738" on="0"/>
        <pt x="242" y="595" on="0"/>
        <pt x="242" y="532" on="1"/>
        <pt x="242" y="439" on="0"/>
        <pt x="281" y="280" on="0"/>
        <pt x="353" y="165" on="0"/>
        <pt x="454" y="100" on="0"/>
        <pt x="516" y="100" on="1"/>
        <pt x="593" y="100" on="0"/>
        <pt x="716" y="162" on="0"/>
        <pt x="809" y="265" on="0"/>
        <pt x="875" y="400" on="0"/>
        <pt x="917" y="546" on="0"/>
        <pt x="936" y="693" on="0"/>
      </contour>
      <contour>
        <pt x="1104" y="-117" on="1"/>
        <pt x="1075" y="-161" on="0"/>
        <pt x="1019" y="-228" on="0"/>
        <pt x="968" y="-273" on="0"/>
        <pt x="926" y="-297" on="0"/>
        <pt x="911" y="-297" on="1"/>
        <pt x="855" y="-297" on="0"/>
        <pt x="755" y="-239" on="0"/>
        <pt x="659" y="-155" on="0"/>
        <pt x="564" y="-62" on="0"/>
        <pt x="514" y="-28" on="1"/>
        <pt x="493" y="-31" on="0"/>
        <pt x="471" y="-31" on="1"/>
        <pt x="375" y="-31" on="0"/>
        <pt x="232" y="51" on="0"/>
        <pt x="137" y="192" on="0"/>
        <pt x="90" y="380" on="0"/>
        <pt x="90" y="485" on="1"/>
        <pt x="90" y="548" on="0"/>
        <pt x="113" y="689" on="0"/>
        <pt x="156" y="830" on="0"/>
        <pt x="218" y="963" on="0"/>
        <pt x="258" y="1018" on="1"/>
        <pt x="300" y="1074" on="0"/>
        <pt x="397" y="1173" on="0"/>
        <pt x="508" y="1247" on="0"/>
        <pt x="634" y="1290" on="0"/>
        <pt x="705" y="1290" on="1"/>
        <pt x="803" y="1290" on="0"/>
        <pt x="947" y="1208" on="0"/>
        <pt x="1040" y="1067" on="0"/>
        <pt x="1085" y="879" on="0"/>
        <pt x="1085" y="774" on="1"/>
        <pt x="1085" y="703" on="0"/>
        <pt x="1062" y="557" on="0"/>
        <pt x="1015" y="415" on="0"/>
        <pt x="946" y="282" on="0"/>
        <pt x="901" y="225" on="1"/>
        <pt x="847" y="156" on="0"/>
        <pt x="724" y="45" on="0"/>
        <pt x="652" y="10" on="1"/>
        <pt x="691" y="-14" on="0"/>
        <pt x="764" y="-73" on="0"/>
        <pt x="835" y="-125" on="0"/>
        <pt x="904" y="-160" on="0"/>
        <pt x="938" y="-160" on="1"/>
        <pt x="950" y="-160" on="0"/>
        <pt x="975" y="-152" on="0"/>
        <pt x="1008" y="-134" on="0"/>
        <pt x="1052" y="-104" on="0"/>
        <pt x="1083" y="-82" on="1"/>
      </contour>
    </TTGlyph>
    <TTGlyph name="R" xMin="0" yMin="-14" xMax="1077" yMax="1290">
      <contour>
        <pt x="1077" y="109" on="1"/>
        <pt x="1038" y="83" on="0"/>
        <pt x="962" y="38" on="0"/>
        <pt x="898" y="5" on="0"/>
        <pt x="847" y="-14" on="0"/>
        <pt x="834" y="-14" on="1"/>
        <pt x="817" y="-14" on="0"/>
        <pt x="786" y="-4" on="0"/>
        <pt x="755" y="25" on="0"/>
        <pt x="721" y="76" on="0"/>
        <pt x="702" y="117" on="1"/>
        <pt x="476" y="589" on="1"/>
        <pt x="447" y="591" on="0"/>
        <pt x="386" y="599" on="0"/>
        <pt x="361" y="605" on="1"/>
        <pt x="293" y="104" on="1"/>
        <pt x="290" y="92" on="0"/>
        <pt x="353" y="57" on="0"/>
        <pt x="416" y="43" on="1"/>
        <pt x="410" y="0" on="1"/>
        <pt x="0" y="0" on="1"/>
        <pt x="6" y="43" on="1"/>
        <pt x="69" y="57" on="0"/>
        <pt x="145" y="90" on="0"/>
        <pt x="147" y="104" on="1"/>
        <pt x="296" y="1193" on="1"/>
        <pt x="257" y="1188" on="0"/>
        <pt x="180" y="1175" on="0"/>
        <pt x="141" y="1167" on="1"/>
        <pt x="141" y="1227" on="1"/>
        <pt x="186" y="1240" on="0"/>
        <pt x="277" y="1263" on="0"/>
        <pt x="377" y="1280" on="0"/>
        <pt x="491" y="1290" on="0"/>
        <pt x="559" y="1290" on="1"/>
        <pt x="647" y="1290" on="0"/>
        <pt x="790" y="1249" on="0"/>
        <pt x="892" y="1168" on="0"/>
        <pt x="948" y="1049" on="0"/>
        <pt x="948" y="971" on="1"/>
        <pt x="948" y="932" on="0"/>
        <pt x="913" y="819" on="0"/>
        <pt x="834" y="708" on="0"/>
        <pt x="706" y="615" on="0"/>
        <pt x="612" y="597" on="1"/>
        <pt x="846" y="184" on="1"/>
        <pt x="864" y="152" on="0"/>
        <pt x="897" y="118" on="0"/>
        <pt x="942" y="110" on="0"/>
        <pt x="1008" y="128" on="0"/>
        <pt x="1059" y="147" on="1"/>
      </contour>
      <contour>
        <pt x="514" y="1206" on="1"/>
        <pt x="478" y="1206" on="1"/>
        <pt x="460" y="1206" on="0"/>
        <pt x="443" y="1205" on="1"/>
        <pt x="371" y="678" on="1"/>
        <pt x="400" y="670" on="0"/>
        <pt x="457" y="662" on="0"/>
        <pt x="485" y="662" on="1"/>
        <pt x="548" y="662" on="0"/>
        <pt x="664" y="697" on="0"/>
        <pt x="752" y="766" on="0"/>
        <pt x="805" y="871" on="0"/>
        <pt x="805" y="942" on="1"/>
        <pt x="805" y="1016" on="0"/>
        <pt x="750" y="1117" on="0"/>
        <pt x="665" y="1179" on="0"/>
        <pt x="562" y="1206" on="0"/>
      </contour>
    </TTGlyph>
    <TTGlyph name="Racute" xMin="0" yMin="-14" xMax="1077" yMax="1708">
      <component glyphName="R" x="0" y="0" flags="0x0"/>
      <component glyphName="acutecomb.LP" x="971" y="320" flags="0x0"/>
    </TTGlyph>
    <TTGlyph name="Rcaron" xMin="0" yMin="-14" xMax="1077" yMax="1716">
      <component glyphName="R" x="0" y="0" flags="0x0"/>
      <component glyphName="uni030C.LP" x="975" y="320" flags="0x0"/>
    </TTGlyph>
    <TTGlyph name="S" xMin="47" yMin="-31" xMax="876" yMax="1290">
      <contour>
        <pt x="872" y="1198" on="1"/>
        <pt x="876" y="1195" on="0"/>
        <pt x="868" y="1174" on="0"/>
        <pt x="851" y="1146" on="0"/>
        <pt x="826" y="1114" on="0"/>
        <pt x="800" y="1085" on="0"/>
        <pt x="777" y="1063" on="0"/>
        <pt x="770" y="1059" on="1"/>
        <pt x="741" y="1065" on="1"/>
        <pt x="724" y="1089" on="0"/>
        <pt x="682" y="1132" on="0"/>
        <pt x="632" y="1166" on="0"/>
        <pt x="577" y="1186" on="0"/>
        <pt x="547" y="1186" on="1"/>
        <pt x="493" y="1186" on="0"/>
        <pt x="409" y="1151" on="0"/>
        <pt x="352" y="1096" on="0"/>
        <pt x="322" y="1028" on="0"/>
        <pt x="322" y="995" on="1"/>
        <pt x="322" y="973" on="0"/>
        <pt x="336" y="925" on="0"/>
        <pt x="380" y="873" on="0"/>
        <pt x="461" y="814" on="0"/>
        <pt x="528" y="780" on="1"/>
        <pt x="607" y="739" on="0"/>
        <pt x="717" y="665" on="0"/>
        <pt x="785" y="586" on="0"/>
        <pt x="815" y="496" on="0"/>
        <pt x="815" y="440" on="1"/>
        <pt x="815" y="346" on="0"/>
        <pt x="737" y="176" on="0"/>
        <pt x="604" y="46" on="0"/>
        <pt x="427" y="-31" on="0"/>
        <pt x="328" y="-31" on="1"/>
        <pt x="290" y="-31" on="0"/>
        <pt x="193" y="-5" on="0"/>
        <pt x="106" y="37" on="0"/>
        <pt x="47" y="89" on="0"/>
        <pt x="47" y="115" on="1"/>
        <pt x="47" y="127" on="0"/>
        <pt x="71" y="173" on="0"/>
        <pt x="104" y="220" on="0"/>
        <pt x="141" y="254" on="0"/>
        <pt x="154" y="254" on="1"/>
        <pt x="166" y="254" on="0"/>
        <pt x="200" y="205" on="0"/>
        <pt x="255" y="145" on="0"/>
        <pt x="336" y="96" on="0"/>
        <pt x="395" y="96" on="1"/>
        <pt x="456" y="96" on="0"/>
        <pt x="561" y="137" on="0"/>
        <pt x="639" y="208" on="0"/>
        <pt x="684" y="304" on="0"/>
        <pt x="684" y="360" on="1"/>
        <pt x="684" y="401" on="0"/>
        <pt x="660" y="472" on="0"/>
        <pt x="600" y="539" on="0"/>
        <pt x="500" y="605" on="0"/>
        <pt x="424" y="641" on="1"/>
        <pt x="358" y="672" on="0"/>
        <pt x="272" y="743" on="0"/>
        <pt x="223" y="816" on="0"/>
        <pt x="203" y="892" on="0"/>
        <pt x="203" y="928" on="1"/>
        <pt x="203" y="994" on="0"/>
        <pt x="264" y="1124" on="0"/>
        <pt x="375" y="1226" on="0"/>
        <pt x="532" y="1290" on="0"/>
        <pt x="629" y="1290" on="1"/>
        <pt x="701" y="1290" on="0"/>
        <pt x="824" y="1235" on="0"/>
      </contour>
    </TTGlyph>
    <TTGlyph name="Sacute" xMin="47" yMin="-31" xMax="911" yMax="1708">
      <component glyphName="S" x="0" y="0" flags="0x0"/>
      <component glyphName="acutecomb.LP" x="927" y="320" flags="0x0"/>
    </TTGlyph>
    <TTGlyph name="Scaron" xMin="47" yMin="-31" xMax="901" yMax="1716">
      <component glyphName="S" x="0" y="0" flags="0x0"/>
      <component glyphName="uni030C.LP" x="931" y="320" flags="0x0"/>
    </TTGlyph>
    <TTGlyph name="Scircumflex" xMin="47" yMin="-31" xMax="876" yMax="1692">
      <component glyphName="S" x="0" y="0" flags="0x0"/>
      <component glyphName="uni0302.LP" x="926" y="320" flags="0x0"/>
    </TTGlyph>
    <TTGlyph name="T" xMin="113" yMin="0" xMax="1118" yMax="1260">
      <contour>
        <pt x="684" y="0" on="1"/>
        <pt x="238" y="0" on="1"/>
        <pt x="244" y="43" on="1"/>
        <pt x="330" y="62" on="0"/>
        <pt x="401" y="101" on="0"/>
        <pt x="403" y="115" on="1"/>
        <pt x="550" y="1169" on="1"/>
        <pt x="279" y="1169" on="1"/>
        <pt x="266" y="1169" on="0"/>
        <pt x="243" y="1158" on="0"/>
        <pt x="215" y="1122" on="0"/>
        <pt x="177" y="1053" on="0"/>
        <pt x="150" y="995" on="1"/>
        <pt x="113" y="1014" on="1"/>
        <pt x="116" y="1040" on="0"/>
        <pt x="129" y="1105" on="0"/>
        <pt x="146" y="1172" on="0"/>
        <pt x="165" y="1235" on="0"/>
        <pt x="174" y="1260" on="1"/>
        <pt x="1096" y="1260" on="1"/>
        <pt x="1118" y="1235" on="1"/>
        <pt x="1114" y="1211" on="0"/>
        <pt x="1102" y="1150" on="0"/>
        <pt x="1086" y="1086" on="0"/>
        <pt x="1069" y="1024" on="0"/>
        <pt x="1061" y="999" on="1"/>
        <pt x="1020" y="999" on="1"/>
        <pt x="1018" y="1049" on="0"/>
        <pt x="1010" y="1115" on="0"/>
        <pt x="995" y="1154" on="0"/>
        <pt x="970" y="1169" on="0"/>
        <pt x="950" y="1169" on="1"/>
        <pt x="693" y="1169" on="1"/>
        <pt x="549" y="115" on="1"/>
        <pt x="547" y="102" on="0"/>
        <pt x="609" y="62" on="0"/>
        <pt x="690" y="43" on="1"/>
      </contour>
    </TTGlyph>
    <TTGlyph name="Tcaron" xMin="113" yMin="0" xMax="1118" yMax="1716">
      <component glyphName="T" x="0" y="0" flags="0x0"/>
      <component glyphName="uni030C.LP" x="998" y="320" flags="0x0"/>
    </TTGlyph>
    <TTGlyph name="Thorn" xMin="4" yMin="0" xMax="938" yMax="1260">
      <contour>
        <pt x="604" y="1217" on="1"/>
        <pt x="557" y="1208" on="0"/>
        <pt x="494" y="1192" on="0"/>
        <pt x="456" y="1177" on="0"/>
        <pt x="439" y="1162" on="0"/>
        <pt x="438" y="1155" on="1"/>
        <pt x="418" y="1009" on="1"/>
        <pt x="482" y="1020" on="0"/>
        <pt x="557" y="1020" on="1"/>
        <pt x="646" y="1020" on="0"/>
        <pt x="788" y="973" on="0"/>
        <pt x="886" y="887" on="0"/>
        <pt x="938" y="765" on="0"/>
        <pt x="938" y="690" on="1"/>
        <pt x="938" y="603" on="0"/>
        <pt x="872" y="448" on="0"/>
        <pt x="757" y="332" on="0"/>
        <pt x="601" y="264" on="0"/>
        <pt x="512" y="264" on="1"/>
        <pt x="470" y="264" on="0"/>
        <pt x="399" y="280" on="0"/>
        <pt x="371" y="297" on="1"/>
        <pt x="360" y="371" on="1"/>
        <pt x="396" y="352" on="0"/>
        <pt x="464" y="342" on="0"/>
        <pt x="496" y="342" on="1"/>
        <pt x="564" y="342" on="0"/>
        <pt x="675" y="390" on="0"/>
        <pt x="754" y="473" on="0"/>
        <pt x="797" y="586" on="0"/>
        <pt x="797" y="651" on="1"/>
        <pt x="797" y="720" on="0"/>
        <pt x="751" y="827" on="0"/>
        <pt x="670" y="900" on="0"/>
        <pt x="560" y="938" on="0"/>
        <pt x="496" y="938" on="1"/>
        <pt x="473" y="938" on="0"/>
        <pt x="429" y="933" on="0"/>
        <pt x="407" y="928" on="1"/>
        <pt x="295" y="104" on="1"/>
        <pt x="293" y="98" on="0"/>
        <pt x="305" y="84" on="0"/>
        <pt x="339" y="68" on="0"/>
        <pt x="397" y="52" on="0"/>
        <pt x="442" y="43" on="1"/>
        <pt x="436" y="0" on="1"/>
        <pt x="4" y="0" on="1"/>
        <pt x="10" y="43" on="1"/>
        <pt x="73" y="57" on="0"/>
        <pt x="148" y="90" on="0"/>
        <pt x="150" y="104" on="1"/>
        <pt x="295" y="1155" on="1"/>
        <pt x="297" y="1167" on="0"/>
        <pt x="235" y="1203" on="0"/>
        <pt x="172" y="1217" on="1"/>
        <pt x="178" y="1260" on="1"/>
        <pt x="610" y="1260" on="1"/>
      </contour>
    </TTGlyph>
    <TTGlyph name="U" xMin="168" yMin="-31" xMax="1286" yMax="1260">
      <contour>
        <pt x="1280" y="1217" on="1"/>
        <pt x="1217" y="1203" on="0"/>
        <pt x="1147" y="1169" on="0"/>
        <pt x="1145" y="1155" on="1"/>
        <pt x="1055" y="512" on="1"/>
        <pt x="1037" y="381" on="0"/>
        <pt x="951" y="178" on="0"/>
        <pt x="823" y="40" on="0"/>
        <pt x="656" y="-31" on="0"/>
        <pt x="557" y="-31" on="1"/>
        <pt x="475" y="-31" on="0"/>
        <pt x="338" y="19" on="0"/>
        <pt x="240" y="115" on="0"/>
        <pt x="186" y="256" on="0"/>
        <pt x="186" y="348" on="1"/>
        <pt x="186" y="401" on="0"/>
        <pt x="195" y="463" on="1"/>
        <pt x="293" y="1155" on="1"/>
        <pt x="295" y="1167" on="0"/>
        <pt x="233" y="1203" on="0"/>
        <pt x="168" y="1217" on="1"/>
        <pt x="174" y="1260" on="1"/>
        <pt x="584" y="1260" on="1"/>
        <pt x="578" y="1217" on="1"/>
        <pt x="515" y="1203" on="0"/>
        <pt x="438" y="1169" on="0"/>
        <pt x="436" y="1155" on="1"/>
        <pt x="348" y="510" on="1"/>
        <pt x="344" y="481" on="0"/>
        <pt x="342" y="423" on="0"/>
        <pt x="342" y="397" on="1"/>
        <pt x="342" y="327" on="0"/>
        <pt x="376" y="213" on="0"/>
        <pt x="443" y="131" on="0"/>
        <pt x="543" y="86" on="0"/>
        <pt x="608" y="86" on="1"/>
        <pt x="673" y="86" on="0"/>
        <pt x="783" y="150" on="0"/>
        <pt x="867" y="256" on="0"/>
        <pt x="922" y="394" on="0"/>
        <pt x="932" y="469" on="1"/>
        <pt x="1024" y="1155" on="1"/>
        <pt x="1026" y="1167" on="0"/>
        <pt x="970" y="1203" on="0"/>
        <pt x="905" y="1217" on="1"/>
        <pt x="911" y="1260" on="1"/>
        <pt x="1286" y="1260" on="1"/>
      </contour>
    </TTGlyph>
    <TTGlyph name="Uacute" xMin="168" yMin="-31" xMax="1286" yMax="1708">
      <component glyphName="U" x="0" y="0" flags="0x0"/>
      <component glyphName="acutecomb.LP" x="1110" y="320" flags="0x0"/>
    </TTGlyph>
    <TTGlyph name="Ubreve" xMin="168" yMin="-31" xMax="1286" yMax="1698">
      <component glyphName="U" x="0" y="0" flags="0x0"/>
      <component glyphName="uni0306" x="1111" y="320" flags="0x0"/>
    </TTGlyph>
    <TTGlyph name="Ucircumflex" xMin="168" yMin="-31" xMax="1286" yMax="1692">
      <component glyphName="U" x="0" y="0" flags="0x0"/>
      <component glyphName="uni0302.LP" x="1109" y="320" flags="0x0"/>
    </TTGlyph>
    <TTGlyph name="Udieresis" xMin="168" yMin="-31" xMax="1286" yMax="1620">
      <component glyphName="U" x="0" y="0" flags="0x0"/>
      <component glyphName="uni0308.LP" x="1112" y="320" flags="0x0"/>
    </TTGlyph>
    <TTGlyph name="Ugrave" xMin="168" yMin="-31" xMax="1286" yMax="1708">
      <component glyphName="U" x="0" y="0" flags="0x0"/>
      <component glyphName="gravecomb.LP" x="1032" y="320" flags="0x0"/>
    </TTGlyph>
    <TTGlyph name="Uhorn" xMin="168" yMin="-31" xMax="1440" yMax="1498">
      <contour>
        <pt x="1440" y="1418" on="1"/>
        <pt x="1440" y="1368" on="0"/>
        <pt x="1392" y="1279" on="0"/>
        <pt x="1310" y="1203" on="0"/>
        <pt x="1201" y="1138" on="0"/>
        <pt x="1139" y="1112" on="1"/>
        <pt x="1055" y="512" on="1"/>
        <pt x="1037" y="381" on="0"/>
        <pt x="951" y="178" on="0"/>
        <pt x="823" y="40" on="0"/>
        <pt x="656" y="-31" on="0"/>
        <pt x="557" y="-31" on="1"/>
        <pt x="475" y="-31" on="0"/>
        <pt x="338" y="19" on="0"/>
        <pt x="240" y="115" on="0"/>
        <pt x="186" y="256" on="0"/>
        <pt x="186" y="348" on="1"/>
        <pt x="186" y="401" on="0"/>
        <pt x="195" y="463" on="1"/>
        <pt x="293" y="1155" on="1"/>
        <pt x="295" y="1167" on="0"/>
        <pt x="233" y="1203" on="0"/>
        <pt x="168" y="1217" on="1"/>
        <pt x="174" y="1260" on="1"/>
        <pt x="584" y="1260" on="1"/>
        <pt x="578" y="1217" on="1"/>
        <pt x="515" y="1203" on="0"/>
        <pt x="438" y="1169" on="0"/>
        <pt x="436" y="1155" on="1"/>
        <pt x="348" y="510" on="1"/>
        <pt x="344" y="481" on="0"/>
        <pt x="342" y="423" on="0"/>
        <pt x="342" y="397" on="1"/>
        <pt x="342" y="327" on="0"/>
        <pt x="376" y="213" on="0"/>
        <pt x="443" y="131" on="0"/>
        <pt x="543" y="86" on="0"/>
        <pt x="608" y="86" on="1"/>
        <pt x="673" y="86" on="0"/>
        <pt x="783" y="150" on="0"/>
        <pt x="867" y="256" on="0"/>
        <pt x="922" y="394" on="0"/>
        <pt x="932" y="469" on="1"/>
        <pt x="1024" y="1155" on="1"/>
        <pt x="1026" y="1167" on="0"/>
        <pt x="970" y="1203" on="0"/>
        <pt x="905" y="1217" on="1"/>
        <pt x="911" y="1260" on="1"/>
        <pt x="1252" y="1260" on="1"/>
        <pt x="1274" y="1295" on="0"/>
        <pt x="1274" y="1343" on="1"/>
        <pt x="1274" y="1361" on="0"/>
        <pt x="1258" y="1403" on="0"/>
        <pt x="1229" y="1418" on="1"/>
        <pt x="1397" y="1498" on="1"/>
        <pt x="1422" y="1483" on="0"/>
        <pt x="1440" y="1440" on="0"/>
      </contour>
    </TTGlyph>
    <TTGlyph name="Uhungarumlaut" xMin="168" yMin="-31" xMax="1286" yMax="1779">
      <component glyphName="U" x="0" y="0" flags="0x0"/>
      <component glyphName="uni030B" x="1118" y="320" flags="0x0"/>
    </TTGlyph>
    <TTGlyph name="Umacron" xMin="168" yMin="-31" xMax="1286" yMax="1570">
      <component glyphName="U" x="0" y="0" flags="0x0"/>
      <component glyphName="uni0304.LP" x="1122" y="320" flags="0x0"/>
    </TTGlyph>
    <TTGlyph name="Uring" xMin="168" yMin="-31" xMax="1286" yMax="1729">
      <component glyphName="U" x="0" y="0" flags="0x0"/>
      <component glyphName="uni030A" x="1111" y="320" flags="0x0"/>
    </TTGlyph>
    <TTGlyph name="Utilde" xMin="168" yMin="-31" xMax="1286" yMax="1633">
      <component glyphName="U" x="0" y="0" flags="0x0"/>
      <component glyphName="tildecomb.LP" x="1112" y="320" flags="0x0"/>
    </TTGlyph>
    <TTGlyph name="V" xMin="139" yMin="-31" xMax="1305" yMax="1260">
      <contour>
        <pt x="1298" y="1217" on="1"/>
        <pt x="1235" y="1204" on="0"/>
        <pt x="1160" y="1179" on="0"/>
        <pt x="1147" y="1151" on="1"/>
        <pt x="647" y="59" on="1"/>
        <pt x="637" y="37" on="0"/>
        <pt x="597" y="5" on="0"/>
        <pt x="551" y="-16" on="0"/>
        <pt x="508" y="-28" on="0"/>
        <pt x="496" y="-31" on="1"/>
        <pt x="256" y="1151" on="1"/>
        <pt x="251" y="1177" on="0"/>
        <pt x="198" y="1209" on="0"/>
        <pt x="139" y="1217" on="1"/>
        <pt x="145" y="1260" on="1"/>
        <pt x="543" y="1260" on="1"/>
        <pt x="537" y="1217" on="1"/>
        <pt x="465" y="1212" on="0"/>
        <pt x="405" y="1182" on="0"/>
        <pt x="412" y="1151" on="1"/>
        <pt x="602" y="195" on="1"/>
        <pt x="1042" y="1151" on="1"/>
        <pt x="1056" y="1180" on="0"/>
        <pt x="992" y="1207" on="0"/>
        <pt x="920" y="1217" on="1"/>
        <pt x="926" y="1260" on="1"/>
        <pt x="1305" y="1260" on="1"/>
      </contour>
    </TTGlyph>
    <TTGlyph name="W" xMin="129" yMin="-31" xMax="1669" yMax="1260">
      <contour>
        <pt x="1665" y="1217" on="1"/>
        <pt x="1636" y="1210" on="0"/>
        <pt x="1584" y="1198" on="0"/>
        <pt x="1544" y="1184" on="0"/>
        <pt x="1517" y="1167" on="0"/>
        <pt x="1513" y="1155" on="1"/>
        <pt x="1153" y="59" on="1"/>
        <pt x="1145" y="37" on="0"/>
        <pt x="1110" y="5" on="0"/>
        <pt x="1069" y="-16" on="0"/>
        <pt x="1028" y="-28" on="0"/>
        <pt x="1016" y="-31" on="1"/>
        <pt x="851" y="946" on="1"/>
        <pt x="467" y="59" on="1"/>
        <pt x="457" y="36" on="0"/>
        <pt x="417" y="5" on="0"/>
        <pt x="373" y="-16" on="0"/>
        <pt x="331" y="-28" on="0"/>
        <pt x="319" y="-31" on="1"/>
        <pt x="246" y="1147" on="1"/>
        <pt x="244" y="1172" on="0"/>
        <pt x="194" y="1204" on="0"/>
        <pt x="129" y="1217" on="1"/>
        <pt x="135" y="1260" on="1"/>
        <pt x="526" y="1260" on="1"/>
        <pt x="520" y="1217" on="1"/>
        <pt x="476" y="1212" on="0"/>
        <pt x="422" y="1197" on="0"/>
        <pt x="393" y="1179" on="0"/>
        <pt x="384" y="1158" on="0"/>
        <pt x="385" y="1147" on="1"/>
        <pt x="444" y="254" on="1"/>
        <pt x="881" y="1260" on="1"/>
        <pt x="936" y="1260" on="1"/>
        <pt x="1116" y="254" on="1"/>
        <pt x="1409" y="1155" on="1"/>
        <pt x="1413" y="1167" on="0"/>
        <pt x="1396" y="1185" on="0"/>
        <pt x="1360" y="1199" on="0"/>
        <pt x="1309" y="1211" on="0"/>
        <pt x="1278" y="1217" on="1"/>
        <pt x="1284" y="1260" on="1"/>
        <pt x="1669" y="1260" on="1"/>
      </contour>
    </TTGlyph>
    <TTGlyph name="Wacute" xMin="129" yMin="-31" xMax="1669" yMax="1708">
      <component glyphName="W" x="0" y="0" flags="0x0"/>
      <component glyphName="acutecomb.LP" x="1264" y="320" flags="0x0"/>
    </TTGlyph>
    <TTGlyph name="Wcircumflex" xMin="129" yMin="-31" xMax="1669" yMax="1692">
      <component glyphName="W" x="0" y="0" flags="0x0"/>
      <component glyphName="uni0302.LP" x="1263" y="320" flags="0x0"/>
    </TTGlyph>
    <TTGlyph name="Wdieresis" xMin="129" yMin="-31" xMax="1669" yMax="1620">
      <component glyphName="W" x="0" y="0" flags="0x0"/>
      <component glyphName="uni0308.LP" x="1266" y="320" flags="0x0"/>
    </TTGlyph>
    <TTGlyph name="Wgrave" xMin="129" yMin="-31" xMax="1669" yMax="1708">
      <component glyphName="W" x="0" y="0" flags="0x0"/>
      <component glyphName="gravecomb.LP" x="1186" y="320" flags="0x0"/>
    </TTGlyph>
    <TTGlyph name="X" xMin="-20" yMin="0" xMax="1202" yMax="1260">
      <contour>
        <pt x="1085" y="0" on="1"/>
        <pt x="674" y="0" on="1"/>
        <pt x="680" y="43" on="1"/>
        <pt x="720" y="47" on="0"/>
        <pt x="772" y="60" on="0"/>
        <pt x="797" y="79" on="0"/>
        <pt x="798" y="107" on="0"/>
        <pt x="788" y="127" on="1"/>
        <pt x="580" y="548" on="1"/>
        <pt x="287" y="127" on="1"/>
        <pt x="256" y="83" on="0"/>
        <pt x="314" y="49" on="0"/>
        <pt x="397" y="43" on="1"/>
        <pt x="391" y="0" on="1"/>
        <pt x="-20" y="0" on="1"/>
        <pt x="-14" y="43" on="1"/>
        <pt x="46" y="48" on="0"/>
        <pt x="136" y="85" on="0"/>
        <pt x="164" y="127" on="1"/>
        <pt x="528" y="654" on="1"/>
        <pt x="293" y="1133" on="1"/>
        <pt x="281" y="1155" on="0"/>
        <pt x="259" y="1183" on="0"/>
        <pt x="229" y="1201" on="0"/>
        <pt x="188" y="1212" on="0"/>
        <pt x="158" y="1217" on="1"/>
        <pt x="164" y="1260" on="1"/>
        <pt x="575" y="1260" on="1"/>
        <pt x="569" y="1217" on="1"/>
        <pt x="491" y="1209" on="0"/>
        <pt x="437" y="1177" on="0"/>
        <pt x="459" y="1133" on="1"/>
        <pt x="639" y="768" on="1"/>
        <pt x="895" y="1133" on="1"/>
        <pt x="911" y="1156" on="0"/>
        <pt x="911" y="1185" on="0"/>
        <pt x="881" y="1204" on="0"/>
        <pt x="824" y="1214" on="0"/>
        <pt x="784" y="1217" on="1"/>
        <pt x="791" y="1260" on="1"/>
        <pt x="1202" y="1260" on="1"/>
        <pt x="1196" y="1217" on="1"/>
        <pt x="1163" y="1213" on="0"/>
        <pt x="1111" y="1202" on="0"/>
        <pt x="1068" y="1183" on="0"/>
        <pt x="1033" y="1154" on="0"/>
        <pt x="1018" y="1133" on="1"/>
        <pt x="689" y="666" on="1"/>
        <pt x="956" y="127" on="1"/>
        <pt x="966" y="106" on="0"/>
        <pt x="992" y="77" on="0"/>
        <pt x="1025" y="58" on="0"/>
        <pt x="1066" y="47" on="0"/>
        <pt x="1092" y="43" on="1"/>
      </contour>
    </TTGlyph>
    <TTGlyph name="Y" xMin="102" yMin="0" xMax="1204" yMax="1276">
      <contour>
        <pt x="733" y="0" on="1"/>
        <pt x="287" y="0" on="1"/>
        <pt x="293" y="43" on="1"/>
        <pt x="380" y="62" on="0"/>
        <pt x="451" y="101" on="0"/>
        <pt x="453" y="115" on="1"/>
        <pt x="512" y="551" on="1"/>
        <pt x="494" y="624" on="0"/>
        <pt x="436" y="793" on="0"/>
        <pt x="367" y="958" on="0"/>
        <pt x="294" y="1105" on="0"/>
        <pt x="260" y="1155" on="1"/>
        <pt x="250" y="1170" on="0"/>
        <pt x="227" y="1188" on="0"/>
        <pt x="194" y="1197" on="0"/>
        <pt x="146" y="1196" on="0"/>
        <pt x="111" y="1192" on="1"/>
        <pt x="102" y="1235" on="1"/>
        <pt x="129" y="1242" on="0"/>
        <pt x="194" y="1256" on="0"/>
        <pt x="258" y="1268" on="0"/>
        <pt x="315" y="1276" on="0"/>
        <pt x="334" y="1276" on="1"/>
        <pt x="360" y="1276" on="0"/>
        <pt x="385" y="1237" on="1"/>
        <pt x="407" y="1204" on="0"/>
        <pt x="455" y="1114" on="0"/>
        <pt x="504" y="1011" on="0"/>
        <pt x="549" y="904" on="0"/>
        <pt x="588" y="801" on="0"/>
        <pt x="617" y="711" on="0"/>
        <pt x="625" y="678" on="1"/>
        <pt x="934" y="1151" on="1"/>
        <pt x="951" y="1179" on="0"/>
        <pt x="906" y="1207" on="0"/>
        <pt x="838" y="1217" on="1"/>
        <pt x="844" y="1260" on="1"/>
        <pt x="1204" y="1260" on="1"/>
        <pt x="1198" y="1217" on="1"/>
        <pt x="1135" y="1204" on="0"/>
        <pt x="1064" y="1177" on="0"/>
        <pt x="1047" y="1151" on="1"/>
        <pt x="657" y="542" on="1"/>
        <pt x="598" y="115" on="1"/>
        <pt x="597" y="109" on="0"/>
        <pt x="610" y="92" on="0"/>
        <pt x="643" y="72" on="0"/>
        <pt x="698" y="52" on="0"/>
        <pt x="739" y="43" on="1"/>
      </contour>
    </TTGlyph>
    <TTGlyph name="Yacute" xMin="102" yMin="0" xMax="1204" yMax="1708">
      <component glyphName="Y" x="0" y="0" flags="0x0"/>
      <component glyphName="acutecomb.LP" x="1040" y="320" flags="0x0"/>
    </TTGlyph>
    <TTGlyph name="Ycircumflex" xMin="102" yMin="0" xMax="1204" yMax="1692">
      <component glyphName="Y" x="0" y="0" flags="0x0"/>
      <component glyphName="uni0302.LP" x="1039" y="320" flags="0x0"/>
    </TTGlyph>
    <TTGlyph name="Ydieresis" xMin="102" yMin="0" xMax="1204" yMax="1620">
      <component glyphName="Y" x="0" y="0" flags="0x0"/>
      <component glyphName="uni0308.LP" x="1042" y="320" flags="0x0"/>
    </TTGlyph>
    <TTGlyph name="Ygrave" xMin="102" yMin="0" xMax="1204" yMax="1708">
      <component glyphName="Y" x="0" y="0" flags="0x0"/>
      <component glyphName="gravecomb.LP" x="962" y="320" flags="0x0"/>
    </TTGlyph>
    <TTGlyph name="Z" xMin="31" yMin="0" xMax="1024" yMax="1286">
      <contour>
        <pt x="242" y="100" on="1"/>
        <pt x="727" y="100" on="1"/>
        <pt x="747" y="100" on="0"/>
        <pt x="783" y="119" on="0"/>
        <pt x="820" y="168" on="0"/>
        <pt x="861" y="252" on="0"/>
        <pt x="887" y="317" on="1"/>
        <pt x="936" y="303" on="1"/>
        <pt x="930" y="270" on="0"/>
        <pt x="916" y="189" on="0"/>
        <pt x="902" y="106" on="0"/>
        <pt x="888" y="29" on="0"/>
        <pt x="883" y="0" on="1"/>
        <pt x="49" y="0" on="1"/>
        <pt x="31" y="45" on="1"/>
        <pt x="821" y="1167" on="1"/>
        <pt x="399" y="1167" on="1"/>
        <pt x="384" y="1167" on="0"/>
        <pt x="345" y="1145" on="0"/>
        <pt x="302" y="1097" on="0"/>
        <pt x="260" y="1019" on="0"/>
        <pt x="242" y="963" on="1"/>
        <pt x="190" y="975" on="1"/>
        <pt x="262" y="1286" on="1"/>
        <pt x="286" y="1276" on="0"/>
        <pt x="326" y="1266" on="0"/>
        <pt x="366" y="1261" on="0"/>
        <pt x="408" y="1260" on="0"/>
        <pt x="434" y="1260" on="1"/>
        <pt x="1006" y="1260" on="1"/>
        <pt x="1024" y="1214" on="1"/>
      </contour>
    </TTGlyph>
    <TTGlyph name="Zacute" xMin="31" yMin="0" xMax="1024" yMax="1708">
      <component glyphName="Z" x="0" y="0" flags="0x0"/>
      <component glyphName="acutecomb.LP" x="992" y="320" flags="0x0"/>
    </TTGlyph>
    <TTGlyph name="Zcaron" xMin="31" yMin="0" xMax="1024" yMax="1716">
      <component glyphName="Z" x="0" y="0" flags="0x0"/>
      <component glyphName="uni030C.LP" x="996" y="320" flags="0x0"/>
    </TTGlyph>
    <TTGlyph name="Zdotaccent" xMin="31" yMin="0" xMax="1024" yMax="1620">
      <component glyphName="Z" x="0" y="0" flags="0x0"/>
      <component glyphName="uni0307.LP" x="995" y="320" flags="0x0"/>
    </TTGlyph>
    <TTGlyph name="a" xMin="53" yMin="-41" xMax="901" yMax="936">
      <contour>
        <pt x="603" y="431" on="1"/>
        <pt x="610" y="476" on="0"/>
        <pt x="627" y="573" on="0"/>
        <pt x="644" y="663" on="0"/>
        <pt x="657" y="738" on="0"/>
        <pt x="661" y="760" on="1"/>
        <pt x="646" y="772" on="0"/>
        <pt x="610" y="797" on="0"/>
        <pt x="569" y="818" on="0"/>
        <pt x="524" y="831" on="0"/>
        <pt x="500" y="831" on="1"/>
        <pt x="454" y="831" on="0"/>
        <pt x="373" y="786" on="0"/>
        <pt x="304" y="712" on="0"/>
        <pt x="249" y="617" on="0"/>
        <pt x="211" y="516" on="0"/>
        <pt x="190" y="418" on="0"/>
        <pt x="190" y="379" on="1"/>
        <pt x="190" y="314" on="0"/>
        <pt x="212" y="210" on="0"/>
        <pt x="250" y="136" on="0"/>
        <pt x="302" y="96" on="0"/>
        <pt x="332" y="96" on="1"/>
        <pt x="356" y="96" on="0"/>
        <pt x="425" y="157" on="0"/>
        <pt x="500" y="254" on="0"/>
        <pt x="574" y="373" on="0"/>
      </contour>
      <contour>
        <pt x="901" y="68" on="1"/>
        <pt x="814" y="11" on="0"/>
        <pt x="707" y="-41" on="0"/>
        <pt x="678" y="-41" on="1"/>
        <pt x="660" y="-41" on="0"/>
        <pt x="627" y="-16" on="0"/>
        <pt x="601" y="53" on="0"/>
        <pt x="586" y="175" on="0"/>
        <pt x="586" y="272" on="1"/>
        <pt x="560" y="226" on="0"/>
        <pt x="485" y="117" on="0"/>
        <pt x="399" y="22" on="0"/>
        <pt x="308" y="-41" on="0"/>
        <pt x="266" y="-41" on="1"/>
        <pt x="233" y="-41" on="0"/>
        <pt x="158" y="-3" on="0"/>
        <pt x="95" y="80" on="0"/>
        <pt x="53" y="211" on="0"/>
        <pt x="53" y="305" on="1"/>
        <pt x="53" y="384" on="0"/>
        <pt x="90" y="535" on="0"/>
        <pt x="164" y="673" on="0"/>
        <pt x="271" y="794" on="0"/>
        <pt x="342" y="842" on="1"/>
        <pt x="369" y="860" on="0"/>
        <pt x="434" y="894" on="0"/>
        <pt x="503" y="920" on="0"/>
        <pt x="571" y="936" on="0"/>
        <pt x="602" y="936" on="1"/>
        <pt x="623" y="936" on="0"/>
        <pt x="663" y="925" on="0"/>
        <pt x="701" y="907" on="0"/>
        <pt x="735" y="886" on="0"/>
        <pt x="750" y="876" on="1"/>
        <pt x="773" y="893" on="0"/>
        <pt x="825" y="923" on="0"/>
        <pt x="852" y="936" on="1"/>
        <pt x="872" y="901" on="1"/>
        <pt x="855" y="887" on="0"/>
        <pt x="833" y="865" on="0"/>
        <pt x="816" y="836" on="0"/>
        <pt x="804" y="794" on="0"/>
        <pt x="797" y="760" on="1"/>
        <pt x="782" y="688" on="0"/>
        <pt x="755" y="537" on="0"/>
        <pt x="736" y="403" on="0"/>
        <pt x="725" y="301" on="0"/>
        <pt x="725" y="279" on="1"/>
        <pt x="725" y="222" on="0"/>
        <pt x="732" y="144" on="0"/>
        <pt x="744" y="97" on="0"/>
        <pt x="762" y="76" on="0"/>
        <pt x="774" y="76" on="1"/>
        <pt x="794" y="76" on="0"/>
        <pt x="849" y="87" on="0"/>
        <pt x="889" y="104" on="1"/>
      </contour>
    </TTGlyph>
    <TTGlyph name="a.SngStory" xMin="53" yMin="-41" xMax="901" yMax="936">
      <contour>
        <pt x="603" y="431" on="1"/>
        <pt x="610" y="476" on="0"/>
        <pt x="627" y="573" on="0"/>
        <pt x="644" y="663" on="0"/>
        <pt x="657" y="738" on="0"/>
        <pt x="661" y="760" on="1"/>
        <pt x="646" y="772" on="0"/>
        <pt x="610" y="797" on="0"/>
        <pt x="569" y="818" on="0"/>
        <pt x="524" y="831" on="0"/>
        <pt x="500" y="831" on="1"/>
        <pt x="454" y="831" on="0"/>
        <pt x="373" y="786" on="0"/>
        <pt x="304" y="712" on="0"/>
        <pt x="249" y="617" on="0"/>
        <pt x="211" y="516" on="0"/>
        <pt x="190" y="418" on="0"/>
        <pt x="190" y="379" on="1"/>
        <pt x="190" y="314" on="0"/>
        <pt x="212" y="210" on="0"/>
        <pt x="250" y="136" on="0"/>
        <pt x="302" y="96" on="0"/>
        <pt x="332" y="96" on="1"/>
        <pt x="356" y="96" on="0"/>
        <pt x="425" y="157" on="0"/>
        <pt x="500" y="254" on="0"/>
        <pt x="574" y="373" on="0"/>
      </contour>
      <contour>
        <pt x="901" y="68" on="1"/>
        <pt x="814" y="11" on="0"/>
        <pt x="707" y="-41" on="0"/>
        <pt x="678" y="-41" on="1"/>
        <pt x="660" y="-41" on="0"/>
        <pt x="627" y="-16" on="0"/>
        <pt x="601" y="53" on="0"/>
        <pt x="586" y="175" on="0"/>
        <pt x="586" y="272" on="1"/>
        <pt x="560" y="226" on="0"/>
        <pt x="485" y="117" on="0"/>
        <pt x="399" y="22" on="0"/>
        <pt x="308" y="-41" on="0"/>
        <pt x="266" y="-41" on="1"/>
        <pt x="233" y="-41" on="0"/>
        <pt x="158" y="-3" on="0"/>
        <pt x="95" y="80" on="0"/>
        <pt x="53" y="211" on="0"/>
        <pt x="53" y="305" on="1"/>
        <pt x="53" y="384" on="0"/>
        <pt x="90" y="535" on="0"/>
        <pt x="164" y="673" on="0"/>
        <pt x="271" y="794" on="0"/>
        <pt x="342" y="842" on="1"/>
        <pt x="369" y="860" on="0"/>
        <pt x="434" y="894" on="0"/>
        <pt x="503" y="920" on="0"/>
        <pt x="571" y="936" on="0"/>
        <pt x="602" y="936" on="1"/>
        <pt x="623" y="936" on="0"/>
        <pt x="663" y="925" on="0"/>
        <pt x="701" y="907" on="0"/>
        <pt x="735" y="886" on="0"/>
        <pt x="750" y="876" on="1"/>
        <pt x="773" y="893" on="0"/>
        <pt x="825" y="923" on="0"/>
        <pt x="852" y="936" on="1"/>
        <pt x="872" y="901" on="1"/>
        <pt x="855" y="887" on="0"/>
        <pt x="833" y="865" on="0"/>
        <pt x="816" y="836" on="0"/>
        <pt x="804" y="794" on="0"/>
        <pt x="797" y="760" on="1"/>
        <pt x="782" y="688" on="0"/>
        <pt x="755" y="537" on="0"/>
        <pt x="736" y="403" on="0"/>
        <pt x="725" y="301" on="0"/>
        <pt x="725" y="279" on="1"/>
        <pt x="725" y="222" on="0"/>
        <pt x="732" y="144" on="0"/>
        <pt x="744" y="97" on="0"/>
        <pt x="762" y="76" on="0"/>
        <pt x="774" y="76" on="1"/>
        <pt x="794" y="76" on="0"/>
        <pt x="849" y="87" on="0"/>
        <pt x="889" y="104" on="1"/>
      </contour>
    </TTGlyph>
    <TTGlyph name="aacute" xMin="53" yMin="-41" xMax="901" yMax="1459">
      <component glyphName="a" x="0" y="0" flags="0x0"/>
      <component glyphName="acutecomb" x="903" y="0" flags="0x0"/>
    </TTGlyph>
    <TTGlyph name="aacute.SngStory" xMin="53" yMin="-41" xMax="901" yMax="1459">
      <component glyphName="a.SngStory" x="0" y="0" flags="0x0"/>
      <component glyphName="acutecomb" x="903" y="0" flags="0x0"/>
    </TTGlyph>
    <TTGlyph name="abreve" xMin="53" yMin="-41" xMax="901" yMax="1378">
      <component glyphName="a" x="0" y="0" flags="0x0"/>
      <component glyphName="uni0306" x="904" y="0" flags="0x0"/>
    </TTGlyph>
    <TTGlyph name="abreve.SngStory" xMin="53" yMin="-41" xMax="901" yMax="1378">
      <component glyphName="a.SngStory" x="0" y="0" flags="0x0"/>
      <component glyphName="uni0306" x="904" y="0" flags="0x0"/>
    </TTGlyph>
    <TTGlyph name="acircumflex" xMin="53" yMin="-41" xMax="901" yMax="1442">
      <component glyphName="a" x="0" y="0" flags="0x0"/>
      <component glyphName="uni0302" x="902" y="0" flags="0x0"/>
    </TTGlyph>
    <TTGlyph name="acircumflex.SngStory" xMin="53" yMin="-41" xMax="901" yMax="1442">
      <component glyphName="a.SngStory" x="0" y="0" flags="0x0"/>
      <component glyphName="uni0302" x="902" y="0" flags="0x0"/>
    </TTGlyph>
    <TTGlyph name="acute" xMin="172" yMin="1026" xMax="572" yMax="1459">
      <contour>
        <pt x="572" y="1374" on="1"/>
        <pt x="217" y="1026" on="1"/>
        <pt x="201" y="1030" on="0"/>
        <pt x="186" y="1044" on="0"/>
        <pt x="172" y="1061" on="1"/>
        <pt x="444" y="1459" on="1"/>
        <pt x="454" y="1456" on="0"/>
        <pt x="485" y="1447" on="0"/>
        <pt x="519" y="1436" on="0"/>
        <pt x="549" y="1424" on="0"/>
        <pt x="557" y="1419" on="1"/>
      </contour>
    </TTGlyph>
    <TTGlyph name="acutecomb" xMin="-408" yMin="1026" xMax="-8" yMax="1459">
      <contour>
        <pt x="-8" y="1374" on="1"/>
        <pt x="-363" y="1026" on="1"/>
        <pt x="-379" y="1030" on="0"/>
        <pt x="-394" y="1044" on="0"/>
        <pt x="-408" y="1061" on="1"/>
        <pt x="-136" y="1459" on="1"/>
        <pt x="-126" y="1456" on="0"/>
        <pt x="-95" y="1447" on="0"/>
        <pt x="-61" y="1436" on="0"/>
        <pt x="-31" y="1424" on="0"/>
        <pt x="-23" y="1419" on="1"/>
      </contour>
    </TTGlyph>
    <TTGlyph name="acutecomb.LP" xMin="-504" yMin="1026" xMax="-16" yMax="1388">
      <contour>
        <pt x="-16" y="1270" on="1"/>
        <pt x="-471" y="1026" on="1"/>
        <pt x="-485" y="1035" on="0"/>
        <pt x="-495" y="1053" on="0"/>
        <pt x="-504" y="1073" on="1"/>
        <pt x="-113" y="1388" on="1"/>
        <pt x="-90" y="1373" on="1"/>
        <pt x="-77" y="1364" on="0"/>
        <pt x="-48" y="1344" on="0"/>
        <pt x="-22" y="1324" on="0"/>
        <pt x="-16" y="1317" on="1"/>
      </contour>
    </TTGlyph>
    <TTGlyph name="adieresis" xMin="53" yMin="-41" xMax="901" yMax="1333">
      <component glyphName="a" x="0" y="0" flags="0x0"/>
      <component glyphName="uni0308" x="905" y="0" flags="0x0"/>
    </TTGlyph>
    <TTGlyph name="adieresis.SngStory" xMin="53" yMin="-41" xMax="901" yMax="1333">
      <component glyphName="a.SngStory" x="0" y="0" flags="0x0"/>
      <component glyphName="uni0308" x="905" y="0" flags="0x0"/>
    </TTGlyph>
    <TTGlyph name="ae" xMin="53" yMin="-41" xMax="1270" yMax="936">
      <contour>
        <pt x="911" y="782" on="1"/>
        <pt x="878" y="752" on="0"/>
        <pt x="815" y="666" on="0"/>
        <pt x="764" y="566" on="0"/>
        <pt x="730" y="457" on="0"/>
        <pt x="726" y="404" on="1"/>
        <pt x="857" y="455" on="0"/>
        <pt x="1010" y="538" on="0"/>
        <pt x="1088" y="612" on="0"/>
        <pt x="1110" y="680" on="0"/>
        <pt x="1110" y="715" on="1"/>
        <pt x="1110" y="746" on="0"/>
        <pt x="1094" y="791" on="0"/>
        <pt x="1068" y="818" on="0"/>
        <pt x="1035" y="831" on="0"/>
        <pt x="1018" y="831" on="1"/>
        <pt x="1002" y="831" on="0"/>
        <pt x="940" y="808" on="0"/>
      </contour>
      <contour>
        <pt x="599" y="443" on="1"/>
        <pt x="606" y="488" on="0"/>
        <pt x="621" y="586" on="0"/>
        <pt x="635" y="674" on="0"/>
        <pt x="646" y="743" on="0"/>
        <pt x="649" y="760" on="1"/>
        <pt x="649" y="762" on="1"/>
        <pt x="634" y="774" on="0"/>
        <pt x="598" y="798" on="0"/>
        <pt x="558" y="818" on="0"/>
        <pt x="513" y="831" on="0"/>
        <pt x="489" y="831" on="1"/>
        <pt x="443" y="831" on="0"/>
        <pt x="364" y="786" on="0"/>
        <pt x="297" y="712" on="0"/>
        <pt x="245" y="617" on="0"/>
        <pt x="209" y="516" on="0"/>
        <pt x="190" y="418" on="0"/>
        <pt x="190" y="379" on="1"/>
        <pt x="190" y="314" on="0"/>
        <pt x="211" y="210" on="0"/>
        <pt x="247" y="136" on="0"/>
        <pt x="297" y="96" on="0"/>
        <pt x="326" y="96" on="1"/>
        <pt x="350" y="96" on="0"/>
        <pt x="420" y="160" on="0"/>
        <pt x="496" y="261" on="0"/>
        <pt x="570" y="384" on="0"/>
      </contour>
      <contour>
        <pt x="862" y="901" on="1"/>
        <pt x="847" y="889" on="0"/>
        <pt x="826" y="868" on="0"/>
        <pt x="811" y="844" on="0"/>
        <pt x="798" y="812" on="0"/>
        <pt x="792" y="787" on="1"/>
        <pt x="824" y="818" on="0"/>
        <pt x="860" y="846" on="1"/>
        <pt x="884" y="864" on="0"/>
        <pt x="943" y="897" on="0"/>
        <pt x="1006" y="922" on="0"/>
        <pt x="1071" y="936" on="0"/>
        <pt x="1102" y="936" on="1"/>
        <pt x="1145" y="936" on="0"/>
        <pt x="1208" y="905" on="0"/>
        <pt x="1250" y="855" on="0"/>
        <pt x="1270" y="792" on="0"/>
        <pt x="1270" y="760" on="1"/>
        <pt x="1270" y="732" on="0"/>
        <pt x="1257" y="670" on="0"/>
        <pt x="1216" y="604" on="0"/>
        <pt x="1143" y="532" on="0"/>
        <pt x="1022" y="455" on="0"/>
        <pt x="848" y="372" on="0"/>
        <pt x="727" y="327" on="1"/>
        <pt x="733" y="271" on="0"/>
        <pt x="768" y="179" on="0"/>
        <pt x="815" y="113" on="0"/>
        <pt x="870" y="76" on="0"/>
        <pt x="897" y="76" on="1"/>
        <pt x="918" y="76" on="0"/>
        <pt x="978" y="85" on="0"/>
        <pt x="1057" y="115" on="0"/>
        <pt x="1156" y="173" on="0"/>
        <pt x="1217" y="221" on="1"/>
        <pt x="1228" y="215" on="0"/>
        <pt x="1242" y="188" on="0"/>
        <pt x="1247" y="180" on="1"/>
        <pt x="1164" y="109" on="0"/>
        <pt x="1039" y="22" on="0"/>
        <pt x="940" y="-25" on="0"/>
        <pt x="861" y="-41" on="0"/>
        <pt x="825" y="-41" on="1"/>
        <pt x="793" y="-41" on="0"/>
        <pt x="714" y="-8" on="0"/>
        <pt x="642" y="66" on="0"/>
        <pt x="590" y="185" on="0"/>
        <pt x="585" y="270" on="1"/>
        <pt x="559" y="224" on="0"/>
        <pt x="482" y="116" on="0"/>
        <pt x="394" y="22" on="0"/>
        <pt x="302" y="-41" on="0"/>
        <pt x="262" y="-41" on="1"/>
        <pt x="228" y="-41" on="0"/>
        <pt x="154" y="-3" on="0"/>
        <pt x="93" y="80" on="0"/>
        <pt x="53" y="211" on="0"/>
        <pt x="53" y="305" on="1"/>
        <pt x="53" y="384" on="0"/>
        <pt x="88" y="535" on="0"/>
        <pt x="159" y="673" on="0"/>
        <pt x="266" y="794" on="0"/>
        <pt x="338" y="842" on="1"/>
        <pt x="365" y="860" on="0"/>
        <pt x="428" y="894" on="0"/>
        <pt x="494" y="920" on="0"/>
        <pt x="561" y="936" on="0"/>
        <pt x="592" y="936" on="1"/>
        <pt x="613" y="936" on="0"/>
        <pt x="653" y="925" on="0"/>
        <pt x="691" y="907" on="0"/>
        <pt x="727" y="885" on="0"/>
        <pt x="743" y="875" on="1"/>
        <pt x="766" y="892" on="0"/>
        <pt x="816" y="923" on="0"/>
        <pt x="842" y="936" on="1"/>
      </contour>
    </TTGlyph>
    <TTGlyph name="aeacute" xMin="53" yMin="-41" xMax="1270" yMax="1459">
      <component glyphName="ae" x="0" y="0" flags="0x0"/>
      <component glyphName="acutecomb" x="1103" y="0" flags="0x0"/>
    </TTGlyph>
    <TTGlyph name="agrave" xMin="53" yMin="-41" xMax="901" yMax="1459">
      <component glyphName="a" x="0" y="0" flags="0x0"/>
      <component glyphName="gravecomb" x="825" y="0" flags="0x0"/>
    </TTGlyph>
    <TTGlyph name="agrave.SngStory" xMin="53" yMin="-41" xMax="901" yMax="1459">
      <component glyphName="a.SngStory" x="0" y="0" flags="0x0"/>
      <component glyphName="gravecomb" x="825" y="0" flags="0x0"/>
    </TTGlyph>
    <TTGlyph name="amacron" xMin="53" yMin="-41" xMax="901" yMax="1283">
      <component glyphName="a" x="0" y="0" flags="0x0"/>
      <component glyphName="uni0304" x="915" y="0" flags="0x0"/>
    </TTGlyph>
    <TTGlyph name="amacron.SngStory" xMin="53" yMin="-41" xMax="901" yMax="1283">
      <component glyphName="a.SngStory" x="0" y="0" flags="0x0"/>
      <component glyphName="uni0304" x="915" y="0" flags="0x0"/>
    </TTGlyph>
    <TTGlyph name="ampersand" xMin="55" yMin="-31" xMax="1274" yMax="1450">
      <contour>
        <pt x="516" y="1130" on="1"/>
        <pt x="508" y="1073" on="0"/>
        <pt x="521" y="947" on="0"/>
        <pt x="538" y="881" on="1"/>
        <pt x="605" y="921" on="0"/>
        <pt x="695" y="994" on="0"/>
        <pt x="752" y="1063" on="0"/>
        <pt x="781" y="1129" on="0"/>
        <pt x="786" y="1161" on="1"/>
        <pt x="793" y="1198" on="0"/>
        <pt x="789" y="1264" on="0"/>
        <pt x="764" y="1314" on="0"/>
        <pt x="715" y="1343" on="0"/>
        <pt x="678" y="1343" on="1"/>
        <pt x="642" y="1343" on="0"/>
        <pt x="586" y="1306" on="0"/>
        <pt x="546" y="1246" on="0"/>
        <pt x="521" y="1169" on="0"/>
      </contour>
      <contour>
        <pt x="446" y="84" on="1"/>
        <pt x="526" y="84" on="0"/>
        <pt x="663" y="135" on="0"/>
        <pt x="720" y="177" on="1"/>
        <pt x="681" y="229" on="0"/>
        <pt x="602" y="352" on="0"/>
        <pt x="529" y="487" on="0"/>
        <pt x="464" y="631" on="0"/>
        <pt x="440" y="705" on="1"/>
        <pt x="385" y="662" on="0"/>
        <pt x="306" y="583" on="0"/>
        <pt x="252" y="505" on="0"/>
        <pt x="221" y="426" on="0"/>
        <pt x="215" y="383" on="1"/>
        <pt x="206" y="313" on="0"/>
        <pt x="238" y="202" on="0"/>
        <pt x="304" y="125" on="0"/>
        <pt x="396" y="84" on="0"/>
      </contour>
      <contour>
        <pt x="1274" y="748" on="1"/>
        <pt x="1248" y="717" on="0"/>
        <pt x="1198" y="676" on="0"/>
        <pt x="1174" y="659" on="1"/>
        <pt x="1159" y="668" on="0"/>
        <pt x="1119" y="682" on="0"/>
        <pt x="1079" y="693" on="0"/>
        <pt x="1039" y="699" on="0"/>
        <pt x="1024" y="700" on="1"/>
        <pt x="1031" y="682" on="0"/>
        <pt x="1038" y="648" on="0"/>
        <pt x="1040" y="607" on="0"/>
        <pt x="1036" y="556" on="0"/>
        <pt x="1032" y="522" on="1"/>
        <pt x="1022" y="453" on="0"/>
        <pt x="949" y="300" on="0"/>
        <pt x="891" y="228" on="1"/>
        <pt x="915" y="199" on="0"/>
        <pt x="960" y="148" on="0"/>
        <pt x="981" y="127" on="1"/>
        <pt x="1012" y="95" on="0"/>
        <pt x="1089" y="74" on="0"/>
        <pt x="1143" y="88" on="1"/>
        <pt x="1145" y="45" on="1"/>
        <pt x="1060" y="7" on="0"/>
        <pt x="950" y="-31" on="0"/>
        <pt x="930" y="-31" on="1"/>
        <pt x="910" y="-31" on="0"/>
        <pt x="827" y="44" on="0"/>
        <pt x="773" y="110" on="1"/>
        <pt x="695" y="47" on="0"/>
        <pt x="508" y="-31" on="0"/>
        <pt x="403" y="-31" on="1"/>
        <pt x="319" y="-31" on="0"/>
        <pt x="184" y="22" on="0"/>
        <pt x="94" y="122" on="0"/>
        <pt x="55" y="269" on="0"/>
        <pt x="68" y="362" on="1"/>
        <pt x="75" y="419" on="0"/>
        <pt x="130" y="534" on="0"/>
        <pt x="219" y="645" on="0"/>
        <pt x="339" y="752" on="0"/>
        <pt x="412" y="802" on="1"/>
        <pt x="395" y="873" on="0"/>
        <pt x="384" y="1009" on="0"/>
        <pt x="393" y="1073" on="1"/>
        <pt x="404" y="1154" on="0"/>
        <pt x="470" y="1292" on="0"/>
        <pt x="565" y="1393" on="0"/>
        <pt x="681" y="1450" on="0"/>
        <pt x="741" y="1450" on="1"/>
        <pt x="798" y="1450" on="0"/>
        <pt x="873" y="1407" on="0"/>
        <pt x="914" y="1336" on="0"/>
        <pt x="925" y="1244" on="0"/>
        <pt x="918" y="1194" on="1"/>
        <pt x="902" y="1092" on="0"/>
        <pt x="748" y="912" on="0"/>
        <pt x="633" y="838" on="1"/>
        <pt x="564" y="794" on="1"/>
        <pt x="587" y="728" on="0"/>
        <pt x="649" y="596" on="0"/>
        <pt x="721" y="468" on="0"/>
        <pt x="799" y="349" on="0"/>
        <pt x="838" y="297" on="1"/>
        <pt x="870" y="342" on="0"/>
        <pt x="910" y="437" on="0"/>
        <pt x="918" y="481" on="1"/>
        <pt x="925" y="529" on="0"/>
        <pt x="910" y="611" on="0"/>
        <pt x="876" y="671" on="0"/>
        <pt x="828" y="705" on="0"/>
        <pt x="801" y="705" on="1"/>
        <pt x="784" y="733" on="1"/>
        <pt x="797" y="746" on="0"/>
        <pt x="838" y="776" on="0"/>
        <pt x="858" y="784" on="1"/>
        <pt x="1257" y="784" on="1"/>
      </contour>
    </TTGlyph>
    <TTGlyph name="approxequal" xMin="50" yMin="314" xMax="810" yMax="817">
      <contour>
        <pt x="772" y="475" on="1"/>
        <pt x="660" y="317" on="0"/>
        <pt x="536" y="317" on="1"/>
        <pt x="499" y="317" on="0"/>
        <pt x="427" y="347" on="0"/>
        <pt x="356" y="383" on="0"/>
        <pt x="285" y="413" on="0"/>
        <pt x="249" y="413" on="1"/>
        <pt x="208" y="413" on="0"/>
        <pt x="135" y="360" on="0"/>
        <pt x="89" y="314" on="1"/>
        <pt x="50" y="368" on="1"/>
        <pt x="161" y="527" on="0"/>
        <pt x="285" y="527" on="1"/>
        <pt x="325" y="527" on="0"/>
        <pt x="403" y="497" on="0"/>
        <pt x="477" y="461" on="0"/>
        <pt x="543" y="431" on="0"/>
        <pt x="571" y="431" on="1"/>
        <pt x="591" y="431" on="0"/>
        <pt x="634" y="447" on="0"/>
        <pt x="676" y="475" on="0"/>
        <pt x="715" y="512" on="0"/>
        <pt x="731" y="532" on="1"/>
      </contour>
      <contour>
        <pt x="810" y="760" on="1"/>
        <pt x="697" y="601" on="0"/>
        <pt x="574" y="601" on="1"/>
        <pt x="537" y="601" on="0"/>
        <pt x="465" y="631" on="0"/>
        <pt x="394" y="667" on="0"/>
        <pt x="323" y="697" on="0"/>
        <pt x="287" y="697" on="1"/>
        <pt x="246" y="697" on="0"/>
        <pt x="173" y="645" on="0"/>
        <pt x="127" y="598" on="1"/>
        <pt x="87" y="652" on="1"/>
        <pt x="199" y="812" on="0"/>
        <pt x="323" y="812" on="1"/>
        <pt x="363" y="812" on="0"/>
        <pt x="441" y="782" on="0"/>
        <pt x="514" y="746" on="0"/>
        <pt x="580" y="716" on="0"/>
        <pt x="608" y="716" on="1"/>
        <pt x="628" y="716" on="0"/>
        <pt x="672" y="732" on="0"/>
        <pt x="714" y="760" on="0"/>
        <pt x="753" y="797" on="0"/>
        <pt x="769" y="817" on="1"/>
      </contour>
    </TTGlyph>
    <TTGlyph name="aring" xMin="53" yMin="-41" xMax="901" yMax="1409">
      <component glyphName="a" x="0" y="0" flags="0x0"/>
      <component glyphName="uni030A" x="904" y="0" flags="0x0"/>
    </TTGlyph>
    <TTGlyph name="aring.SngStory" xMin="53" yMin="-41" xMax="901" yMax="1409">
      <component glyphName="a.SngStory" x="0" y="0" flags="0x0"/>
      <component glyphName="uni030A" x="904" y="0" flags="0x0"/>
    </TTGlyph>
    <TTGlyph name="aringacute" xMin="53" yMin="-41" xMax="949" yMax="1879">
      <component glyphName="a" x="0" y="0" flags="0x0"/>
      <component glyphName="uni030A" x="904" y="0" flags="0x0"/>
      <component glyphName="acutecomb" x="957" y="420" flags="0x0"/>
    </TTGlyph>
    <TTGlyph name="aringacute.SngStory" xMin="53" yMin="-41" xMax="949" yMax="1879">
      <component glyphName="a.SngStory" x="0" y="0" flags="0x0"/>
      <component glyphName="uni030A" x="904" y="0" flags="0x0"/>
      <component glyphName="acutecomb" x="957" y="420" flags="0x0"/>
    </TTGlyph>
    <TTGlyph name="asciicircum" xMin="94" yMin="565" xMax="854" yMax="1550">
      <contour>
        <pt x="854" y="635" on="1"/>
        <pt x="826" y="612" on="0"/>
        <pt x="777" y="581" on="0"/>
        <pt x="743" y="565" on="1"/>
        <pt x="713" y="592" on="1"/>
        <pt x="553" y="1315" on="1"/>
        <pt x="223" y="635" on="1"/>
        <pt x="212" y="625" on="0"/>
        <pt x="182" y="604" on="0"/>
        <pt x="151" y="585" on="0"/>
        <pt x="123" y="570" on="0"/>
        <pt x="113" y="565" on="1"/>
        <pt x="94" y="592" on="1"/>
        <pt x="516" y="1462" on="1"/>
        <pt x="529" y="1474" on="0"/>
        <pt x="565" y="1499" on="0"/>
        <pt x="603" y="1523" on="0"/>
        <pt x="639" y="1543" on="0"/>
        <pt x="653" y="1550" on="1"/>
      </contour>
    </TTGlyph>
    <TTGlyph name="asciitilde" xMin="90" yMin="475" xMax="964" yMax="799">
      <contour>
        <pt x="964" y="774" on="1"/>
        <pt x="937" y="725" on="0"/>
        <pt x="863" y="620" on="0"/>
        <pt x="778" y="533" on="0"/>
        <pt x="687" y="477" on="0"/>
        <pt x="643" y="477" on="1"/>
        <pt x="603" y="477" on="0"/>
        <pt x="522" y="527" on="0"/>
        <pt x="440" y="587" on="0"/>
        <pt x="359" y="637" on="0"/>
        <pt x="319" y="637" on="1"/>
        <pt x="273" y="637" on="0"/>
        <pt x="184" y="559" on="0"/>
        <pt x="135" y="475" on="1"/>
        <pt x="90" y="502" on="1"/>
        <pt x="116" y="551" on="0"/>
        <pt x="190" y="656" on="0"/>
        <pt x="276" y="743" on="0"/>
        <pt x="367" y="799" on="0"/>
        <pt x="411" y="799" on="1"/>
        <pt x="454" y="799" on="0"/>
        <pt x="537" y="749" on="0"/>
        <pt x="618" y="689" on="0"/>
        <pt x="695" y="639" on="0"/>
        <pt x="733" y="639" on="1"/>
        <pt x="778" y="639" on="0"/>
        <pt x="868" y="717" on="0"/>
        <pt x="919" y="799" on="1"/>
      </contour>
    </TTGlyph>
    <TTGlyph name="asterisk" xMin="-6" yMin="709" xMax="764" yMax="1561">
      <contour>
        <pt x="415" y="1188" on="1"/>
        <pt x="686" y="1384" on="1"/>
        <pt x="695" y="1377" on="0"/>
        <pt x="717" y="1361" on="0"/>
        <pt x="740" y="1343" on="0"/>
        <pt x="759" y="1325" on="0"/>
        <pt x="764" y="1317" on="1"/>
        <pt x="760" y="1276" on="1"/>
        <pt x="436" y="1134" on="1"/>
        <pt x="698" y="1006" on="1"/>
        <pt x="693" y="981" on="0"/>
        <pt x="681" y="913" on="0"/>
        <pt x="672" y="891" on="1"/>
        <pt x="635" y="868" on="1"/>
        <pt x="401" y="1081" on="1"/>
        <pt x="391" y="756" on="1"/>
        <pt x="380" y="750" on="0"/>
        <pt x="352" y="735" on="0"/>
        <pt x="324" y="722" on="0"/>
        <pt x="297" y="711" on="0"/>
        <pt x="287" y="709" on="1"/>
        <pt x="256" y="727" on="1"/>
        <pt x="343" y="1079" on="1"/>
        <pt x="72" y="883" on="1"/>
        <pt x="53" y="897" on="0"/>
        <pt x="5" y="935" on="0"/>
        <pt x="-6" y="950" on="1"/>
        <pt x="0" y="993" on="1"/>
        <pt x="321" y="1133" on="1"/>
        <pt x="59" y="1262" on="1"/>
        <pt x="62" y="1274" on="0"/>
        <pt x="67" y="1305" on="0"/>
        <pt x="74" y="1337" on="0"/>
        <pt x="81" y="1366" on="0"/>
        <pt x="86" y="1376" on="1"/>
        <pt x="123" y="1399" on="1"/>
        <pt x="356" y="1188" on="1"/>
        <pt x="367" y="1513" on="1"/>
        <pt x="377" y="1519" on="0"/>
        <pt x="404" y="1533" on="0"/>
        <pt x="433" y="1547" on="0"/>
        <pt x="460" y="1558" on="0"/>
        <pt x="471" y="1561" on="1"/>
        <pt x="504" y="1540" on="1"/>
      </contour>
    </TTGlyph>
    <TTGlyph name="at" xMin="55" yMin="-375" xMax="1528" yMax="1333">
      <contour>
        <pt x="1161" y="842" on="1"/>
        <pt x="1159" y="840" on="1"/>
        <pt x="1152" y="826" on="0"/>
        <pt x="1142" y="788" on="0"/>
        <pt x="1137" y="760" on="1"/>
        <pt x="1122" y="688" on="0"/>
        <pt x="1096" y="537" on="0"/>
        <pt x="1077" y="403" on="0"/>
        <pt x="1067" y="301" on="0"/>
        <pt x="1067" y="279" on="1"/>
        <pt x="1067" y="222" on="0"/>
        <pt x="1077" y="150" on="0"/>
        <pt x="1094" y="109" on="0"/>
        <pt x="1116" y="94" on="0"/>
        <pt x="1128" y="94" on="1"/>
        <pt x="1153" y="94" on="0"/>
        <pt x="1230" y="160" on="0"/>
        <pt x="1306" y="274" on="0"/>
        <pt x="1369" y="425" on="0"/>
        <pt x="1382" y="510" on="1"/>
        <pt x="1399" y="623" on="0"/>
        <pt x="1383" y="815" on="0"/>
        <pt x="1326" y="971" on="0"/>
        <pt x="1235" y="1091" on="0"/>
        <pt x="1118" y="1172" on="0"/>
        <pt x="981" y="1214" on="0"/>
        <pt x="907" y="1214" on="1"/>
        <pt x="814" y="1214" on="0"/>
        <pt x="649" y="1159" on="0"/>
        <pt x="507" y="1061" on="0"/>
        <pt x="390" y="927" on="0"/>
        <pt x="301" y="769" on="0"/>
        <pt x="242" y="594" on="0"/>
        <pt x="229" y="504" on="1"/>
        <pt x="204" y="322" on="0"/>
        <pt x="273" y="40" on="0"/>
        <pt x="430" y="-155" on="0"/>
        <pt x="660" y="-256" on="0"/>
        <pt x="795" y="-256" on="1"/>
        <pt x="870" y="-256" on="0"/>
        <pt x="1018" y="-221" on="0"/>
        <pt x="1148" y="-168" on="0"/>
        <pt x="1252" y="-108" on="0"/>
        <pt x="1284" y="-82" on="1"/>
        <pt x="1300" y="-137" on="1"/>
        <pt x="1262" y="-175" on="0"/>
        <pt x="1147" y="-259" on="0"/>
        <pt x="1001" y="-329" on="0"/>
        <pt x="828" y="-375" on="0"/>
        <pt x="731" y="-375" on="1"/>
        <pt x="565" y="-375" on="0"/>
        <pt x="301" y="-257" on="0"/>
        <pt x="127" y="-38" on="0"/>
        <pt x="55" y="273" on="0"/>
        <pt x="82" y="465" on="1"/>
        <pt x="98" y="577" on="0"/>
        <pt x="179" y="794" on="0"/>
        <pt x="301" y="986" on="0"/>
        <pt x="460" y="1149" on="0"/>
        <pt x="644" y="1267" on="0"/>
        <pt x="851" y="1333" on="0"/>
        <pt x="961" y="1333" on="1"/>
        <pt x="1094" y="1333" on="0"/>
        <pt x="1316" y="1229" on="0"/>
        <pt x="1466" y="1028" on="0"/>
        <pt x="1528" y="736" on="0"/>
        <pt x="1501" y="549" on="1"/>
        <pt x="1489" y="462" on="0"/>
        <pt x="1432" y="308" on="0"/>
        <pt x="1352" y="177" on="0"/>
        <pt x="1258" y="72" on="0"/>
        <pt x="1160" y="-2" on="0"/>
        <pt x="1065" y="-41" on="0"/>
        <pt x="1026" y="-41" on="1"/>
        <pt x="1008" y="-41" on="0"/>
        <pt x="973" y="-16" on="0"/>
        <pt x="944" y="53" on="0"/>
        <pt x="926" y="174" on="0"/>
        <pt x="926" y="271" on="1"/>
        <pt x="901" y="226" on="0"/>
        <pt x="835" y="117" on="0"/>
        <pt x="760" y="22" on="0"/>
        <pt x="679" y="-41" on="0"/>
        <pt x="637" y="-41" on="1"/>
        <pt x="603" y="-41" on="0"/>
        <pt x="528" y="-3" on="0"/>
        <pt x="465" y="80" on="0"/>
        <pt x="424" y="211" on="0"/>
        <pt x="424" y="305" on="1"/>
        <pt x="424" y="384" on="0"/>
        <pt x="455" y="535" on="0"/>
        <pt x="520" y="673" on="0"/>
        <pt x="621" y="794" on="0"/>
        <pt x="692" y="842" on="1"/>
        <pt x="719" y="860" on="0"/>
        <pt x="783" y="894" on="0"/>
        <pt x="852" y="920" on="0"/>
        <pt x="920" y="936" on="0"/>
        <pt x="952" y="936" on="1"/>
        <pt x="992" y="936" on="0"/>
        <pt x="1062" y="898" on="0"/>
        <pt x="1092" y="878" on="1"/>
        <pt x="1115" y="894" on="0"/>
        <pt x="1166" y="923" on="0"/>
        <pt x="1192" y="936" on="1"/>
        <pt x="1212" y="901" on="1"/>
        <pt x="1192" y="885" on="0"/>
        <pt x="1168" y="860" on="0"/>
        <pt x="1160" y="842" on="1"/>
      </contour>
      <contour>
        <pt x="943" y="429" on="1"/>
        <pt x="950" y="475" on="0"/>
        <pt x="966" y="575" on="0"/>
        <pt x="983" y="667" on="0"/>
        <pt x="996" y="743" on="0"/>
        <pt x="1000" y="764" on="1"/>
        <pt x="985" y="776" on="0"/>
        <pt x="952" y="799" on="0"/>
        <pt x="914" y="819" on="0"/>
        <pt x="873" y="831" on="0"/>
        <pt x="850" y="831" on="1"/>
        <pt x="804" y="831" on="0"/>
        <pt x="726" y="786" on="0"/>
        <pt x="662" y="712" on="0"/>
        <pt x="612" y="617" on="0"/>
        <pt x="579" y="516" on="0"/>
        <pt x="561" y="418" on="0"/>
        <pt x="561" y="379" on="1"/>
        <pt x="561" y="314" on="0"/>
        <pt x="583" y="210" on="0"/>
        <pt x="620" y="136" on="0"/>
        <pt x="671" y="96" on="0"/>
        <pt x="700" y="96" on="1"/>
        <pt x="725" y="96" on="0"/>
        <pt x="786" y="157" on="0"/>
        <pt x="850" y="253" on="0"/>
        <pt x="915" y="371" on="0"/>
      </contour>
    </TTGlyph>
    <TTGlyph name="atilde" xMin="53" yMin="-41" xMax="901" yMax="1346">
      <component glyphName="a" x="0" y="0" flags="0x0"/>
      <component glyphName="tildecomb" x="905" y="0" flags="0x0"/>
    </TTGlyph>
    <TTGlyph name="atilde.SngStory" xMin="53" yMin="-41" xMax="901" yMax="1346">
      <component glyphName="a.SngStory" x="0" y="0" flags="0x0"/>
      <component glyphName="tildecomb" x="905" y="0" flags="0x0"/>
    </TTGlyph>
    <TTGlyph name="b" xMin="106" yMin="-41" xMax="886" yMax="1520">
      <contour>
        <pt x="604" y="803" on="1"/>
        <pt x="585" y="803" on="0"/>
        <pt x="513" y="754" on="0"/>
        <pt x="426" y="665" on="0"/>
        <pt x="335" y="544" on="0"/>
        <pt x="298" y="472" on="1"/>
        <pt x="287" y="400" on="0"/>
        <pt x="276" y="287" on="0"/>
        <pt x="276" y="256" on="1"/>
        <pt x="276" y="230" on="0"/>
        <pt x="307" y="170" on="0"/>
        <pt x="359" y="119" on="0"/>
        <pt x="424" y="86" on="0"/>
        <pt x="459" y="86" on="1"/>
        <pt x="495" y="86" on="0"/>
        <pt x="557" y="112" on="0"/>
        <pt x="610" y="153" on="0"/>
        <pt x="652" y="204" on="0"/>
        <pt x="668" y="229" on="1"/>
        <pt x="691" y="265" on="0"/>
        <pt x="719" y="343" on="0"/>
        <pt x="735" y="421" on="0"/>
        <pt x="741" y="496" on="0"/>
        <pt x="741" y="530" on="1"/>
        <pt x="741" y="599" on="0"/>
        <pt x="716" y="702" on="0"/>
        <pt x="677" y="770" on="0"/>
        <pt x="628" y="803" on="0"/>
      </contour>
      <contour>
        <pt x="885" y="610" on="1"/>
        <pt x="883" y="504" on="0"/>
        <pt x="824" y="289" on="0"/>
        <pt x="752" y="188" on="1"/>
        <pt x="718" y="143" on="0"/>
        <pt x="635" y="60" on="0"/>
        <pt x="537" y="-3" on="0"/>
        <pt x="425" y="-41" on="0"/>
        <pt x="362" y="-41" on="1"/>
        <pt x="341" y="-41" on="0"/>
        <pt x="290" y="-20" on="0"/>
        <pt x="237" y="18" on="0"/>
        <pt x="186" y="68" on="0"/>
        <pt x="147" y="125" on="0"/>
        <pt x="123" y="187" on="0"/>
        <pt x="123" y="217" on="1"/>
        <pt x="123" y="243" on="0"/>
        <pt x="136" y="355" on="0"/>
        <pt x="157" y="505" on="0"/>
        <pt x="184" y="681" on="0"/>
        <pt x="211" y="864" on="0"/>
        <pt x="238" y="1043" on="0"/>
        <pt x="259" y="1197" on="0"/>
        <pt x="272" y="1315" on="0"/>
        <pt x="272" y="1346" on="1"/>
        <pt x="272" y="1369" on="0"/>
        <pt x="262" y="1396" on="0"/>
        <pt x="246" y="1409" on="0"/>
        <pt x="228" y="1413" on="0"/>
        <pt x="219" y="1413" on="1"/>
        <pt x="210" y="1413" on="0"/>
        <pt x="177" y="1404" on="0"/>
        <pt x="160" y="1399" on="1"/>
        <pt x="141" y="1393" on="0"/>
        <pt x="119" y="1386" on="1"/>
        <pt x="106" y="1425" on="1"/>
        <pt x="148" y="1444" on="0"/>
        <pt x="236" y="1478" on="0"/>
        <pt x="313" y="1504" on="0"/>
        <pt x="371" y="1520" on="0"/>
        <pt x="383" y="1520" on="1"/>
        <pt x="411" y="1520" on="0"/>
        <pt x="432" y="1484" on="0"/>
        <pt x="432" y="1438" on="1"/>
        <pt x="432" y="1407" on="0"/>
        <pt x="422" y="1306" on="0"/>
        <pt x="405" y="1177" on="0"/>
        <pt x="382" y="1026" on="0"/>
        <pt x="357" y="866" on="0"/>
        <pt x="332" y="703" on="0"/>
        <pt x="320" y="627" on="1"/>
        <pt x="371" y="713" on="0"/>
        <pt x="480" y="831" on="0"/>
        <pt x="582" y="904" on="0"/>
        <pt x="671" y="936" on="0"/>
        <pt x="702" y="936" on="1"/>
        <pt x="741" y="936" on="0"/>
        <pt x="809" y="893" on="0"/>
        <pt x="858" y="811" on="0"/>
        <pt x="886" y="689" on="0"/>
      </contour>
    </TTGlyph>
    <TTGlyph name="backslash" xMin="145" yMin="-336" xMax="682" yMax="1599">
      <contour>
        <pt x="647" y="-336" on="1"/>
        <pt x="636" y="-332" on="0"/>
        <pt x="604" y="-320" on="0"/>
        <pt x="571" y="-307" on="0"/>
        <pt x="542" y="-292" on="0"/>
        <pt x="535" y="-285" on="1"/>
        <pt x="145" y="1577" on="1"/>
        <pt x="182" y="1599" on="1"/>
        <pt x="210" y="1591" on="0"/>
        <pt x="270" y="1567" on="0"/>
        <pt x="295" y="1550" on="1"/>
        <pt x="682" y="-311" on="1"/>
      </contour>
    </TTGlyph>
    <TTGlyph name="bar" xMin="43" yMin="-336" xMax="438" yMax="1599">
      <contour>
        <pt x="176" y="-285" on="1"/>
        <pt x="156" y="-299" on="0"/>
        <pt x="96" y="-328" on="0"/>
        <pt x="72" y="-336" on="1"/>
        <pt x="43" y="-311" on="1"/>
        <pt x="305" y="1550" on="1"/>
        <pt x="333" y="1567" on="0"/>
        <pt x="379" y="1591" on="0"/>
        <pt x="408" y="1599" on="1"/>
        <pt x="438" y="1577" on="1"/>
      </contour>
    </TTGlyph>
    <TTGlyph name="braceleft" xMin="102" yMin="-315" xMax="741" yMax="1599">
      <contour>
        <pt x="741" y="1552" on="1"/>
        <pt x="701" y="1528" on="0"/>
        <pt x="630" y="1466" on="0"/>
        <pt x="573" y="1391" on="0"/>
        <pt x="534" y="1303" on="0"/>
        <pt x="526" y="1251" on="1"/>
        <pt x="518" y="1193" on="0"/>
        <pt x="521" y="1119" on="0"/>
        <pt x="526" y="1054" on="0"/>
        <pt x="527" y="980" on="0"/>
        <pt x="518" y="922" on="1"/>
        <pt x="512" y="880" on="0"/>
        <pt x="478" y="800" on="0"/>
        <pt x="426" y="729" on="0"/>
        <pt x="355" y="671" on="0"/>
        <pt x="313" y="653" on="1"/>
        <pt x="358" y="644" on="0"/>
        <pt x="416" y="599" on="0"/>
        <pt x="446" y="531" on="0"/>
        <pt x="450" y="440" on="0"/>
        <pt x="442" y="385" on="1"/>
        <pt x="434" y="325" on="0"/>
        <pt x="410" y="241" on="0"/>
        <pt x="386" y="167" on="0"/>
        <pt x="363" y="93" on="0"/>
        <pt x="356" y="43" on="1"/>
        <pt x="348" y="-12" on="0"/>
        <pt x="351" y="-97" on="0"/>
        <pt x="378" y="-166" on="0"/>
        <pt x="432" y="-225" on="0"/>
        <pt x="477" y="-254" on="1"/>
        <pt x="449" y="-315" on="1"/>
        <pt x="376" y="-281" on="0"/>
        <pt x="274" y="-206" on="0"/>
        <pt x="215" y="-114" on="0"/>
        <pt x="197" y="0" on="0"/>
        <pt x="207" y="72" on="1"/>
        <pt x="215" y="131" on="0"/>
        <pt x="238" y="208" on="0"/>
        <pt x="262" y="279" on="0"/>
        <pt x="286" y="360" on="0"/>
        <pt x="295" y="422" on="1"/>
        <pt x="306" y="503" on="0"/>
        <pt x="241" y="586" on="0"/>
        <pt x="172" y="586" on="1"/>
        <pt x="154" y="586" on="1"/>
        <pt x="148" y="586" on="0"/>
        <pt x="138" y="585" on="0"/>
        <pt x="124" y="582" on="0"/>
        <pt x="111" y="580" on="1"/>
        <pt x="102" y="633" on="1"/>
        <pt x="217" y="664" on="0"/>
        <pt x="345" y="787" on="0"/>
        <pt x="356" y="862" on="1"/>
        <pt x="362" y="902" on="0"/>
        <pt x="364" y="960" on="0"/>
        <pt x="363" y="1007" on="0"/>
        <pt x="358" y="1048" on="0"/>
        <pt x="357" y="1094" on="0"/>
        <pt x="359" y="1153" on="0"/>
        <pt x="365" y="1194" on="1"/>
        <pt x="385" y="1330" on="0"/>
        <pt x="573" y="1531" on="0"/>
        <pt x="723" y="1599" on="1"/>
      </contour>
    </TTGlyph>
    <TTGlyph name="braceright" xMin="-82" yMin="-315" xMax="557" yMax="1599">
      <contour>
        <pt x="557" y="651" on="1"/>
        <pt x="443" y="620" on="0"/>
        <pt x="314" y="499" on="0"/>
        <pt x="303" y="422" on="1"/>
        <pt x="297" y="381" on="0"/>
        <pt x="295" y="324" on="0"/>
        <pt x="297" y="278" on="0"/>
        <pt x="301" y="238" on="0"/>
        <pt x="303" y="191" on="0"/>
        <pt x="301" y="133" on="0"/>
        <pt x="295" y="92" on="1"/>
        <pt x="285" y="24" on="0"/>
        <pt x="226" y="-94" on="0"/>
        <pt x="133" y="-196" on="0"/>
        <pt x="10" y="-281" on="0"/>
        <pt x="-63" y="-315" on="1"/>
        <pt x="-82" y="-266" on="1"/>
        <pt x="-42" y="-242" on="0"/>
        <pt x="30" y="-181" on="0"/>
        <pt x="86" y="-106" on="0"/>
        <pt x="124" y="-17" on="0"/>
        <pt x="131" y="35" on="1"/>
        <pt x="137" y="74" on="0"/>
        <pt x="140" y="131" on="0"/>
        <pt x="139" y="178" on="0"/>
        <pt x="135" y="220" on="0"/>
        <pt x="134" y="267" on="0"/>
        <pt x="136" y="325" on="0"/>
        <pt x="141" y="365" on="1"/>
        <pt x="147" y="406" on="0"/>
        <pt x="181" y="486" on="0"/>
        <pt x="234" y="556" on="0"/>
        <pt x="304" y="613" on="0"/>
        <pt x="346" y="631" on="1"/>
        <pt x="301" y="641" on="0"/>
        <pt x="243" y="686" on="0"/>
        <pt x="214" y="754" on="0"/>
        <pt x="209" y="845" on="0"/>
        <pt x="217" y="901" on="1"/>
        <pt x="226" y="960" on="0"/>
        <pt x="249" y="1044" on="0"/>
        <pt x="273" y="1118" on="0"/>
        <pt x="294" y="1192" on="0"/>
        <pt x="301" y="1241" on="1"/>
        <pt x="310" y="1297" on="0"/>
        <pt x="308" y="1383" on="0"/>
        <pt x="281" y="1452" on="0"/>
        <pt x="225" y="1509" on="0"/>
        <pt x="180" y="1538" on="1"/>
        <pt x="211" y="1599" on="1"/>
        <pt x="285" y="1566" on="0"/>
        <pt x="386" y="1491" on="0"/>
        <pt x="445" y="1399" on="0"/>
        <pt x="463" y="1286" on="0"/>
        <pt x="453" y="1214" on="1"/>
        <pt x="444" y="1155" on="0"/>
        <pt x="422" y="1077" on="0"/>
        <pt x="398" y="1006" on="0"/>
        <pt x="375" y="925" on="0"/>
        <pt x="367" y="864" on="1"/>
        <pt x="354" y="783" on="0"/>
        <pt x="418" y="700" on="0"/>
        <pt x="487" y="700" on="1"/>
        <pt x="505" y="700" on="1"/>
        <pt x="511" y="700" on="0"/>
        <pt x="521" y="701" on="0"/>
        <pt x="534" y="704" on="0"/>
        <pt x="549" y="707" on="1"/>
      </contour>
    </TTGlyph>
    <TTGlyph name="bracketleft" xMin="2" yMin="-336" xMax="686" yMax="1599">
      <contour>
        <pt x="686" y="1573" on="1"/>
        <pt x="680" y="1548" on="0"/>
        <pt x="657" y="1499" on="0"/>
        <pt x="649" y="1487" on="1"/>
        <pt x="387" y="1487" on="1"/>
        <pt x="147" y="-221" on="1"/>
        <pt x="403" y="-221" on="1"/>
        <pt x="432" y="-250" on="1"/>
        <pt x="426" y="-270" on="0"/>
        <pt x="405" y="-319" on="0"/>
        <pt x="395" y="-336" on="1"/>
        <pt x="2" y="-336" on="1"/>
        <pt x="274" y="1599" on="1"/>
        <pt x="659" y="1599" on="1"/>
      </contour>
    </TTGlyph>
    <TTGlyph name="bracketright" xMin="-86" yMin="-336" xMax="598" yMax="1599">
      <contour>
        <pt x="328" y="-336" on="1"/>
        <pt x="-57" y="-336" on="1"/>
        <pt x="-86" y="-307" on="1"/>
        <pt x="-78" y="-284" on="0"/>
        <pt x="-57" y="-234" on="0"/>
        <pt x="-49" y="-221" on="1"/>
        <pt x="213" y="-221" on="1"/>
        <pt x="453" y="1487" on="1"/>
        <pt x="199" y="1487" on="1"/>
        <pt x="170" y="1513" on="1"/>
        <pt x="176" y="1535" on="0"/>
        <pt x="198" y="1582" on="0"/>
        <pt x="207" y="1599" on="1"/>
        <pt x="598" y="1599" on="1"/>
      </contour>
    </TTGlyph>
    <TTGlyph name="breve" xMin="130" yMin="1050" xMax="708" yMax="1378">
      <contour>
        <pt x="708" y="1335" on="1"/>
        <pt x="671" y="1254" on="0"/>
        <pt x="590" y="1145" on="0"/>
        <pt x="506" y="1079" on="0"/>
        <pt x="422" y="1050" on="0"/>
        <pt x="382" y="1050" on="1"/>
        <pt x="338" y="1050" on="0"/>
        <pt x="261" y="1079" on="0"/>
        <pt x="197" y="1146" on="0"/>
        <pt x="147" y="1255" on="0"/>
        <pt x="130" y="1335" on="1"/>
        <pt x="144" y="1352" on="0"/>
        <pt x="170" y="1370" on="0"/>
        <pt x="185" y="1378" on="1"/>
        <pt x="199" y="1323" on="0"/>
        <pt x="246" y="1247" on="0"/>
        <pt x="303" y="1200" on="0"/>
        <pt x="365" y="1179" on="0"/>
        <pt x="394" y="1179" on="1"/>
        <pt x="425" y="1179" on="0"/>
        <pt x="497" y="1200" on="0"/>
        <pt x="568" y="1247" on="0"/>
        <pt x="636" y="1323" on="0"/>
        <pt x="665" y="1378" on="1"/>
        <pt x="679" y="1370" on="0"/>
        <pt x="698" y="1354" on="0"/>
      </contour>
    </TTGlyph>
    <TTGlyph name="brokenbar" xMin="39" yMin="-336" xMax="442" yMax="1599">
      <contour>
        <pt x="180" y="-285" on="1"/>
        <pt x="171" y="-292" on="0"/>
        <pt x="142" y="-307" on="0"/>
        <pt x="110" y="-320" on="0"/>
        <pt x="79" y="-332" on="0"/>
        <pt x="68" y="-336" on="1"/>
        <pt x="39" y="-311" on="1"/>
        <pt x="152" y="489" on="1"/>
        <pt x="179" y="506" on="0"/>
        <pt x="233" y="531" on="0"/>
        <pt x="262" y="541" on="1"/>
        <pt x="295" y="516" on="1"/>
      </contour>
      <contour>
        <pt x="330" y="766" on="1"/>
        <pt x="320" y="758" on="0"/>
        <pt x="291" y="743" on="0"/>
        <pt x="259" y="730" on="0"/>
        <pt x="227" y="719" on="0"/>
        <pt x="215" y="715" on="1"/>
        <pt x="184" y="737" on="1"/>
        <pt x="299" y="1550" on="1"/>
        <pt x="328" y="1567" on="0"/>
        <pt x="383" y="1591" on="0"/>
        <pt x="412" y="1599" on="1"/>
        <pt x="442" y="1577" on="1"/>
      </contour>
    </TTGlyph>
    <TTGlyph name="bullet" xMin="66" yMin="389" xMax="479" yMax="885">
      <contour>
        <pt x="479" y="713" on="1"/>
        <pt x="479" y="657" on="0"/>
        <pt x="444" y="541" on="0"/>
        <pt x="377" y="448" on="0"/>
        <pt x="279" y="389" on="0"/>
        <pt x="215" y="389" on="1"/>
        <pt x="177" y="389" on="0"/>
        <pt x="121" y="415" on="0"/>
        <pt x="84" y="461" on="0"/>
        <pt x="66" y="523" on="0"/>
        <pt x="66" y="559" on="1"/>
        <pt x="66" y="615" on="0"/>
        <pt x="102" y="731" on="0"/>
        <pt x="171" y="825" on="0"/>
        <pt x="270" y="885" on="0"/>
        <pt x="332" y="885" on="1"/>
        <pt x="370" y="885" on="0"/>
        <pt x="426" y="858" on="0"/>
        <pt x="462" y="811" on="0"/>
        <pt x="479" y="748" on="0"/>
      </contour>
    </TTGlyph>
    <TTGlyph name="c" xMin="53" yMin="-41" xMax="813" yMax="936">
      <contour>
        <pt x="813" y="815" on="1"/>
        <pt x="792" y="800" on="0"/>
        <pt x="745" y="766" on="0"/>
        <pt x="701" y="739" on="0"/>
        <pt x="662" y="721" on="0"/>
        <pt x="649" y="721" on="1"/>
        <pt x="638" y="721" on="0"/>
        <pt x="606" y="755" on="0"/>
        <pt x="563" y="797" on="0"/>
        <pt x="509" y="831" on="0"/>
        <pt x="477" y="831" on="1"/>
        <pt x="431" y="831" on="0"/>
        <pt x="355" y="787" on="0"/>
        <pt x="293" y="713" on="0"/>
        <pt x="246" y="616" on="0"/>
        <pt x="215" y="511" on="0"/>
        <pt x="199" y="405" on="0"/>
        <pt x="199" y="358" on="1"/>
        <pt x="199" y="293" on="0"/>
        <pt x="228" y="189" on="0"/>
        <pt x="280" y="116" on="0"/>
        <pt x="352" y="76" on="0"/>
        <pt x="395" y="76" on="1"/>
        <pt x="413" y="76" on="0"/>
        <pt x="469" y="88" on="0"/>
        <pt x="542" y="121" on="0"/>
        <pt x="632" y="177" on="0"/>
        <pt x="686" y="221" on="1"/>
        <pt x="694" y="210" on="0"/>
        <pt x="712" y="188" on="0"/>
        <pt x="717" y="180" on="1"/>
        <pt x="639" y="109" on="0"/>
        <pt x="515" y="22" on="0"/>
        <pt x="414" y="-25" on="0"/>
        <pt x="333" y="-41" on="0"/>
        <pt x="297" y="-41" on="1"/>
        <pt x="263" y="-41" on="0"/>
        <pt x="179" y="-7" on="0"/>
        <pt x="104" y="77" on="0"/>
        <pt x="53" y="217" on="0"/>
        <pt x="53" y="322" on="1"/>
        <pt x="53" y="389" on="0"/>
        <pt x="81" y="532" on="0"/>
        <pt x="144" y="669" on="0"/>
        <pt x="245" y="793" on="0"/>
        <pt x="319" y="842" on="1"/>
        <pt x="347" y="860" on="0"/>
        <pt x="415" y="894" on="0"/>
        <pt x="488" y="920" on="0"/>
        <pt x="559" y="936" on="0"/>
        <pt x="590" y="936" on="1"/>
        <pt x="634" y="936" on="0"/>
        <pt x="703" y="902" on="0"/>
        <pt x="757" y="859" on="0"/>
        <pt x="798" y="820" on="0"/>
      </contour>
    </TTGlyph>
    <TTGlyph name="cacute" xMin="53" yMin="-41" xMax="875" yMax="1459">
      <component glyphName="c" x="0" y="0" flags="0x0"/>
      <component glyphName="acutecomb" x="883" y="0" flags="0x0"/>
    </TTGlyph>
    <TTGlyph name="caron" xMin="147" yMin="1050" xMax="706" yMax="1446">
      <contour>
        <pt x="426" y="1050" on="1"/>
        <pt x="334" y="1050" on="1"/>
        <pt x="147" y="1401" on="1"/>
        <pt x="161" y="1420" on="0"/>
        <pt x="177" y="1434" on="0"/>
        <pt x="192" y="1446" on="1"/>
        <pt x="401" y="1202" on="1"/>
        <pt x="674" y="1446" on="1"/>
        <pt x="686" y="1435" on="0"/>
        <pt x="697" y="1420" on="0"/>
        <pt x="706" y="1401" on="1"/>
      </contour>
    </TTGlyph>
    <TTGlyph name="ccaron" xMin="53" yMin="-41" xMax="865" yMax="1446">
      <component glyphName="c" x="0" y="0" flags="0x0"/>
      <component glyphName="uni030C" x="887" y="0" flags="0x0"/>
    </TTGlyph>
    <TTGlyph name="ccedilla" xMin="53" yMin="-411" xMax="813" yMax="936">
      <contour>
        <pt x="476" y="-221" on="1"/>
        <pt x="476" y="-274" on="0"/>
        <pt x="414" y="-362" on="0"/>
        <pt x="315" y="-411" on="0"/>
        <pt x="192" y="-410" on="0"/>
        <pt x="132" y="-375" on="1"/>
        <pt x="130" y="-336" on="1"/>
        <pt x="182" y="-360" on="0"/>
        <pt x="264" y="-363" on="0"/>
        <pt x="320" y="-338" on="0"/>
        <pt x="349" y="-292" on="0"/>
        <pt x="349" y="-268" on="1"/>
        <pt x="349" y="-242" on="0"/>
        <pt x="303" y="-213" on="0"/>
        <pt x="256" y="-215" on="1"/>
        <pt x="270" y="-178" on="0"/>
        <pt x="289" y="-121" on="0"/>
        <pt x="303" y="-71" on="0"/>
        <pt x="308" y="-47" on="1"/>
        <pt x="310" y="-41" on="1"/>
        <pt x="297" y="-41" on="1"/>
        <pt x="263" y="-41" on="0"/>
        <pt x="179" y="-7" on="0"/>
        <pt x="104" y="77" on="0"/>
        <pt x="53" y="217" on="0"/>
        <pt x="53" y="322" on="1"/>
        <pt x="53" y="389" on="0"/>
        <pt x="81" y="532" on="0"/>
        <pt x="144" y="669" on="0"/>
        <pt x="245" y="793" on="0"/>
        <pt x="319" y="842" on="1"/>
        <pt x="347" y="860" on="0"/>
        <pt x="415" y="894" on="0"/>
        <pt x="488" y="920" on="0"/>
        <pt x="559" y="936" on="0"/>
        <pt x="590" y="936" on="1"/>
        <pt x="634" y="936" on="0"/>
        <pt x="703" y="902" on="0"/>
        <pt x="757" y="859" on="0"/>
        <pt x="798" y="820" on="0"/>
        <pt x="813" y="815" on="1"/>
        <pt x="792" y="800" on="0"/>
        <pt x="745" y="766" on="0"/>
        <pt x="701" y="739" on="0"/>
        <pt x="662" y="721" on="0"/>
        <pt x="649" y="721" on="1"/>
        <pt x="638" y="721" on="0"/>
        <pt x="606" y="755" on="0"/>
        <pt x="563" y="797" on="0"/>
        <pt x="509" y="831" on="0"/>
        <pt x="477" y="831" on="1"/>
        <pt x="431" y="831" on="0"/>
        <pt x="355" y="787" on="0"/>
        <pt x="293" y="713" on="0"/>
        <pt x="246" y="616" on="0"/>
        <pt x="215" y="511" on="0"/>
        <pt x="199" y="405" on="0"/>
        <pt x="199" y="358" on="1"/>
        <pt x="199" y="293" on="0"/>
        <pt x="228" y="189" on="0"/>
        <pt x="280" y="116" on="0"/>
        <pt x="352" y="76" on="0"/>
        <pt x="395" y="76" on="1"/>
        <pt x="413" y="76" on="0"/>
        <pt x="469" y="88" on="0"/>
        <pt x="542" y="121" on="0"/>
        <pt x="632" y="177" on="0"/>
        <pt x="686" y="221" on="1"/>
        <pt x="694" y="210" on="0"/>
        <pt x="712" y="188" on="0"/>
        <pt x="717" y="180" on="1"/>
        <pt x="639" y="109" on="0"/>
        <pt x="515" y="22" on="0"/>
        <pt x="464" y="-1" on="1"/>
        <pt x="419" y="-23" on="0"/>
        <pt x="381" y="-31" on="1"/>
        <pt x="377" y="-50" on="0"/>
        <pt x="374" y="-63" on="1"/>
        <pt x="368" y="-88" on="0"/>
        <pt x="361" y="-113" on="1"/>
        <pt x="412" y="-115" on="0"/>
        <pt x="476" y="-172" on="0"/>
      </contour>
    </TTGlyph>
    <TTGlyph name="ccircumflex" xMin="53" yMin="-41" xMax="821" yMax="1442">
      <component glyphName="c" x="0" y="0" flags="0x0"/>
      <component glyphName="uni0302" x="882" y="0" flags="0x0"/>
    </TTGlyph>
    <TTGlyph name="cdotaccent" xMin="53" yMin="-41" xMax="813" yMax="1333">
      <component glyphName="c" x="0" y="0" flags="0x0"/>
      <component glyphName="uni0307" x="886" y="0" flags="0x0"/>
    </TTGlyph>
    <TTGlyph name="cedilla" xMin="-126" yMin="-411" xMax="220" yMax="4">
      <contour>
        <pt x="220" y="-221" on="1"/>
        <pt x="220" y="-274" on="0"/>
        <pt x="158" y="-362" on="0"/>
        <pt x="59" y="-411" on="0"/>
        <pt x="-64" y="-410" on="0"/>
        <pt x="-124" y="-375" on="1"/>
        <pt x="-126" y="-336" on="1"/>
        <pt x="-74" y="-360" on="0"/>
        <pt x="8" y="-363" on="0"/>
        <pt x="64" y="-338" on="0"/>
        <pt x="93" y="-292" on="0"/>
        <pt x="93" y="-268" on="1"/>
        <pt x="93" y="-242" on="0"/>
        <pt x="47" y="-213" on="0"/>
        <pt x="0" y="-215" on="1"/>
        <pt x="14" y="-178" on="0"/>
        <pt x="33" y="-121" on="0"/>
        <pt x="47" y="-71" on="0"/>
        <pt x="58" y="-24" on="0"/>
        <pt x="64" y="4" on="1"/>
        <pt x="132" y="2" on="1"/>
        <pt x="124" y="-39" on="0"/>
        <pt x="112" y="-88" on="0"/>
        <pt x="105" y="-113" on="1"/>
        <pt x="156" y="-115" on="0"/>
        <pt x="220" y="-172" on="0"/>
      </contour>
    </TTGlyph>
    <TTGlyph name="cent" xMin="104" yMin="-49" xMax="864" yMax="1217">
      <contour>
        <pt x="250" y="510" on="1"/>
        <pt x="250" y="459" on="0"/>
        <pt x="272" y="371" on="0"/>
        <pt x="311" y="302" on="0"/>
        <pt x="365" y="252" on="0"/>
        <pt x="396" y="239" on="1"/>
        <pt x="493" y="946" on="1"/>
        <pt x="435" y="932" on="0"/>
        <pt x="344" y="839" on="0"/>
        <pt x="282" y="714" on="0"/>
        <pt x="250" y="573" on="0"/>
      </contour>
      <contour>
        <pt x="586" y="1050" on="1"/>
        <pt x="600" y="1052" on="0"/>
        <pt x="628" y="1055" on="0"/>
        <pt x="641" y="1055" on="1"/>
        <pt x="685" y="1055" on="0"/>
        <pt x="754" y="1022" on="0"/>
        <pt x="808" y="980" on="0"/>
        <pt x="849" y="941" on="0"/>
        <pt x="864" y="936" on="1"/>
        <pt x="843" y="921" on="0"/>
        <pt x="802" y="884" on="0"/>
        <pt x="765" y="852" on="0"/>
        <pt x="733" y="831" on="0"/>
        <pt x="721" y="831" on="1"/>
        <pt x="711" y="831" on="0"/>
        <pt x="690" y="862" on="0"/>
        <pt x="657" y="903" on="0"/>
        <pt x="608" y="941" on="0"/>
        <pt x="572" y="948" on="1"/>
        <pt x="473" y="225" on="1"/>
        <pt x="491" y="226" on="0"/>
        <pt x="540" y="240" on="0"/>
        <pt x="604" y="274" on="0"/>
        <pt x="685" y="330" on="0"/>
        <pt x="737" y="373" on="1"/>
        <pt x="745" y="360" on="0"/>
        <pt x="763" y="339" on="0"/>
        <pt x="768" y="330" on="1"/>
        <pt x="713" y="280" on="0"/>
        <pt x="624" y="209" on="0"/>
        <pt x="549" y="159" on="0"/>
        <pt x="487" y="130" on="0"/>
        <pt x="459" y="122" on="1"/>
        <pt x="440" y="-18" on="1"/>
        <pt x="431" y="-26" on="0"/>
        <pt x="418" y="-35" on="0"/>
        <pt x="406" y="-41" on="0"/>
        <pt x="391" y="-45" on="0"/>
        <pt x="379" y="-49" on="1"/>
        <pt x="360" y="-27" on="1"/>
        <pt x="379" y="111" on="1"/>
        <pt x="367" y="111" on="1"/>
        <pt x="344" y="111" on="0"/>
        <pt x="288" y="125" on="0"/>
        <pt x="229" y="158" on="0"/>
        <pt x="174" y="213" on="0"/>
        <pt x="130" y="293" on="0"/>
        <pt x="104" y="401" on="0"/>
        <pt x="104" y="471" on="1"/>
        <pt x="104" y="538" on="0"/>
        <pt x="132" y="675" on="0"/>
        <pt x="195" y="805" on="0"/>
        <pt x="297" y="924" on="0"/>
        <pt x="371" y="973" on="1"/>
        <pt x="399" y="991" on="0"/>
        <pt x="468" y="1021" on="0"/>
        <pt x="505" y="1032" on="1"/>
        <pt x="526" y="1186" on="1"/>
        <pt x="539" y="1195" on="0"/>
        <pt x="551" y="1204" on="0"/>
        <pt x="560" y="1209" on="0"/>
        <pt x="572" y="1213" on="0"/>
        <pt x="586" y="1217" on="1"/>
        <pt x="606" y="1194" on="1"/>
      </contour>
    </TTGlyph>
    <TTGlyph name="circumflex" xMin="102" yMin="1026" xMax="661" yMax="1442">
      <contour>
        <pt x="661" y="1071" on="1"/>
        <pt x="647" y="1051" on="0"/>
        <pt x="632" y="1033" on="0"/>
        <pt x="616" y="1026" on="1"/>
        <pt x="408" y="1291" on="1"/>
        <pt x="135" y="1026" on="1"/>
        <pt x="126" y="1032" on="0"/>
        <pt x="112" y="1051" on="0"/>
        <pt x="102" y="1071" on="1"/>
        <pt x="386" y="1442" on="1"/>
        <pt x="478" y="1442" on="1"/>
      </contour>
    </TTGlyph>
    <TTGlyph name="colon" xMin="51" yMin="-31" xMax="383" yMax="961">
      <contour>
        <pt x="383" y="866" on="1"/>
        <pt x="383" y="836" on="0"/>
        <pt x="362" y="772" on="0"/>
        <pt x="324" y="720" on="0"/>
        <pt x="270" y="686" on="0"/>
        <pt x="236" y="686" on="1"/>
        <pt x="195" y="686" on="0"/>
        <pt x="152" y="739" on="0"/>
        <pt x="152" y="784" on="1"/>
        <pt x="152" y="812" on="0"/>
        <pt x="175" y="875" on="0"/>
        <pt x="215" y="927" on="0"/>
        <pt x="269" y="961" on="0"/>
        <pt x="301" y="961" on="1"/>
        <pt x="338" y="961" on="0"/>
        <pt x="383" y="910" on="0"/>
      </contour>
      <contour>
        <pt x="283" y="152" on="1"/>
        <pt x="283" y="121" on="0"/>
        <pt x="262" y="56" on="0"/>
        <pt x="223" y="3" on="0"/>
        <pt x="169" y="-31" on="0"/>
        <pt x="135" y="-31" on="1"/>
        <pt x="95" y="-31" on="0"/>
        <pt x="51" y="23" on="0"/>
        <pt x="51" y="68" on="1"/>
        <pt x="51" y="97" on="0"/>
        <pt x="74" y="160" on="0"/>
        <pt x="115" y="212" on="0"/>
        <pt x="169" y="246" on="0"/>
        <pt x="201" y="246" on="1"/>
        <pt x="238" y="246" on="0"/>
        <pt x="283" y="194" on="0"/>
      </contour>
    </TTGlyph>
    <TTGlyph name="comma" xMin="-18" yMin="-305" xMax="303" yMax="230">
      <contour>
        <pt x="303" y="102" on="1"/>
        <pt x="303" y="76" on="0"/>
        <pt x="280" y="8" on="0"/>
        <pt x="239" y="-68" on="0"/>
        <pt x="185" y="-148" on="0"/>
        <pt x="121" y="-222" on="0"/>
        <pt x="51" y="-284" on="0"/>
        <pt x="16" y="-305" on="1"/>
        <pt x="-18" y="-270" on="1"/>
        <pt x="135" y="-108" on="0"/>
        <pt x="135" y="0" on="1"/>
        <pt x="135" y="18" on="0"/>
        <pt x="124" y="53" on="0"/>
        <pt x="99" y="77" on="0"/>
        <pt x="58" y="88" on="0"/>
        <pt x="27" y="84" on="1"/>
        <pt x="18" y="129" on="1"/>
        <pt x="29" y="141" on="0"/>
        <pt x="88" y="175" on="0"/>
        <pt x="157" y="207" on="0"/>
        <pt x="222" y="230" on="0"/>
        <pt x="238" y="229" on="1"/>
        <pt x="256" y="219" on="0"/>
        <pt x="280" y="200" on="0"/>
        <pt x="296" y="173" on="0"/>
        <pt x="303" y="133" on="0"/>
      </contour>
    </TTGlyph>
    <TTGlyph name="copyright" xMin="94" yMin="-31" xMax="1280" yMax="1290">
      <contour>
        <pt x="1014" y="942" on="1"/>
        <pt x="976" y="917" on="0"/>
        <pt x="908" y="872" on="0"/>
        <pt x="885" y="872" on="1"/>
        <pt x="875" y="872" on="0"/>
        <pt x="848" y="900" on="0"/>
        <pt x="810" y="935" on="0"/>
        <pt x="759" y="963" on="0"/>
        <pt x="725" y="963" on="1"/>
        <pt x="683" y="963" on="0"/>
        <pt x="611" y="925" on="0"/>
        <pt x="553" y="861" on="0"/>
        <pt x="507" y="778" on="0"/>
        <pt x="477" y="688" on="0"/>
        <pt x="461" y="598" on="0"/>
        <pt x="461" y="559" on="1"/>
        <pt x="461" y="505" on="0"/>
        <pt x="495" y="415" on="0"/>
        <pt x="553" y="350" on="0"/>
        <pt x="630" y="315" on="0"/>
        <pt x="672" y="315" on="1"/>
        <pt x="688" y="315" on="0"/>
        <pt x="731" y="327" on="0"/>
        <pt x="790" y="357" on="0"/>
        <pt x="868" y="406" on="0"/>
        <pt x="918" y="444" on="1"/>
        <pt x="926" y="433" on="0"/>
        <pt x="941" y="416" on="0"/>
        <pt x="946" y="408" on="1"/>
        <pt x="874" y="348" on="0"/>
        <pt x="767" y="275" on="0"/>
        <pt x="683" y="236" on="0"/>
        <pt x="614" y="223" on="0"/>
        <pt x="580" y="223" on="1"/>
        <pt x="549" y="223" on="0"/>
        <pt x="465" y="252" on="0"/>
        <pt x="389" y="321" on="0"/>
        <pt x="336" y="438" on="0"/>
        <pt x="336" y="526" on="1"/>
        <pt x="336" y="583" on="0"/>
        <pt x="358" y="698" on="0"/>
        <pt x="410" y="809" on="0"/>
        <pt x="496" y="916" on="0"/>
        <pt x="561" y="965" on="1"/>
        <pt x="584" y="983" on="0"/>
        <pt x="646" y="1013" on="0"/>
        <pt x="713" y="1033" on="0"/>
        <pt x="780" y="1044" on="0"/>
        <pt x="809" y="1044" on="1"/>
        <pt x="850" y="1044" on="0"/>
        <pt x="914" y="1015" on="0"/>
        <pt x="963" y="979" on="0"/>
        <pt x="1000" y="946" on="0"/>
      </contour>
      <contour>
        <pt x="1200" y="719" on="1"/>
        <pt x="1200" y="820" on="0"/>
        <pt x="1140" y="997" on="0"/>
        <pt x="1028" y="1128" on="0"/>
        <pt x="868" y="1204" on="0"/>
        <pt x="768" y="1204" on="1"/>
        <pt x="682" y="1204" on="0"/>
        <pt x="528" y="1151" on="0"/>
        <pt x="395" y="1058" on="0"/>
        <pt x="288" y="932" on="0"/>
        <pt x="213" y="785" on="0"/>
        <pt x="172" y="625" on="0"/>
        <pt x="172" y="545" on="1"/>
        <pt x="172" y="443" on="0"/>
        <pt x="232" y="265" on="0"/>
        <pt x="345" y="132" on="0"/>
        <pt x="505" y="55" on="0"/>
        <pt x="606" y="55" on="1"/>
        <pt x="692" y="55" on="0"/>
        <pt x="847" y="108" on="0"/>
        <pt x="979" y="202" on="0"/>
        <pt x="1085" y="329" on="0"/>
        <pt x="1160" y="477" on="0"/>
        <pt x="1200" y="638" on="0"/>
      </contour>
      <contour>
        <pt x="1280" y="752" on="1"/>
        <pt x="1280" y="657" on="0"/>
        <pt x="1236" y="467" on="0"/>
        <pt x="1152" y="293" on="0"/>
        <pt x="1031" y="143" on="0"/>
        <pt x="879" y="32" on="0"/>
        <pt x="697" y="-31" on="0"/>
        <pt x="594" y="-31" on="1"/>
        <pt x="480" y="-31" on="0"/>
        <pt x="295" y="55" on="0"/>
        <pt x="164" y="205" on="0"/>
        <pt x="94" y="409" on="0"/>
        <pt x="94" y="526" on="1"/>
        <pt x="94" y="619" on="0"/>
        <pt x="140" y="805" on="0"/>
        <pt x="226" y="975" on="0"/>
        <pt x="348" y="1121" on="0"/>
        <pt x="500" y="1229" on="0"/>
        <pt x="679" y="1290" on="0"/>
        <pt x="778" y="1290" on="1"/>
        <pt x="891" y="1290" on="0"/>
        <pt x="1076" y="1208" on="0"/>
        <pt x="1208" y="1064" on="0"/>
        <pt x="1280" y="867" on="0"/>
      </contour>
    </TTGlyph>
    <TTGlyph name="currency" xMin="105" yMin="280" xMax="753" yMax="924">
      <contour>
        <pt x="455" y="770" on="1"/>
        <pt x="420" y="770" on="0"/>
        <pt x="359" y="744" on="0"/>
        <pt x="313" y="698" on="0"/>
        <pt x="283" y="636" on="0"/>
        <pt x="279" y="601" on="1"/>
        <pt x="275" y="569" on="0"/>
        <pt x="290" y="509" on="0"/>
        <pt x="324" y="463" on="0"/>
        <pt x="375" y="434" on="0"/>
        <pt x="408" y="434" on="1"/>
        <pt x="443" y="434" on="0"/>
        <pt x="502" y="461" on="0"/>
        <pt x="548" y="507" on="0"/>
        <pt x="577" y="568" on="0"/>
        <pt x="582" y="602" on="1"/>
        <pt x="586" y="633" on="0"/>
        <pt x="572" y="693" on="0"/>
        <pt x="539" y="741" on="0"/>
        <pt x="488" y="770" on="0"/>
      </contour>
      <contour>
        <pt x="616" y="280" on="1"/>
        <pt x="537" y="384" on="1"/>
        <pt x="472" y="339" on="0"/>
        <pt x="395" y="339" on="1"/>
        <pt x="355" y="339" on="0"/>
        <pt x="290" y="364" on="0"/>
        <pt x="265" y="387" on="1"/>
        <pt x="154" y="281" on="1"/>
        <pt x="125" y="283" on="1"/>
        <pt x="120" y="297" on="0"/>
        <pt x="109" y="329" on="0"/>
        <pt x="105" y="345" on="1"/>
        <pt x="216" y="451" on="1"/>
        <pt x="182" y="519" on="0"/>
        <pt x="193" y="600" on="1"/>
        <pt x="198" y="648" on="0"/>
        <pt x="231" y="725" on="0"/>
        <pt x="254" y="755" on="1"/>
        <pt x="168" y="867" on="1"/>
        <pt x="175" y="900" on="1"/>
        <pt x="188" y="908" on="0"/>
        <pt x="228" y="917" on="0"/>
        <pt x="243" y="924" on="1"/>
        <pt x="323" y="818" on="1"/>
        <pt x="360" y="843" on="0"/>
        <pt x="436" y="866" on="0"/>
        <pt x="468" y="866" on="1"/>
        <pt x="506" y="866" on="0"/>
        <pt x="570" y="839" on="0"/>
        <pt x="595" y="816" on="1"/>
        <pt x="704" y="921" on="1"/>
        <pt x="735" y="922" on="1"/>
        <pt x="753" y="856" on="1"/>
        <pt x="643" y="751" on="1"/>
        <pt x="660" y="717" on="0"/>
        <pt x="672" y="639" on="0"/>
        <pt x="667" y="600" on="1"/>
        <pt x="655" y="514" on="0"/>
        <pt x="604" y="448" on="1"/>
        <pt x="691" y="335" on="1"/>
        <pt x="688" y="301" on="1"/>
      </contour>
    </TTGlyph>
    <TTGlyph name="d" xMin="53" yMin="-41" xMax="924" yMax="1520">
      <contour>
        <pt x="621" y="424" on="1"/>
        <pt x="630" y="484" on="0"/>
        <pt x="654" y="637" on="0"/>
        <pt x="668" y="722" on="1"/>
        <pt x="651" y="740" on="0"/>
        <pt x="612" y="779" on="0"/>
        <pt x="567" y="811" on="0"/>
        <pt x="517" y="831" on="0"/>
        <pt x="489" y="831" on="1"/>
        <pt x="443" y="831" on="0"/>
        <pt x="364" y="786" on="0"/>
        <pt x="297" y="712" on="0"/>
        <pt x="245" y="617" on="0"/>
        <pt x="209" y="516" on="0"/>
        <pt x="190" y="418" on="0"/>
        <pt x="190" y="379" on="1"/>
        <pt x="190" y="314" on="0"/>
        <pt x="217" y="210" on="0"/>
        <pt x="261" y="136" on="0"/>
        <pt x="317" y="96" on="0"/>
        <pt x="346" y="96" on="1"/>
        <pt x="373" y="96" on="0"/>
        <pt x="439" y="146" on="0"/>
        <pt x="510" y="235" on="0"/>
        <pt x="585" y="355" on="0"/>
      </contour>
      <contour>
        <pt x="924" y="68" on="1"/>
        <pt x="839" y="11" on="0"/>
        <pt x="730" y="-41" on="0"/>
        <pt x="696" y="-41" on="1"/>
        <pt x="677" y="-41" on="0"/>
        <pt x="645" y="-10" on="0"/>
        <pt x="622" y="65" on="0"/>
        <pt x="608" y="189" on="0"/>
        <pt x="608" y="281" on="1"/>
        <pt x="574" y="218" on="0"/>
        <pt x="495" y="102" on="0"/>
        <pt x="409" y="12" on="0"/>
        <pt x="319" y="-41" on="0"/>
        <pt x="276" y="-41" on="1"/>
        <pt x="242" y="-41" on="0"/>
        <pt x="164" y="0" on="0"/>
        <pt x="97" y="87" on="0"/>
        <pt x="53" y="222" on="0"/>
        <pt x="53" y="315" on="1"/>
        <pt x="53" y="394" on="0"/>
        <pt x="87" y="543" on="0"/>
        <pt x="156" y="678" on="0"/>
        <pt x="261" y="795" on="0"/>
        <pt x="332" y="842" on="1"/>
        <pt x="360" y="860" on="0"/>
        <pt x="425" y="893" on="0"/>
        <pt x="493" y="920" on="0"/>
        <pt x="561" y="936" on="0"/>
        <pt x="592" y="936" on="1"/>
        <pt x="617" y="936" on="0"/>
        <pt x="669" y="904" on="0"/>
        <pt x="695" y="883" on="1"/>
        <pt x="707" y="956" on="0"/>
        <pt x="728" y="1096" on="0"/>
        <pt x="744" y="1217" on="0"/>
        <pt x="754" y="1315" on="0"/>
        <pt x="754" y="1346" on="1"/>
        <pt x="754" y="1369" on="0"/>
        <pt x="747" y="1396" on="0"/>
        <pt x="734" y="1409" on="0"/>
        <pt x="718" y="1413" on="0"/>
        <pt x="709" y="1413" on="1"/>
        <pt x="700" y="1413" on="0"/>
        <pt x="665" y="1404" on="0"/>
        <pt x="647" y="1399" on="1"/>
        <pt x="626" y="1393" on="0"/>
        <pt x="602" y="1386" on="1"/>
        <pt x="590" y="1425" on="1"/>
        <pt x="632" y="1444" on="0"/>
        <pt x="717" y="1478" on="0"/>
        <pt x="790" y="1504" on="0"/>
        <pt x="846" y="1520" on="0"/>
        <pt x="858" y="1520" on="1"/>
        <pt x="886" y="1520" on="0"/>
        <pt x="913" y="1484" on="0"/>
        <pt x="913" y="1438" on="1"/>
        <pt x="913" y="1399" on="0"/>
        <pt x="899" y="1275" on="0"/>
        <pt x="876" y="1121" on="0"/>
        <pt x="847" y="947" on="0"/>
        <pt x="816" y="770" on="0"/>
        <pt x="787" y="598" on="0"/>
        <pt x="764" y="450" on="0"/>
        <pt x="750" y="333" on="0"/>
        <pt x="750" y="299" on="1"/>
        <pt x="750" y="183" on="0"/>
        <pt x="772" y="78" on="0"/>
        <pt x="795" y="78" on="1"/>
        <pt x="821" y="78" on="0"/>
        <pt x="876" y="89" on="0"/>
        <pt x="911" y="104" on="1"/>
      </contour>
    </TTGlyph>
    <TTGlyph name="dagger" xMin="153" yMin="-40" xMax="921" yMax="1480">
      <contour>
        <pt x="921" y="1074" on="1"/>
        <pt x="904" y="1040" on="0"/>
        <pt x="854" y="955" on="0"/>
        <pt x="826" y="917" on="1"/>
        <pt x="768" y="941" on="0"/>
        <pt x="647" y="962" on="0"/>
        <pt x="572" y="967" on="1"/>
        <pt x="563" y="897" on="0"/>
        <pt x="558" y="749" on="0"/>
        <pt x="566" y="680" on="1"/>
        <pt x="533" y="569" on="0"/>
        <pt x="488" y="346" on="0"/>
        <pt x="474" y="250" on="1"/>
        <pt x="466" y="192" on="0"/>
        <pt x="455" y="60" on="0"/>
        <pt x="451" y="-1" on="1"/>
        <pt x="433" y="-15" on="0"/>
        <pt x="385" y="-32" on="0"/>
        <pt x="362" y="-40" on="1"/>
        <pt x="339" y="-19" on="1"/>
        <pt x="353" y="48" on="0"/>
        <pt x="379" y="189" on="0"/>
        <pt x="387" y="250" on="1"/>
        <pt x="399" y="349" on="0"/>
        <pt x="415" y="570" on="0"/>
        <pt x="413" y="680" on="1"/>
        <pt x="439" y="749" on="0"/>
        <pt x="473" y="898" on="0"/>
        <pt x="484" y="967" on="1"/>
        <pt x="443" y="965" on="0"/>
        <pt x="365" y="957" on="0"/>
        <pt x="289" y="945" on="0"/>
        <pt x="211" y="928" on="0"/>
        <pt x="169" y="917" on="1"/>
        <pt x="153" y="960" on="1"/>
        <pt x="170" y="994" on="0"/>
        <pt x="220" y="1079" on="0"/>
        <pt x="248" y="1117" on="1"/>
        <pt x="305" y="1093" on="0"/>
        <pt x="424" y="1071" on="0"/>
        <pt x="498" y="1067" on="1"/>
        <pt x="508" y="1158" on="0"/>
        <pt x="509" y="1324" on="0"/>
        <pt x="496" y="1398" on="1"/>
        <pt x="534" y="1423" on="0"/>
        <pt x="617" y="1466" on="0"/>
        <pt x="649" y="1480" on="1"/>
        <pt x="684" y="1455" on="1"/>
        <pt x="651" y="1361" on="0"/>
        <pt x="603" y="1163" on="0"/>
        <pt x="587" y="1068" on="1"/>
        <pt x="629" y="1070" on="0"/>
        <pt x="707" y="1077" on="0"/>
        <pt x="784" y="1089" on="0"/>
        <pt x="863" y="1106" on="0"/>
        <pt x="905" y="1117" on="1"/>
      </contour>
    </TTGlyph>
    <TTGlyph name="daggerdbl" xMin="72" yMin="-40" xMax="921" yMax="1480">
      <contour>
        <pt x="921" y="1074" on="1"/>
        <pt x="904" y="1040" on="0"/>
        <pt x="854" y="955" on="0"/>
        <pt x="826" y="917" on="1"/>
        <pt x="767" y="939" on="0"/>
        <pt x="648" y="962" on="0"/>
        <pt x="573" y="967" on="1"/>
        <pt x="566" y="905" on="0"/>
        <pt x="565" y="788" on="0"/>
        <pt x="573" y="720" on="1"/>
        <pt x="548" y="654" on="0"/>
        <pt x="517" y="531" on="0"/>
        <pt x="506" y="473" on="1"/>
        <pt x="548" y="475" on="0"/>
        <pt x="626" y="483" on="0"/>
        <pt x="703" y="495" on="0"/>
        <pt x="782" y="512" on="0"/>
        <pt x="824" y="523" on="1"/>
        <pt x="841" y="480" on="1"/>
        <pt x="824" y="446" on="0"/>
        <pt x="773" y="361" on="0"/>
        <pt x="745" y="323" on="1"/>
        <pt x="688" y="341" on="0"/>
        <pt x="567" y="367" on="0"/>
        <pt x="492" y="372" on="1"/>
        <pt x="480" y="276" on="0"/>
        <pt x="480" y="118" on="0"/>
        <pt x="494" y="42" on="1"/>
        <pt x="456" y="17" on="0"/>
        <pt x="374" y="-26" on="0"/>
        <pt x="342" y="-40" on="1"/>
        <pt x="306" y="-15" on="1"/>
        <pt x="341" y="81" on="0"/>
        <pt x="390" y="271" on="0"/>
        <pt x="405" y="372" on="1"/>
        <pt x="364" y="370" on="0"/>
        <pt x="286" y="361" on="0"/>
        <pt x="209" y="349" on="0"/>
        <pt x="130" y="333" on="0"/>
        <pt x="88" y="323" on="1"/>
        <pt x="72" y="366" on="1"/>
        <pt x="89" y="400" on="0"/>
        <pt x="140" y="485" on="0"/>
        <pt x="167" y="523" on="1"/>
        <pt x="225" y="499" on="0"/>
        <pt x="344" y="477" on="0"/>
        <pt x="418" y="473" on="1"/>
        <pt x="424" y="531" on="0"/>
        <pt x="427" y="655" on="0"/>
        <pt x="420" y="720" on="1"/>
        <pt x="446" y="789" on="0"/>
        <pt x="476" y="905" on="0"/>
        <pt x="486" y="967" on="1"/>
        <pt x="403" y="962" on="0"/>
        <pt x="253" y="937" on="0"/>
        <pt x="169" y="917" on="1"/>
        <pt x="153" y="960" on="1"/>
        <pt x="170" y="994" on="0"/>
        <pt x="220" y="1079" on="0"/>
        <pt x="248" y="1117" on="1"/>
        <pt x="305" y="1093" on="0"/>
        <pt x="425" y="1071" on="0"/>
        <pt x="500" y="1067" on="1"/>
        <pt x="511" y="1162" on="0"/>
        <pt x="509" y="1323" on="0"/>
        <pt x="498" y="1398" on="1"/>
        <pt x="536" y="1423" on="0"/>
        <pt x="618" y="1466" on="0"/>
        <pt x="650" y="1480" on="1"/>
        <pt x="686" y="1455" on="1"/>
        <pt x="655" y="1361" on="0"/>
        <pt x="605" y="1168" on="0"/>
        <pt x="588" y="1068" on="1"/>
        <pt x="630" y="1070" on="0"/>
        <pt x="708" y="1077" on="0"/>
        <pt x="784" y="1089" on="0"/>
        <pt x="863" y="1106" on="0"/>
        <pt x="905" y="1117" on="1"/>
      </contour>
    </TTGlyph>
    <TTGlyph name="dcroat" xMin="53" yMin="-41" xMax="1047" yMax="1520">
      <contour>
        <pt x="621" y="424" on="1"/>
        <pt x="630" y="484" on="0"/>
        <pt x="654" y="637" on="0"/>
        <pt x="668" y="722" on="1"/>
        <pt x="651" y="740" on="0"/>
        <pt x="612" y="779" on="0"/>
        <pt x="567" y="811" on="0"/>
        <pt x="517" y="831" on="0"/>
        <pt x="489" y="831" on="1"/>
        <pt x="443" y="831" on="0"/>
        <pt x="364" y="786" on="0"/>
        <pt x="297" y="712" on="0"/>
        <pt x="245" y="617" on="0"/>
        <pt x="209" y="516" on="0"/>
        <pt x="190" y="418" on="0"/>
        <pt x="190" y="379" on="1"/>
        <pt x="190" y="314" on="0"/>
        <pt x="217" y="210" on="0"/>
        <pt x="261" y="136" on="0"/>
        <pt x="317" y="96" on="0"/>
        <pt x="346" y="96" on="1"/>
        <pt x="373" y="96" on="0"/>
        <pt x="439" y="146" on="0"/>
        <pt x="510" y="235" on="0"/>
        <pt x="585" y="355" on="0"/>
      </contour>
      <contour>
        <pt x="924" y="68" on="1"/>
        <pt x="839" y="11" on="0"/>
        <pt x="730" y="-41" on="0"/>
        <pt x="696" y="-41" on="1"/>
        <pt x="677" y="-41" on="0"/>
        <pt x="645" y="-10" on="0"/>
        <pt x="622" y="65" on="0"/>
        <pt x="608" y="189" on="0"/>
        <pt x="608" y="281" on="1"/>
        <pt x="574" y="218" on="0"/>
        <pt x="495" y="102" on="0"/>
        <pt x="409" y="12" on="0"/>
        <pt x="319" y="-41" on="0"/>
        <pt x="276" y="-41" on="1"/>
        <pt x="242" y="-41" on="0"/>
        <pt x="164" y="0" on="0"/>
        <pt x="97" y="87" on="0"/>
        <pt x="53" y="222" on="0"/>
        <pt x="53" y="315" on="1"/>
        <pt x="53" y="394" on="0"/>
        <pt x="87" y="543" on="0"/>
        <pt x="156" y="678" on="0"/>
        <pt x="261" y="795" on="0"/>
        <pt x="332" y="842" on="1"/>
        <pt x="360" y="860" on="0"/>
        <pt x="425" y="893" on="0"/>
        <pt x="493" y="918" on="0"/>
        <pt x="561" y="934" on="0"/>
        <pt x="592" y="934" on="1"/>
        <pt x="617" y="934" on="0"/>
        <pt x="668" y="902" on="0"/>
        <pt x="694" y="882" on="1"/>
        <pt x="704" y="942" on="0"/>
        <pt x="722" y="1058" on="0"/>
        <pt x="730" y="1112" on="1"/>
        <pt x="457" y="1112" on="1"/>
        <pt x="438" y="1137" on="1"/>
        <pt x="444" y="1152" on="0"/>
        <pt x="460" y="1188" on="0"/>
        <pt x="469" y="1202" on="1"/>
        <pt x="742" y="1202" on="1"/>
        <pt x="747" y="1247" on="0"/>
        <pt x="754" y="1321" on="0"/>
        <pt x="754" y="1346" on="1"/>
        <pt x="754" y="1369" on="0"/>
        <pt x="747" y="1396" on="0"/>
        <pt x="734" y="1409" on="0"/>
        <pt x="718" y="1413" on="0"/>
        <pt x="709" y="1413" on="1"/>
        <pt x="700" y="1413" on="0"/>
        <pt x="665" y="1404" on="0"/>
        <pt x="647" y="1399" on="1"/>
        <pt x="626" y="1393" on="0"/>
        <pt x="602" y="1386" on="1"/>
        <pt x="590" y="1425" on="1"/>
        <pt x="632" y="1444" on="0"/>
        <pt x="717" y="1478" on="0"/>
        <pt x="790" y="1504" on="0"/>
        <pt x="846" y="1520" on="0"/>
        <pt x="858" y="1520" on="1"/>
        <pt x="886" y="1520" on="0"/>
        <pt x="913" y="1484" on="0"/>
        <pt x="913" y="1438" on="1"/>
        <pt x="913" y="1400" on="0"/>
        <pt x="899" y="1277" on="0"/>
        <pt x="888" y="1202" on="1"/>
        <pt x="1028" y="1202" on="1"/>
        <pt x="1047" y="1180" on="1"/>
        <pt x="1016" y="1112" on="1"/>
        <pt x="874" y="1112" on="1"/>
        <pt x="862" y="1037" on="0"/>
        <pt x="834" y="875" on="0"/>
        <pt x="807" y="715" on="0"/>
        <pt x="781" y="563" on="0"/>
        <pt x="762" y="432" on="0"/>
        <pt x="750" y="330" on="0"/>
        <pt x="750" y="299" on="1"/>
        <pt x="750" y="183" on="0"/>
        <pt x="772" y="78" on="0"/>
        <pt x="795" y="78" on="1"/>
        <pt x="821" y="78" on="0"/>
        <pt x="876" y="89" on="0"/>
        <pt x="911" y="104" on="1"/>
      </contour>
    </TTGlyph>
    <TTGlyph name="degree" xMin="178" yMin="759" xMax="614" yMax="1235">
      <contour>
        <pt x="362" y="851" on="1"/>
        <pt x="397" y="851" on="0"/>
        <pt x="452" y="885" on="0"/>
        <pt x="489" y="938" on="0"/>
        <pt x="509" y="1000" on="0"/>
        <pt x="509" y="1028" on="1"/>
        <pt x="509" y="1076" on="0"/>
        <pt x="467" y="1142" on="0"/>
        <pt x="429" y="1142" on="1"/>
        <pt x="402" y="1142" on="0"/>
        <pt x="350" y="1114" on="0"/>
        <pt x="309" y="1066" on="0"/>
        <pt x="284" y="1002" on="0"/>
        <pt x="284" y="966" on="1"/>
        <pt x="284" y="943" on="0"/>
        <pt x="294" y="901" on="0"/>
        <pt x="314" y="869" on="0"/>
        <pt x="343" y="851" on="0"/>
      </contour>
      <contour>
        <pt x="614" y="1073" on="1"/>
        <pt x="614" y="1026" on="0"/>
        <pt x="585" y="943" on="0"/>
        <pt x="538" y="873" on="0"/>
        <pt x="477" y="818" on="0"/>
        <pt x="413" y="779" on="0"/>
        <pt x="351" y="759" on="0"/>
        <pt x="326" y="759" on="1"/>
        <pt x="293" y="759" on="0"/>
        <pt x="238" y="784" on="0"/>
        <pt x="199" y="827" on="0"/>
        <pt x="178" y="885" on="0"/>
        <pt x="178" y="918" on="1"/>
        <pt x="178" y="984" on="0"/>
        <pt x="235" y="1099" on="0"/>
        <pt x="322" y="1185" on="0"/>
        <pt x="422" y="1235" on="0"/>
        <pt x="466" y="1235" on="1"/>
        <pt x="498" y="1235" on="0"/>
        <pt x="552" y="1210" on="0"/>
        <pt x="592" y="1166" on="0"/>
        <pt x="614" y="1107" on="0"/>
      </contour>
    </TTGlyph>
    <TTGlyph name="dieresis" xMin="320" yMin="1106" xMax="886" yMax="1333">
      <contour>
        <pt x="513" y="1262" on="1"/>
        <pt x="513" y="1234" on="0"/>
        <pt x="495" y="1179" on="0"/>
        <pt x="463" y="1134" on="0"/>
        <pt x="416" y="1106" on="0"/>
        <pt x="388" y="1106" on="1"/>
        <pt x="356" y="1106" on="0"/>
        <pt x="320" y="1142" on="0"/>
        <pt x="320" y="1176" on="1"/>
        <pt x="320" y="1203" on="0"/>
        <pt x="339" y="1258" on="0"/>
        <pt x="372" y="1304" on="0"/>
        <pt x="419" y="1333" on="0"/>
        <pt x="447" y="1333" on="1"/>
        <pt x="478" y="1333" on="0"/>
        <pt x="513" y="1296" on="0"/>
      </contour>
      <contour>
        <pt x="886" y="1262" on="1"/>
        <pt x="886" y="1234" on="0"/>
        <pt x="868" y="1179" on="0"/>
        <pt x="835" y="1134" on="0"/>
        <pt x="788" y="1106" on="0"/>
        <pt x="759" y="1106" on="1"/>
        <pt x="728" y="1106" on="0"/>
        <pt x="693" y="1142" on="0"/>
        <pt x="693" y="1176" on="1"/>
        <pt x="693" y="1203" on="0"/>
        <pt x="711" y="1258" on="0"/>
        <pt x="743" y="1304" on="0"/>
        <pt x="789" y="1333" on="0"/>
        <pt x="818" y="1333" on="1"/>
        <pt x="849" y="1333" on="0"/>
        <pt x="886" y="1296" on="0"/>
      </contour>
    </TTGlyph>
    <TTGlyph name="divide" xMin="70" yMin="230" xMax="715" yMax="895">
      <contour>
        <pt x="715" y="596" on="1"/>
        <pt x="712" y="586" on="0"/>
        <pt x="707" y="573" on="1"/>
        <pt x="697" y="548" on="1"/>
        <pt x="692" y="536" on="0"/>
        <pt x="680" y="513" on="0"/>
        <pt x="676" y="505" on="1"/>
        <pt x="89" y="505" on="1"/>
        <pt x="70" y="529" on="1"/>
        <pt x="78" y="549" on="0"/>
        <pt x="100" y="600" on="0"/>
        <pt x="111" y="620" on="1"/>
        <pt x="697" y="620" on="1"/>
      </contour>
      <contour>
        <pt x="433" y="339" on="1"/>
        <pt x="430" y="317" on="0"/>
        <pt x="412" y="277" on="0"/>
        <pt x="385" y="247" on="0"/>
        <pt x="353" y="230" on="0"/>
        <pt x="335" y="230" on="1"/>
        <pt x="303" y="230" on="0"/>
        <pt x="280" y="270" on="0"/>
        <pt x="285" y="307" on="1"/>
        <pt x="288" y="329" on="0"/>
        <pt x="307" y="369" on="0"/>
        <pt x="333" y="398" on="0"/>
        <pt x="366" y="415" on="0"/>
        <pt x="383" y="415" on="1"/>
        <pt x="444" y="415" on="0"/>
      </contour>
      <contour>
        <pt x="500" y="819" on="1"/>
        <pt x="497" y="797" on="0"/>
        <pt x="478" y="757" on="0"/>
        <pt x="451" y="727" on="0"/>
        <pt x="419" y="710" on="0"/>
        <pt x="401" y="710" on="1"/>
        <pt x="369" y="710" on="0"/>
        <pt x="347" y="750" on="0"/>
        <pt x="352" y="787" on="1"/>
        <pt x="355" y="809" on="0"/>
        <pt x="374" y="849" on="0"/>
        <pt x="400" y="878" on="0"/>
        <pt x="433" y="895" on="0"/>
        <pt x="450" y="895" on="1"/>
        <pt x="511" y="895" on="0"/>
      </contour>
    </TTGlyph>
</ttFont>
